<svg width="206" height="206" viewBox="0 0 206 206" fill="none" xmlns="http://www.w3.org/2000/svg">
<path d="M186.235 43.896L183.979 45.5002C196.12 62.6564 202.542 82.8022 202.542 103.766C202.542 105.104 202.516 106.474 202.459 107.818L205.224 107.927C205.276 106.547 205.308 105.146 205.308 103.766C205.308 98.4325 204.901 93.1304 204.084 87.8647C203.266 82.5939 202.047 77.422 200.427 72.3387C198.813 67.2606 196.813 62.3387 194.433 57.5679C192.052 52.797 189.318 48.2397 186.235 43.896Z" fill="#26FFBE"/>
<path d="M19.7031 162.203C16.9948 158.38 14.5625 154.391 12.4063 150.229L9.95312 151.505C13.1615 157.687 16.9479 163.49 21.3125 168.917C25.6771 174.344 30.5312 179.281 35.8854 183.734C42.6719 189.365 50.0625 194.042 58.0521 197.776L59.2188 195.266C43.474 187.917 29.8177 176.484 19.7031 162.203Z" fill="#26FFBE"/>
<path d="M160.089 186.141C149.058 193.974 136.828 199.427 123.745 202.344L124.344 205.042C137.792 202.047 150.36 196.448 161.693 188.396C169.011 183.203 175.542 177.167 181.297 170.276L179.177 168.5C173.573 175.208 167.214 181.083 160.089 186.141Z" fill="#26FFBE"/>
<path d="M11.1566 53.9217C5.72949 63.8228 2.02116 74.3332 0.0263672 85.453L2.74512 85.9425C6.68262 64.0988 17.8545 43.9165 34.2191 29.0936L32.3701 27.0415C23.7868 34.8019 16.7139 43.7655 11.1566 53.9217Z" fill="#26FFBE"/>
<path d="M93.7913 3.28109C96.4268 3.07275 99.109 2.96859 101.755 2.96859C121.354 2.96859 140.354 8.59359 156.718 19.2342L158.224 16.9113C154.041 14.1978 149.687 11.7967 145.156 9.71338C140.63 7.62484 135.974 5.87484 131.198 4.45817C126.416 3.04671 121.562 1.979 116.63 1.26546C111.698 0.551921 106.739 0.197754 101.755 0.197754C99.0309 0.197754 96.2809 0.307128 93.5674 0.520671L93.7913 3.28109Z" fill="#26FFBE"/>
</svg>
