<svg width="222" height="228" viewBox="0 0 222 228" fill="none" xmlns="http://www.w3.org/2000/svg">
<mask id="mask0_2033_1259" style="mask-type:luminance" maskUnits="userSpaceOnUse" x="9" y="0" width="97" height="68">
<path d="M9.35449 0H105.354V67.5469H9.35449V0Z" fill="white"/>
</mask>
<g mask="url(#mask0_2033_1259)">
<path d="M51.0264 27.9375C66.6879 16.8125 85.0265 10.1979 104.068 8.80208L103.427 0.015625C98.49 0.380209 93.5994 1.0625 88.7556 2.06771C83.9119 3.06771 79.1515 4.38542 74.4796 6.00521C69.8025 7.63021 65.2556 9.55208 60.8285 11.7708C56.4067 13.9896 52.1462 16.4844 48.0421 19.2604C43.9431 22.0365 40.0421 25.0625 36.3389 28.349C32.6306 31.6354 29.1567 35.1458 25.9067 38.8802C22.6567 42.6198 19.6671 46.5521 16.9275 50.6823C14.1931 54.8125 11.7348 59.099 9.55249 63.5521L17.4483 67.4271C25.115 51.7552 36.7244 38.099 51.0264 27.9375Z" fill="#26FFBE"/>
</g>
<mask id="mask1_2033_1259" style="mask-type:luminance" maskUnits="userSpaceOnUse" x="0" y="132" width="46" height="72">
<path d="M0 132.88H45.3542V203.547H0V132.88Z" fill="white"/>
</mask>
<g mask="url(#mask1_2033_1259)">
<path d="M26.0834 174.776C17.3542 162.443 11.4792 148.729 8.62508 134.01L-0.00512695 135.688C1.51571 143.521 3.83342 151.109 6.948 158.448C10.5782 166.969 15.1615 174.932 20.7136 182.344C26.2605 189.75 32.6095 196.396 39.7605 202.266L45.323 195.448C37.9792 189.422 31.5678 182.537 26.0834 174.776Z" fill="#26FFBE"/>
</g>
<mask id="mask2_2033_1259" style="mask-type:luminance" maskUnits="userSpaceOnUse" x="82" y="212" width="68" height="16">
<path d="M82.6875 212.88H149.354V228H82.6875V212.88Z" fill="white"/>
</mask>
<g mask="url(#mask2_2033_1259)">
<path d="M85.4635 215.807L83.2656 224.339C92.6615 226.771 102.219 227.99 111.922 227.99C113.318 227.99 114.714 227.969 116.109 227.917C127.38 227.505 138.344 225.458 149.005 221.771L146.135 213.443C126.589 220.208 105.609 221.026 85.4635 215.807Z" fill="#26FFBE"/>
</g>
<mask id="mask3_2033_1259" style="mask-type:luminance" maskUnits="userSpaceOnUse" x="176" y="23" width="46" height="65">
<path d="M176.021 23.5469H222V87.5469H176.021V23.5469Z" fill="white"/>
</mask>
<g mask="url(#mask3_2033_1259)">
<path d="M197.599 52.9323C204.932 63.2969 210.281 74.7188 213.494 86.8803L221.994 84.625C218.515 71.4375 212.718 59.0573 204.77 47.8334C198.416 38.8386 190.916 30.9323 182.281 24.1146L176.843 31.0365C184.817 37.3334 191.734 44.6303 197.599 52.9323Z" fill="#26FFBE"/>
</g>
</svg>
