<svg width="162" height="162" viewBox="0 0 162 162" fill="none" xmlns="http://www.w3.org/2000/svg">
<path d="M160.865 74.2448H160.854L160.818 73.7709L156.5 74.4375H158.547L154.214 74.7865L156.51 74.4375L154.203 74.7917L152.188 74.9584C152.344 76.8698 152.422 78.8177 152.422 80.7396L161.13 80.7344C161.13 78.573 161.042 76.3907 160.865 74.2448Z" fill="#26FFBE"/>
<path d="M84.6357 4.875L84.3232 9.22917L84.5732 9.23438C86.4899 9.33854 88.4274 9.52083 90.3285 9.77604L91.4847 1.125C89.3545 0.838541 87.1826 0.635416 85.0368 0.526042L84.641 8.00521V0.515625L84.6357 4.875Z" fill="#26FFBE"/>
<path d="M161.052 84.4165L152.349 84.0259C152.302 85.1144 152.224 86.2186 152.13 87.3019L160.802 88.0936C160.911 86.8748 160.994 85.6353 161.052 84.4165Z" fill="#26FFBE"/>
<path d="M79.724 152.552C78.6354 152.537 77.5365 152.49 76.4479 152.422L75.9062 161.13C77.125 161.208 78.3646 161.255 79.5833 161.276L79.724 152.552Z" fill="#26FFBE"/>
<path d="M73.0264 152.13C71.1149 151.917 69.193 151.625 67.3128 151.266L65.667 159.833C67.7764 160.24 69.9326 160.563 72.068 160.802L73.0264 152.13Z" fill="#26FFBE"/>
<path d="M156.073 91.1613L151.766 90.4946L151.761 90.5415L156.219 91.1821H156.224L160.381 91.7759L156.073 91.1613Z" fill="#26FFBE"/>
<path d="M149.927 99.6095C149.641 100.662 149.328 101.724 149 102.761L157.286 105.422C157.661 104.255 158.01 103.073 158.328 101.886L149.927 99.6095Z" fill="#26FFBE"/>
<path d="M160.359 91.9272L151.734 90.7241C151.468 92.6252 151.125 94.5418 150.708 96.422L159.208 98.3127C159.677 96.2085 160.062 94.0575 160.359 91.9272Z" fill="#26FFBE"/>
<path d="M52.9115 12.5L51.9115 10.4843L49.9688 6.59892L51.9167 10.5L53.4792 14.5729L53.7188 14.4687V14.4739C55.4948 13.7448 57.3177 13.0781 59.1458 12.4948L56.5052 4.18225C54.4531 4.8385 52.401 5.58329 50.4115 6.401L52.9115 12.5Z" fill="#26FFBE"/>
<path d="M96.7809 10.9479L98.7132 2.4375C97.5257 2.16667 96.3122 1.92187 95.1143 1.70312L93.5674 10.2865C94.6351 10.4844 95.7184 10.7031 96.7809 10.9479Z" fill="#26FFBE"/>
<path d="M56.4059 152.88L55.4424 155.193L57.6559 148.698C55.8382 148.078 54.0257 147.375 52.2705 146.609L48.8018 154.615C50.7757 155.469 52.807 156.255 54.8434 156.953V156.948L55.1247 157.047L56.4111 152.865L57.6872 148.708L56.4059 152.88Z" fill="#26FFBE"/>
<path d="M68.7601 9.57275L67.958 5.83838L67.0518 1.604L67.9632 5.86963L68.6247 10.1821L68.8538 10.1405C70.7445 9.81755 72.6715 9.57275 74.583 9.40609L73.8278 0.713379C71.682 0.900879 69.5205 1.17692 67.4007 1.5363L68.7601 9.57275Z" fill="#26FFBE"/>
<path d="M72.7135 156.458L73.0469 152.135L72.7135 156.479V156.484L72.0938 160.802L72.3802 160.833L72.7135 156.458Z" fill="#26FFBE"/>
<path d="M77.8542 9.19792C78.9427 9.15625 80.0469 9.13542 81.1354 9.14063L81.1771 0.41667C79.9583 0.411462 78.7188 0.432294 77.5 0.484378L77.8542 9.19792Z" fill="#26FFBE"/>
<path d="M62.2965 11.5728C63.3434 11.2915 64.4163 11.0311 65.4788 10.7967L63.6143 2.27588C62.4163 2.5363 61.2132 2.82796 60.0361 3.14567L62.2965 11.5728Z" fill="#26FFBE"/>
<path d="M134.114 32.953C134.838 33.7655 135.557 34.604 136.244 35.4478L142.989 29.9321C142.218 28.9842 141.416 28.0415 140.604 27.1353L134.114 32.953Z" fill="#26FFBE"/>
<path d="M138.234 38.0052L138.354 38.1666L141.786 35.4166L141.792 35.4114L145.156 32.7135L141.755 35.4375L138.234 38.0052Z" fill="#26FFBE"/>
<path d="M118.817 9.9738L118.573 9.83838L116.614 13.7655L114.677 17.6457L116.625 13.7446L118.817 9.9738Z" fill="#26FFBE"/>
<path d="M160.458 70.4064C160.302 69.1928 160.115 67.9689 159.901 66.7657L151.328 68.2866C151.516 69.3595 151.682 70.4532 151.823 71.5314L160.458 70.4064Z" fill="#26FFBE"/>
<path d="M159.177 63.151C158.703 61.0469 158.141 58.9323 157.495 56.875L149.183 59.4792C149.756 61.3125 150.261 63.1927 150.683 65.0677L159.177 63.151Z" fill="#26FFBE"/>
<path d="M111.646 16.1146L115.385 8.23442C114.286 7.70837 113.156 7.20317 112.031 6.724L108.656 14.7657C109.661 15.1927 110.667 15.6459 111.646 16.1146Z" fill="#26FFBE"/>
<path d="M113.958 154.135L110.359 146.193C109.37 146.641 108.349 147.073 107.344 147.479L110.578 155.583C111.708 155.125 112.849 154.641 113.958 154.135Z" fill="#26FFBE"/>
<path d="M88.7705 152.13C86.8643 152.339 84.9268 152.474 83.0049 152.531L83.2549 161.255C85.4059 161.193 87.583 161.042 89.7184 160.807L88.7705 152.13Z" fill="#26FFBE"/>
<path d="M104.125 148.677C102.313 149.302 100.453 149.865 98.5938 150.339L100.75 158.792C102.839 158.255 104.927 157.63 106.958 156.927L104.125 148.677Z" fill="#26FFBE"/>
<path d="M95.4007 151.078C94.3382 151.297 93.2497 151.495 92.1768 151.672L93.5465 160.286C94.7549 160.094 95.9736 159.865 97.1663 159.62L95.4007 151.078Z" fill="#26FFBE"/>
<path d="M4.11426 57.1616V57.1668L12.4372 59.7293L4.11426 57.1616Z" fill="#26FFBE"/>
<path d="M14.417 54.1252L6.32845 50.8804C5.53157 52.8804 4.80241 54.9377 4.16699 56.995L12.4847 59.5783C13.0524 57.745 13.7035 55.9064 14.417 54.1252Z" fill="#26FFBE"/>
<path d="M7.77637 47.495L15.7035 51.0991C16.1514 50.1095 16.6305 49.1147 17.1253 48.146L9.37012 44.1772C8.81803 45.2658 8.28158 46.3804 7.77637 47.495Z" fill="#26FFBE"/>
<path d="M18.724 45.1875L14.8542 43.0677L11.0781 41.0104L14.901 43.0989L18.6615 45.2968L18.724 45.1875Z" fill="#26FFBE"/>
<path d="M37.2861 18.5731L39.833 22.0783L37.2705 18.5522L35.1715 15.245L39.9007 22.0366C41.4788 20.9325 43.1143 19.8804 44.7653 18.9116L40.3695 11.3804C38.5205 12.4689 36.6872 13.646 34.9163 14.8804L34.708 15.021L37.2861 18.5731Z" fill="#26FFBE"/>
<path d="M10.1976 69.3175L1.60384 67.9165C1.25488 70.0415 0.994467 72.2134 0.817383 74.3592L9.49967 75.0675C9.65072 73.1509 9.8903 71.2186 10.1976 69.3175Z" fill="#26FFBE"/>
<path d="M0.801758 74.5679L5.1403 74.8804L9.48405 75.2137L9.48926 75.1877L4.84863 74.8543H4.84342L0.801758 74.5679Z" fill="#26FFBE"/>
<path d="M11.5472 62.8908L3.11491 60.7085C2.80762 61.8908 2.52637 63.0991 2.27637 64.297L10.8024 66.0887C11.0212 65.021 11.2764 63.9429 11.5472 62.8908Z" fill="#26FFBE"/>
<path d="M60.9323 149.729L58.5156 158.115C59.6875 158.448 60.8854 158.771 62.0729 159.052L64.1042 150.568C63.0469 150.318 61.9792 150.031 60.9323 149.729Z" fill="#26FFBE"/>
<path d="M141.995 132.99L135.37 127.333C134.661 128.161 133.927 128.984 133.188 129.776L139.552 135.734C140.38 134.844 141.208 133.922 141.995 132.99Z" fill="#26FFBE"/>
<path d="M9.94792 90.8333C9.68229 88.9323 9.48958 86.9948 9.38021 85.0729L0.6875 85.5781C0.8125 87.7291 1.02083 89.901 1.32292 92.0364L9.94792 90.8333Z" fill="#26FFBE"/>
<path d="M127.281 146.458C127.906 146.016 128.531 145.557 129.14 145.099L123.906 138.125C123.359 138.536 122.802 138.948 122.244 139.344C121.906 139.578 121.573 139.818 121.239 140.047L126.156 147.25C126.531 146.99 126.911 146.724 127.281 146.458Z" fill="#26FFBE"/>
<path d="M150.062 40.1509L146.541 42.7134L142.646 44.6665L142.869 45.0311L142.859 45.0415C143.817 46.7082 144.724 48.4321 145.541 50.1665L153.411 46.4217C152.489 44.479 151.474 42.5467 150.396 40.6769L149.015 41.4738L145.26 43.6509L146.552 42.7082L150.062 40.1509Z" fill="#26FFBE"/>
<path d="M149.318 106.552L147.875 106.016C147.203 107.813 146.448 109.609 145.636 111.344L153.521 115.047C154.433 113.099 155.282 111.089 156.037 109.068L156.016 109.063L156.177 108.667L152.006 107.38H152.011L153.401 108.078L149.328 106.557L149.318 106.552Z" fill="#26FFBE"/>
<path d="M9.2653 81.7915C9.2653 81.4998 9.26009 81.203 9.26009 80.9165C9.26009 80.1144 9.27051 79.3071 9.30176 78.505L0.593424 78.2134C0.567382 79.1092 0.551758 80.0207 0.551758 80.9165C0.551758 81.2394 0.551758 81.5728 0.556966 81.8957L9.2653 81.7915Z" fill="#26FFBE"/>
<path d="M151.886 118.349L144.177 114.287C143.677 115.25 143.136 116.214 142.589 117.156L150.099 121.568C150.719 120.516 151.318 119.427 151.886 118.349Z" fill="#26FFBE"/>
<path d="M145.354 32.979L138.354 38.1665C138.646 38.5675 138.943 38.9738 139.229 39.3748C139.86 40.2655 140.479 41.1821 141.068 42.0988L148.391 37.38C147.729 36.354 147.037 35.328 146.328 34.328C146.011 33.8748 145.683 33.4217 145.354 32.979Z" fill="#26FFBE"/>
<path d="M21.4844 26.6666L27.9635 32.5052L21.4896 26.6666H21.4844Z" fill="#26FFBE"/>
<path d="M21.625 26.5156L28.0417 32.4166C29.3385 31 30.7083 29.6198 32.1198 28.3125L26.1979 21.9166C24.6198 23.3802 23.0833 24.927 21.625 26.5156Z" fill="#26FFBE"/>
<path d="M16.8076 32.3019L23.7503 37.5675C24.4066 36.703 25.0889 35.8384 25.7868 34.9998L19.0941 29.4165C18.3128 30.3592 17.542 31.328 16.8076 32.3019Z" fill="#26FFBE"/>
<path d="M154.911 49.7866L146.88 53.1616C147.302 54.172 147.708 55.1981 148.083 56.2189L156.26 53.2189C155.838 52.0679 155.385 50.9168 154.911 49.7866Z" fill="#26FFBE"/>
<path d="M11.208 40.7863L18.7601 45.1248C19.7132 43.4582 20.7497 41.8123 21.833 40.229L14.6559 35.2915C13.4372 37.0675 12.2757 38.9165 11.208 40.7863Z" fill="#26FFBE"/>
<path d="M24.9271 125.615C24.2448 124.766 23.5781 123.886 22.9375 123L15.8906 128.13C16.6094 129.12 17.3542 130.104 18.1146 131.057L24.9271 125.615Z" fill="#26FFBE"/>
<path d="M137.339 137.969L133.938 135.245L131.026 132L130.797 132.245L130.787 132.229C129.412 133.568 127.964 134.87 126.479 136.089L132.026 142.818C133.688 141.443 135.313 139.984 136.854 138.49L132.907 134.417L133.943 135.25L137.339 137.969Z" fill="#26FFBE"/>
<path d="M5.80697 91.5781L9.96322 90.9375L5.65592 91.599L1.34863 92.2188L1.35384 92.2656L5.80697 91.5781Z" fill="#26FFBE"/>
<path d="M148.407 124.276L144.516 122.323L140.995 119.76L140.797 120.094L140.782 120.083C139.735 121.687 138.604 123.271 137.433 124.792L144.313 130.135C145.631 128.437 146.896 126.656 148.073 124.854L147.183 124.271L143.229 121.687L144.526 122.333L148.407 124.276Z" fill="#26FFBE"/>
<path d="M24.9323 138.594L24.9375 138.589L25.1719 138.823L28.099 135.568L31.3229 132.661L28.099 135.563L30.349 133.063L28.0885 135.578L26.2448 137.24L30.9688 132.37L30.3438 133.063L30.9792 132.359L31 132.339C29.625 131 28.2865 129.589 27.026 128.146L20.4688 133.891C21.8906 135.505 23.3906 137.094 24.9323 138.594Z" fill="#26FFBE"/>
<path d="M120.791 145.573L123.276 149.125L120.776 145.552L118.583 141.781L118.354 141.932V141.927C116.718 142.932 115.021 143.891 113.317 144.766L117.276 152.536C119.192 151.557 121.088 150.484 122.927 149.349L119.146 143.214L120.791 145.568V145.573Z" fill="#26FFBE"/>
<path d="M105.729 152.833L107.161 156.859L105.698 152.75L104.323 148.609L104.234 148.641L105.724 152.823L105.729 152.833Z" fill="#26FFBE"/>
<path d="M36.0257 136.786C35.1768 136.104 34.333 135.391 33.5205 134.672L27.7549 141.214C28.6715 142.021 29.6195 142.823 30.5674 143.589L36.0257 136.786Z" fill="#26FFBE"/>
<path d="M16.4945 112.281C16.0153 111.302 15.557 110.302 15.1247 109.297L7.12988 112.771C7.61947 113.891 8.13509 115.016 8.67155 116.115L16.4945 112.281Z" fill="#26FFBE"/>
<path d="M5.68717 109.187L5.75488 109.37L9.85384 107.792L13.8799 106.239L9.81738 107.802L5.78092 109.151L13.8382 106.109C13.1611 104.312 12.5465 102.463 12.0205 100.62L3.64551 103.021C4.23926 105.094 4.92676 107.172 5.68717 109.187Z" fill="#26FFBE"/>
<path d="M11.1878 97.4425C10.9378 96.38 10.7087 95.3019 10.5055 94.229L1.94824 95.854C2.17741 97.0571 2.43262 98.2707 2.71387 99.4582L11.1878 97.4425Z" fill="#26FFBE"/>
<path d="M28.9531 19.474L34.5729 26.1407C35.4063 25.4375 36.2604 24.7448 37.125 24.0782L31.8125 17.1615C30.8438 17.9063 29.8802 18.6875 28.9531 19.474Z" fill="#26FFBE"/>
<path d="M21.1045 120.354L21.0524 120.276L17.3701 122.739H17.3649L13.8076 125.114L17.4326 122.698L21.1045 120.354Z" fill="#26FFBE"/>
<path d="M20.9788 120.161C19.9268 118.552 18.9215 116.885 18.0049 115.203L10.3643 119.391C11.3955 121.276 12.5205 123.146 13.7028 124.953L20.9788 120.161Z" fill="#26FFBE"/>
<path d="M43.4167 141.995C41.7812 140.99 40.1667 139.912 38.6198 138.781L33.4844 145.828C35.224 147.099 37.0312 148.313 38.8698 149.438L43.4167 141.995Z" fill="#26FFBE"/>
<path d="M105.609 13.5677L108.615 5.38017C106.594 4.63538 104.521 3.9635 102.448 3.38538L100.109 11.7968C101.958 12.3073 103.807 12.9062 105.609 13.5677Z" fill="#26FFBE"/>
<path d="M43.5889 9.59375L47.641 17.3177C48.6045 16.8125 49.5941 16.3177 50.5785 15.8594L46.8857 7.95312C45.7816 8.47396 44.6722 9.02604 43.5889 9.59375Z" fill="#26FFBE"/>
<path d="M41.307 145.766L43.4788 142.037L41.2809 145.802L38.9424 149.485L39.0882 149.573L41.307 145.766Z" fill="#26FFBE"/>
<path d="M49.2972 145.235C48.318 144.755 47.3389 144.245 46.3857 143.724L42.1982 151.375C43.266 151.964 44.3649 152.531 45.4639 153.068L49.2972 145.235Z" fill="#26FFBE"/>
<path d="M100.063 11.7762L101.13 7.49491L102.177 3.31262L101.12 7.547L99.9219 11.7397L100.063 11.7762Z" fill="#26FFBE"/>
<path d="M89.4115 156.422L88.7969 152.13L89.4115 156.448L89.7708 160.797L90.026 160.766L89.4115 156.422Z" fill="#26FFBE"/>
<path d="M41.8799 125.031C41.8799 124.422 41.7653 123.833 41.5309 123.271C41.3018 122.708 40.9684 122.213 40.5361 121.781C40.109 121.349 39.6143 121.015 39.0518 120.786C38.4893 120.552 37.9059 120.432 37.2965 120.432C36.6872 120.432 36.1038 120.552 35.5413 120.786C34.9788 121.015 34.484 121.349 34.0518 121.781C33.6247 122.213 33.2913 122.708 33.057 123.271C32.8278 123.833 32.708 124.422 32.708 125.031C32.708 125.64 32.8278 126.224 33.057 126.786C33.2913 127.349 33.6247 127.849 34.0518 128.276C34.484 128.708 34.9788 129.042 35.5413 129.276C36.1038 129.505 36.6872 129.625 37.2965 129.625C37.9059 129.625 38.4893 129.505 39.0518 129.271C39.609 129.042 40.109 128.708 40.5361 128.276C40.9684 127.844 41.2966 127.349 41.5309 126.786C41.7653 126.224 41.8799 125.64 41.8799 125.031ZM33.9684 125.031C33.9684 124.588 34.0518 124.161 34.2184 123.755C34.3903 123.344 34.6299 122.984 34.9424 122.672C35.2549 122.359 35.6143 122.114 36.0205 121.948C36.432 121.776 36.8538 121.693 37.2965 121.693C37.7393 121.693 38.1611 121.776 38.5726 121.948C38.9788 122.114 39.3382 122.359 39.6507 122.672C39.9632 122.984 40.2028 123.344 40.3747 123.755C40.5413 124.161 40.6247 124.588 40.6247 125.031C40.6247 125.474 40.5413 125.896 40.3747 126.307C40.2028 126.713 39.9632 127.078 39.6507 127.39C39.3382 127.703 38.9788 127.943 38.5674 128.114C38.1611 128.281 37.7393 128.364 37.2965 128.364C36.8538 128.364 36.432 128.281 36.0205 128.109C35.6143 127.943 35.2549 127.698 34.9424 127.385C34.6299 127.073 34.3903 126.713 34.2184 126.307C34.0518 125.896 33.9684 125.474 33.9684 125.031Z" fill="#26FFBE"/>
<path d="M143.369 102.479C143.979 102.479 144.562 102.364 145.125 102.13C145.687 101.896 146.182 101.568 146.614 101.135C147.047 100.703 147.375 100.208 147.609 99.6457C147.843 99.0832 147.958 98.4946 147.958 97.8853C147.958 97.2759 147.843 96.6925 147.609 96.1248C147.375 95.5623 147.047 95.0675 146.614 94.6353C146.182 94.2082 145.687 93.8748 145.125 93.6405C144.562 93.4061 143.979 93.2915 143.369 93.2915C142.765 93.2915 142.177 93.4061 141.614 93.6405C141.057 93.8748 140.557 94.2082 140.13 94.6353C139.698 95.0675 139.369 95.5623 139.135 96.1248C138.901 96.6925 138.786 97.2759 138.786 97.8853C138.786 98.4946 138.901 99.078 139.135 99.6457C139.369 100.208 139.698 100.703 140.13 101.135C140.562 101.562 141.057 101.896 141.619 102.13C142.177 102.364 142.765 102.479 143.369 102.479ZM143.369 94.5467C143.812 94.5467 144.239 94.6353 144.646 94.8019C145.052 94.9738 145.416 95.2134 145.729 95.5259C146.036 95.8384 146.281 96.1978 146.448 96.6092C146.619 97.0155 146.703 97.4425 146.703 97.8853C146.703 98.328 146.619 98.755 146.448 99.1613C146.281 99.5728 146.036 99.9321 145.729 100.245C145.416 100.557 145.052 100.797 144.646 100.969C144.239 101.135 143.812 101.224 143.369 101.224C142.932 101.224 142.505 101.135 142.099 100.969C141.687 100.797 141.328 100.557 141.015 100.245C140.703 99.9321 140.463 99.5728 140.297 99.1613C140.125 98.755 140.041 98.328 140.041 97.8853C140.041 97.4425 140.125 97.0207 140.297 96.6092C140.468 96.203 140.708 95.8436 141.021 95.5311C141.333 95.2186 141.692 94.9738 142.099 94.8071C142.505 94.6405 142.932 94.5519 143.369 94.5519V94.5467Z" fill="#26FFBE"/>
</svg>
