<svg width="124" height="107" viewBox="0 0 124 107" fill="none" xmlns="http://www.w3.org/2000/svg">
<path d="M32 71.2656H56C57.656 71.2656 59 72.6096 59 74.2656C59 75.9216 57.656 77.2656 56 77.2656H47C42.038 77.2656 38 81.3036 38 86.2656C38 91.2276 42.038 95.2656 47 95.2656H92C92.798 95.2656 93.563 94.9476 94.127 94.3806C94.898 93.6066 113 75.2316 113 59.2656C113 44.2356 105.149 35.2656 92 35.2656C78.851 35.2656 71 44.2356 71 59.2656C71 70.3356 79.694 82.5486 85.286 89.2656H47C45.344 89.2656 44 87.9216 44 86.2656C44 84.6096 45.344 83.2656 47 83.2656H56C60.962 83.2656 65 79.2276 65 74.2656C65 69.3036 60.962 65.2656 56 65.2656H38.714C44.306 58.5486 53 46.3356 53 35.2656C53 20.2356 45.149 11.2656 32 11.2656C18.851 11.2656 11 20.2356 11 35.2656C11 51.2316 29.102 69.6066 29.873 70.3806C30.437 70.9476 31.202 71.2656 32 71.2656ZM92 41.2656C101.675 41.2656 107 47.6586 107 59.2656C107 69.8346 96.587 82.6986 92 87.8526C87.413 82.6956 77 69.8346 77 59.2656C77 47.6586 82.325 41.2656 92 41.2656ZM32 17.2656C41.675 17.2656 47 23.6586 47 35.2656C47 45.8346 36.587 58.6986 32 63.8526C27.413 58.6986 17 45.8346 17 35.2656C17 23.6586 22.325 17.2656 32 17.2656Z" fill="#26FFBE"/>
<path d="M41 32.2656C41 27.3036 36.962 23.2656 32 23.2656C27.038 23.2656 23 27.3036 23 32.2656C23 37.2276 27.038 41.2656 32 41.2656C36.962 41.2656 41 37.2276 41 32.2656ZM29 32.2656C29 30.6096 30.344 29.2656 32 29.2656C33.656 29.2656 35 30.6096 35 32.2656C35 33.9216 33.656 35.2656 32 35.2656C30.344 35.2656 29 33.9216 29 32.2656Z" fill="#26FFBE"/>
<path d="M101 56.2656C101 51.3036 96.962 47.2656 92 47.2656C87.038 47.2656 83 51.3036 83 56.2656C83 61.2276 87.038 65.2656 92 65.2656C96.962 65.2656 101 61.2276 101 56.2656ZM89 56.2656C89 54.6096 90.344 53.2656 92 53.2656C93.656 53.2656 95 54.6096 95 56.2656C95 57.9216 93.656 59.2656 92 59.2656C90.344 59.2656 89 57.9216 89 56.2656Z" fill="#26FFBE"/>
<g filter="url(#filter0_f_416_356)">
<path d="M32 71.2656H56C57.656 71.2656 59 72.6096 59 74.2656C59 75.9216 57.656 77.2656 56 77.2656H47C42.038 77.2656 38 81.3036 38 86.2656C38 91.2276 42.038 95.2656 47 95.2656H92C92.798 95.2656 93.563 94.9476 94.127 94.3806C94.898 93.6066 113 75.2316 113 59.2656C113 44.2356 105.149 35.2656 92 35.2656C78.851 35.2656 71 44.2356 71 59.2656C71 70.3356 79.694 82.5486 85.286 89.2656H47C45.344 89.2656 44 87.9216 44 86.2656C44 84.6096 45.344 83.2656 47 83.2656H56C60.962 83.2656 65 79.2276 65 74.2656C65 69.3036 60.962 65.2656 56 65.2656H38.714C44.306 58.5486 53 46.3356 53 35.2656C53 20.2356 45.149 11.2656 32 11.2656C18.851 11.2656 11 20.2356 11 35.2656C11 51.2316 29.102 69.6066 29.873 70.3806C30.437 70.9476 31.202 71.2656 32 71.2656ZM92 41.2656C101.675 41.2656 107 47.6586 107 59.2656C107 69.8346 96.587 82.6986 92 87.8526C87.413 82.6956 77 69.8346 77 59.2656C77 47.6586 82.325 41.2656 92 41.2656ZM32 17.2656C41.675 17.2656 47 23.6586 47 35.2656C47 45.8346 36.587 58.6986 32 63.8526C27.413 58.6986 17 45.8346 17 35.2656C17 23.6586 22.325 17.2656 32 17.2656Z" fill="#26FFBE"/>
<path d="M32 71.7656H56C57.3799 71.7656 58.5 72.8858 58.5 74.2656C58.5 75.6455 57.3799 76.7656 56 76.7656H47C41.7619 76.7656 37.5 81.0275 37.5 86.2656C37.5 91.5038 41.7619 95.7656 47 95.7656H92C92.9312 95.7656 93.8237 95.3945 94.4815 94.7332C94.879 94.3342 99.6192 89.5238 104.264 82.8044C108.896 76.1036 113.5 67.4102 113.5 59.2656C113.5 51.6682 111.516 45.5379 107.807 41.3001C104.091 37.0536 98.6947 34.7656 92 34.7656C85.3053 34.7656 79.9089 37.0536 76.1928 41.3001C72.4844 45.5379 70.5 51.6682 70.5 59.2656C70.5 64.9215 72.7172 70.829 75.6069 76.1371C78.2733 81.0352 81.5339 85.4618 84.2264 88.7656H47C45.6201 88.7656 44.5 87.6455 44.5 86.2656C44.5 84.8858 45.6201 83.7656 47 83.7656H56C61.2381 83.7656 65.5 79.5038 65.5 74.2656C65.5 69.0275 61.2381 64.7656 56 64.7656H39.7736C42.4661 61.4618 45.7267 57.0352 48.3931 52.1371C51.2828 46.829 53.5 40.9215 53.5 35.2656C53.5 27.6682 51.5155 21.5379 47.8072 17.3001C44.0911 13.0536 38.6947 10.7656 32 10.7656C25.3053 10.7656 19.9089 13.0536 16.1928 17.3001C12.4844 21.5379 10.5 27.6682 10.5 35.2656C10.5 43.4102 15.1041 52.1036 19.7361 58.8044C24.3808 65.5238 29.121 70.3342 29.5185 70.7332C30.1763 71.3945 31.0688 71.7656 32 71.7656ZM92 41.7656C96.7203 41.7656 100.317 43.3199 102.744 46.2331C105.183 49.1607 106.5 53.5299 106.5 59.2656C106.5 64.4073 103.958 70.167 100.794 75.3284C97.8055 80.2028 94.3024 84.4793 92.0001 87.0979C89.6978 84.4779 86.1946 80.2014 83.2061 75.3273C80.0417 70.1662 77.5 64.4073 77.5 59.2656C77.5 53.5299 78.8166 49.1607 81.256 46.2331C83.6833 43.3199 87.2797 41.7656 92 41.7656ZM32 17.7656C36.7203 17.7656 40.3167 19.3199 42.744 22.2331C45.1834 25.1607 46.5 29.5299 46.5 35.2656C46.5 40.4073 43.9583 46.167 40.7939 51.3284C37.8054 56.2029 34.3023 60.4794 32 63.098C29.6977 60.4794 26.1946 56.2029 23.2061 51.3284C20.0417 46.167 17.5 40.4073 17.5 35.2656C17.5 29.5299 18.8166 25.1607 21.256 22.2331C23.6833 19.3199 27.2797 17.7656 32 17.7656Z" stroke="#2DE579"/>
</g>
<g filter="url(#filter1_f_416_356)">
<path d="M41 32.2656C41 27.3036 36.962 23.2656 32 23.2656C27.038 23.2656 23 27.3036 23 32.2656C23 37.2276 27.038 41.2656 32 41.2656C36.962 41.2656 41 37.2276 41 32.2656ZM29 32.2656C29 30.6096 30.344 29.2656 32 29.2656C33.656 29.2656 35 30.6096 35 32.2656C35 33.9216 33.656 35.2656 32 35.2656C30.344 35.2656 29 33.9216 29 32.2656Z" fill="#26FFBE"/>
<path d="M41.5 32.2656C41.5 27.0275 37.2381 22.7656 32 22.7656C26.7619 22.7656 22.5 27.0275 22.5 32.2656C22.5 37.5038 26.7619 41.7656 32 41.7656C37.2381 41.7656 41.5 37.5038 41.5 32.2656ZM29.5 32.2656C29.5 30.8858 30.6201 29.7656 32 29.7656C33.3799 29.7656 34.5 30.8858 34.5 32.2656C34.5 33.6455 33.3799 34.7656 32 34.7656C30.6201 34.7656 29.5 33.6455 29.5 32.2656Z" stroke="#2DE579"/>
</g>
<g filter="url(#filter2_f_416_356)">
<path d="M101 56.2656C101 51.3036 96.962 47.2656 92 47.2656C87.038 47.2656 83 51.3036 83 56.2656C83 61.2276 87.038 65.2656 92 65.2656C96.962 65.2656 101 61.2276 101 56.2656ZM89 56.2656C89 54.6096 90.344 53.2656 92 53.2656C93.656 53.2656 95 54.6096 95 56.2656C95 57.9216 93.656 59.2656 92 59.2656C90.344 59.2656 89 57.9216 89 56.2656Z" fill="#26FFBE"/>
<path d="M101.5 56.2656C101.5 51.0275 97.2381 46.7656 92 46.7656C86.7619 46.7656 82.5 51.0275 82.5 56.2656C82.5 61.5038 86.7619 65.7656 92 65.7656C97.2381 65.7656 101.5 61.5038 101.5 56.2656ZM89.5 56.2656C89.5 54.8858 90.6201 53.7656 92 53.7656C93.3799 53.7656 94.5 54.8858 94.5 56.2656C94.5 57.6455 93.3799 58.7656 92 58.7656C90.6201 58.7656 89.5 57.6455 89.5 56.2656Z" stroke="#2DE579"/>
</g>
<defs>
<filter id="filter0_f_416_356" x="0" y="0.265625" width="124" height="106" filterUnits="userSpaceOnUse" color-interpolation-filters="sRGB">
<feFlood flood-opacity="0" result="BackgroundImageFix"/>
<feBlend mode="normal" in="SourceGraphic" in2="BackgroundImageFix" result="shape"/>
<feGaussianBlur stdDeviation="5" result="effect1_foregroundBlur_416_356"/>
</filter>
<filter id="filter1_f_416_356" x="12" y="12.2656" width="40" height="40" filterUnits="userSpaceOnUse" color-interpolation-filters="sRGB">
<feFlood flood-opacity="0" result="BackgroundImageFix"/>
<feBlend mode="normal" in="SourceGraphic" in2="BackgroundImageFix" result="shape"/>
<feGaussianBlur stdDeviation="5" result="effect1_foregroundBlur_416_356"/>
</filter>
<filter id="filter2_f_416_356" x="72" y="36.2656" width="40" height="40" filterUnits="userSpaceOnUse" color-interpolation-filters="sRGB">
<feFlood flood-opacity="0" result="BackgroundImageFix"/>
<feBlend mode="normal" in="SourceGraphic" in2="BackgroundImageFix" result="shape"/>
<feGaussianBlur stdDeviation="5" result="effect1_foregroundBlur_416_356"/>
</filter>
</defs>
</svg>
