<svg width="191" height="191" viewBox="0 0 191 191" fill="none" xmlns="http://www.w3.org/2000/svg">
<path d="M4.60986 108.724C4.56084 108.386 4.51181 108.048 4.46824 107.71L1.64111 108.086C1.68469 108.435 1.73372 108.778 1.78274 109.127L4.60986 108.724Z" fill="#26FFBE"/>
<path d="M4.1138 104.671C4.08112 104.333 4.04843 103.995 4.0212 103.658L1.17773 103.908C1.20497 104.251 1.23765 104.606 1.27578 104.954L4.1138 104.671Z" fill="#26FFBE"/>
<path d="M4.33717 106.697C4.29904 106.36 4.26091 106.022 4.22278 105.684L1.38477 105.995C1.4229 106.343 1.46103 106.692 1.50461 107.04L4.33717 106.697Z" fill="#26FFBE"/>
<path d="M166.056 154.693L168.235 156.528C168.463 156.261 168.692 155.989 168.91 155.722L166.709 153.908C166.491 154.17 166.274 154.431 166.056 154.693Z" fill="#26FFBE"/>
<path d="M5.2796 112.749C5.21968 112.411 5.15432 112.079 5.0944 111.741L2.28906 112.248C2.35443 112.591 2.4198 112.934 2.47972 113.283L5.2796 112.749Z" fill="#26FFBE"/>
<path d="M4.92007 110.739C4.8656 110.401 4.81113 110.069 4.7621 109.731L1.94043 110.172C1.9949 110.515 2.04937 110.859 2.10929 111.207L4.92007 110.739Z" fill="#26FFBE"/>
<path d="M5.68852 114.748C5.61771 114.416 5.54689 114.078 5.47608 113.746L2.68164 114.312C2.75245 114.655 2.82327 115.004 2.89408 115.342L5.68852 114.748Z" fill="#26FFBE"/>
<path d="M6.13489 116.736C6.05863 116.409 5.97692 116.077 5.9061 115.745L3.12256 116.371C3.19882 116.714 3.27508 117.063 3.35679 117.395L6.13489 116.736Z" fill="#26FFBE"/>
<path d="M164.721 156.24L166.861 158.124C167.09 157.863 167.324 157.596 167.553 157.329L165.391 155.472C165.167 155.728 164.944 155.984 164.721 156.24Z" fill="#26FFBE"/>
<path d="M154.475 166.176L156.299 168.371C156.566 168.148 156.833 167.919 157.106 167.695L155.259 165.522C154.998 165.74 154.736 165.963 154.475 166.176Z" fill="#26FFBE"/>
<path d="M156.027 164.858L157.901 167.009C158.168 166.78 158.435 166.546 158.691 166.317L156.795 164.188C156.539 164.411 156.283 164.634 156.027 164.858Z" fill="#26FFBE"/>
<path d="M157.552 163.501L159.475 165.609C159.731 165.38 159.993 165.14 160.254 164.901L158.309 162.814C158.059 163.043 157.803 163.277 157.552 163.501Z" fill="#26FFBE"/>
<path d="M152.89 167.467L154.665 169.694C154.943 169.477 155.216 169.259 155.488 169.035L153.685 166.824C153.423 167.042 153.157 167.254 152.89 167.467Z" fill="#26FFBE"/>
<path d="M160.516 160.69L162.526 162.717C162.776 162.466 163.027 162.215 163.272 161.97L161.235 159.971C161 160.211 160.755 160.451 160.516 160.69Z" fill="#26FFBE"/>
<path d="M159.05 162.112L161.017 164.182C161.273 163.942 161.523 163.692 161.774 163.452L159.786 161.409C159.546 161.643 159.295 161.878 159.05 162.112Z" fill="#26FFBE"/>
<path d="M161.948 159.241L164.002 161.219C164.247 160.963 164.492 160.712 164.732 160.456L162.656 158.5C162.422 158.746 162.188 158.996 161.948 159.241Z" fill="#26FFBE"/>
<path d="M163.348 157.754L165.45 159.688C165.685 159.427 165.924 159.165 166.158 158.909L164.039 156.997C163.811 157.253 163.582 157.504 163.348 157.754Z" fill="#26FFBE"/>
<path d="M151.283 168.714L153.009 170.986C153.287 170.773 153.565 170.561 153.843 170.343L152.094 168.093C151.822 168.3 151.55 168.507 151.283 168.714Z" fill="#26FFBE"/>
<path d="M178.78 55.9288C178.922 56.2392 179.069 56.5443 179.211 56.8493L181.798 55.6509C181.651 55.335 181.504 55.0136 181.351 54.7031L178.78 55.9288Z" fill="#26FFBE"/>
<path d="M179.63 57.7752C179.772 58.0857 179.908 58.3961 180.044 58.7066L182.659 57.5627C182.517 57.2413 182.375 56.9254 182.234 56.604L179.63 57.7752Z" fill="#26FFBE"/>
<path d="M180.447 59.6381C180.578 59.9486 180.708 60.2645 180.839 60.575L183.475 59.491C183.345 59.1751 183.209 58.8482 183.072 58.5269L180.447 59.6381Z" fill="#26FFBE"/>
<path d="M1.26514 86.0576L4.1086 86.3408C4.14128 85.9977 4.17397 85.6599 4.2121 85.3222L1.37408 85.0117C1.3414 85.3603 1.30327 85.709 1.26514 86.0576Z" fill="#26FFBE"/>
<path d="M177.881 54.1038C178.033 54.4089 178.186 54.7139 178.333 55.019L180.893 53.7607C180.741 53.4447 180.583 53.1288 180.425 52.8237L177.881 54.1038Z" fill="#26FFBE"/>
<path d="M183.29 67.2807C183.399 67.6076 183.502 67.9344 183.601 68.2558L186.324 67.4115C186.221 67.0792 186.117 66.7415 186.008 66.4092L183.29 67.2807Z" fill="#26FFBE"/>
<path d="M181.221 61.523C181.346 61.8389 181.471 62.1603 181.591 62.4763L184.255 61.4522C184.13 61.1254 184.004 60.7931 183.874 60.4717L181.221 61.523Z" fill="#26FFBE"/>
<path d="M181.956 63.424C182.07 63.74 182.19 64.0613 182.305 64.3827L184.985 63.4186C184.87 63.0863 184.745 62.754 184.625 62.4326L181.956 63.424Z" fill="#26FFBE"/>
<path d="M3.84766 71.5733L6.60941 72.2869C6.69657 71.9601 6.78372 71.6332 6.87088 71.301L4.11457 70.5547C4.02742 70.8924 3.93481 71.2356 3.84766 71.5733Z" fill="#26FFBE"/>
<path d="M6.6252 118.719C6.54349 118.387 6.45633 118.06 6.37462 117.728L3.60742 118.419C3.69458 118.768 3.78173 119.106 3.86889 119.438L6.6252 118.719Z" fill="#26FFBE"/>
<path d="M3.34082 73.6159L6.11892 74.2695C6.19518 73.9427 6.27689 73.605 6.3586 73.2782L3.59139 72.5918C3.50424 72.9295 3.42253 73.2727 3.34082 73.6159Z" fill="#26FFBE"/>
<path d="M2.87744 75.6697L5.67188 76.258C5.7427 75.9311 5.81351 75.5934 5.88977 75.2666L3.10623 74.6401C3.02996 74.9833 2.9537 75.3265 2.87744 75.6697Z" fill="#26FFBE"/>
<path d="M7.16441 120.686C7.07181 120.364 6.97921 120.032 6.89205 119.705L4.13574 120.457C4.22835 120.795 4.3264 121.132 4.419 121.47L7.16441 120.686Z" fill="#26FFBE"/>
<path d="M1.77197 81.8793L4.59909 82.2878C4.64267 81.9501 4.69715 81.6124 4.74617 81.2801L1.92994 80.8389C1.87547 81.1875 1.821 81.5361 1.77197 81.8793Z" fill="#26FFBE"/>
<path d="M1.49951 83.9657L4.33208 84.3143C4.37021 83.9766 4.41379 83.6389 4.45737 83.3012L1.63025 82.9253C1.58122 83.2685 1.53764 83.6225 1.49951 83.9657Z" fill="#26FFBE"/>
<path d="M2.09326 79.8041L4.90949 80.2726C4.96396 79.9348 5.02388 79.5971 5.0838 79.2648L2.27302 78.7637C2.2131 79.1068 2.15318 79.4555 2.09326 79.8041Z" fill="#26FFBE"/>
<path d="M2.46387 77.7287L5.2692 78.2626C5.32912 77.9303 5.39449 77.5926 5.4653 77.2603L2.66542 76.6992C2.60005 77.0424 2.52923 77.391 2.46387 77.7287Z" fill="#26FFBE"/>
<path d="M182.648 65.3471C182.757 65.6685 182.866 65.9899 182.975 66.3112L185.682 65.407C185.568 65.0802 185.459 64.7424 185.344 64.4102L182.648 65.3471Z" fill="#26FFBE"/>
<path d="M3.79791 100.602C3.78157 100.264 3.76523 99.9207 3.74889 99.583L0.894531 99.7083C0.910873 100.051 0.927215 100.411 0.949004 100.76L3.79791 100.602Z" fill="#26FFBE"/>
<path d="M27.2376 156.91L25.1187 158.816C25.3529 159.072 25.5926 159.334 25.8268 159.59L27.9294 157.661C27.6952 157.411 27.4664 157.16 27.2376 156.91Z" fill="#26FFBE"/>
<path d="M25.8866 155.379L23.7295 157.237C23.9528 157.493 24.1871 157.765 24.4213 158.027L26.5621 156.147C26.3278 155.891 26.1099 155.63 25.8866 155.379Z" fill="#26FFBE"/>
<path d="M34.4714 164.1L32.5703 166.23C32.8263 166.464 33.0987 166.698 33.3602 166.927L35.234 164.776C34.9834 164.552 34.7274 164.329 34.4714 164.1Z" fill="#26FFBE"/>
<path d="M30.0318 159.878L28 161.878C28.2451 162.128 28.4957 162.379 28.7408 162.624L30.7563 160.603C30.5166 160.363 30.2715 160.124 30.0318 159.878Z" fill="#26FFBE"/>
<path d="M24.5737 153.816L22.373 155.63C22.5909 155.902 22.8197 156.175 23.0431 156.441L25.2274 154.606C25.0095 154.339 24.7916 154.077 24.5737 153.816Z" fill="#26FFBE"/>
<path d="M32.9627 162.728L31.0181 164.814C31.2686 165.048 31.5356 165.288 31.7916 165.527L33.7145 163.419C33.4639 163.191 33.2079 162.956 32.9627 162.728Z" fill="#26FFBE"/>
<path d="M31.4814 161.322L29.4932 163.359C29.7437 163.604 29.9998 163.849 30.2503 164.089L32.2222 162.03C31.9717 161.79 31.7265 161.556 31.4814 161.322Z" fill="#26FFBE"/>
<path d="M15.3736 140.383L12.8896 141.777C13.0585 142.082 13.2328 142.387 13.4071 142.692L15.8802 141.271C15.7113 140.977 15.5425 140.677 15.3736 140.383Z" fill="#26FFBE"/>
<path d="M18.5495 145.607L16.1582 147.159C16.3489 147.454 16.545 147.748 16.7356 148.036L19.1106 146.457C18.92 146.173 18.7293 145.89 18.5495 145.607Z" fill="#26FFBE"/>
<path d="M149.637 169.929L151.31 172.238C151.593 172.032 151.881 171.825 152.159 171.618L150.46 169.324C150.187 169.531 149.915 169.727 149.637 169.929Z" fill="#26FFBE"/>
<path d="M16.3923 142.148L13.9355 143.597C14.1153 143.897 14.2951 144.202 14.4748 144.501L16.9152 143.025C16.7409 142.736 16.5666 142.442 16.3923 142.148Z" fill="#26FFBE"/>
<path d="M4.40332 69.5415L7.14329 70.3205C7.24134 69.9936 7.33394 69.6613 7.43199 69.34L4.69202 68.5283C4.59397 68.8661 4.49592 69.2038 4.40332 69.5415Z" fill="#26FFBE"/>
<path d="M19.6716 147.301L17.3184 148.908C17.5145 149.202 17.716 149.491 17.9176 149.774L20.249 148.14C20.0583 147.862 19.8677 147.584 19.6716 147.301Z" fill="#26FFBE"/>
<path d="M23.294 152.23L21.0552 153.99C21.2731 154.262 21.4855 154.54 21.7088 154.812L23.9313 153.026C23.7189 152.759 23.5064 152.497 23.294 152.23Z" fill="#26FFBE"/>
<path d="M22.0519 150.613L19.7695 152.323C19.982 152.606 20.1944 152.884 20.4069 153.162L22.6675 151.424C22.4605 151.152 22.2589 150.885 22.0519 150.613Z" fill="#26FFBE"/>
<path d="M20.8479 148.968L18.5273 150.629C18.7289 150.912 18.9359 151.196 19.1429 151.479L21.4416 149.796C21.2401 149.523 21.044 149.246 20.8479 148.968Z" fill="#26FFBE"/>
<path d="M17.4494 143.891L15.0254 145.395C15.2106 145.689 15.4013 145.988 15.5865 146.282L17.9941 144.752C17.8089 144.469 17.6292 144.18 17.4494 143.891Z" fill="#26FFBE"/>
<path d="M142.834 174.412L144.299 176.857C144.599 176.678 144.904 176.498 145.198 176.313L143.706 173.883C143.417 174.063 143.128 174.237 142.834 174.412Z" fill="#26FFBE"/>
<path d="M141.074 175.441L142.485 177.914C142.79 177.745 143.09 177.571 143.395 177.391L141.957 174.929C141.668 175.104 141.368 175.272 141.074 175.441Z" fill="#26FFBE"/>
<path d="M139.293 176.422L140.649 178.928C140.954 178.764 141.265 178.595 141.57 178.426L140.186 175.932C139.887 176.101 139.593 176.264 139.293 176.422Z" fill="#26FFBE"/>
<path d="M36.0132 165.446L34.1611 167.614C34.428 167.837 34.7004 168.066 34.9673 168.289L36.7922 166.105C36.5307 165.882 36.2747 165.664 36.0132 165.446Z" fill="#26FFBE"/>
<path d="M147.976 171.105L149.599 173.453C149.888 173.252 150.177 173.05 150.465 172.848L148.81 170.522C148.537 170.719 148.254 170.915 147.976 171.105Z" fill="#26FFBE"/>
<path d="M55.6616 178.258C55.3565 178.111 55.046 177.958 54.741 177.806L53.4663 180.36C53.7822 180.518 54.1036 180.671 54.4196 180.823L55.6616 178.258Z" fill="#26FFBE"/>
<path d="M144.571 173.349L146.091 175.763C146.385 175.577 146.685 175.387 146.979 175.201L145.432 172.805C145.149 172.984 144.86 173.17 144.571 173.349Z" fill="#26FFBE"/>
<path d="M146.287 172.249L147.856 174.624C148.15 174.433 148.444 174.237 148.733 174.041L147.137 171.683C146.854 171.873 146.57 172.058 146.287 172.249Z" fill="#26FFBE"/>
<path d="M137.49 177.37L138.787 179.908C139.097 179.75 139.413 179.587 139.718 179.423L138.394 176.901C138.095 177.059 137.795 177.217 137.49 177.37Z" fill="#26FFBE"/>
<path d="M0.82959 97.6112C0.835037 97.9598 0.845931 98.3139 0.856826 98.6625L3.71118 98.5645C3.70029 98.2267 3.6894 97.889 3.68395 97.5513L0.82959 97.6112Z" fill="#26FFBE"/>
<path d="M39.1837 168.022L37.4297 170.272C37.702 170.484 37.9853 170.702 38.2631 170.914L39.9899 168.643C39.723 168.441 39.4506 168.234 39.1837 168.022Z" fill="#26FFBE"/>
<path d="M3.93437 102.639C3.90714 102.296 3.8799 101.958 3.85811 101.62L1.01465 101.805C1.03644 102.154 1.06367 102.508 1.09091 102.857L3.93437 102.639Z" fill="#26FFBE"/>
<path d="M37.5823 166.753L35.7793 168.959C36.0517 169.182 36.324 169.406 36.6018 169.624L38.3776 167.39C38.1107 167.183 37.8438 166.965 37.5823 166.753Z" fill="#26FFBE"/>
<path d="M40.8066 169.259L39.1016 171.547C39.3848 171.759 39.6735 171.966 39.9568 172.173L41.6291 169.869C41.3567 169.667 41.0789 169.466 40.8066 169.259Z" fill="#26FFBE"/>
<path d="M51.1185 175.904L49.7349 178.399C50.0399 178.568 50.3504 178.737 50.6609 178.906L52.0118 176.4C51.7122 176.237 51.4126 176.068 51.1185 175.904Z" fill="#26FFBE"/>
<path d="M43.3019 171.051C43.0186 170.855 42.7408 170.659 42.463 170.462L40.8125 172.788C41.0958 172.99 41.3845 173.191 41.6732 173.393L43.3019 171.051Z" fill="#26FFBE"/>
<path d="M52.916 176.874L51.5869 179.402C51.9029 179.565 52.2133 179.728 52.5238 179.886L53.8257 177.348C53.5261 177.195 53.2211 177.037 52.916 176.874Z" fill="#26FFBE"/>
<path d="M28.6209 158.408L26.54 160.363C26.7797 160.614 27.0194 160.87 27.2645 161.126L29.3236 159.149C29.0839 158.903 28.8497 158.653 28.6209 158.408Z" fill="#26FFBE"/>
<path d="M14.8833 139.495C14.7199 139.195 14.5564 138.901 14.3985 138.602L11.8818 139.936C12.0453 140.247 12.2141 140.557 12.3775 140.862L14.8833 139.495Z" fill="#26FFBE"/>
<path d="M90.9649 190.116L91.1065 187.267C90.7633 187.251 90.4256 187.235 90.0824 187.213L89.9136 190.056C90.2622 190.084 90.6163 190.1 90.9649 190.116Z" fill="#26FFBE"/>
<path d="M93.0679 190.198L93.1496 187.349C92.8065 187.338 92.4633 187.327 92.1255 187.316L92.0166 190.165C92.3652 190.176 92.7193 190.187 93.0679 190.198Z" fill="#26FFBE"/>
<path d="M13.9244 137.703C13.7665 137.403 13.6139 137.098 13.4614 136.799L10.9121 138.079C11.0701 138.389 11.2281 138.705 11.3915 139.016L13.9244 137.703Z" fill="#26FFBE"/>
<path d="M95.1917 187.381C94.8485 187.381 94.5108 187.376 94.1676 187.371L94.124 190.22C94.4726 190.225 94.8213 190.23 95.1753 190.23L95.1917 187.381Z" fill="#26FFBE"/>
<path d="M96.2273 190.23C96.5814 190.23 96.93 190.225 97.2786 190.22L97.235 187.371C96.8918 187.376 96.5541 187.376 96.2109 187.381L96.2273 190.23Z" fill="#26FFBE"/>
<path d="M59.3872 179.957C59.0767 179.827 58.7608 179.685 58.4503 179.549L57.29 182.158C57.6114 182.3 57.9383 182.441 58.2596 182.577L59.3872 179.957Z" fill="#26FFBE"/>
<path d="M98.3297 190.198C98.6783 190.187 99.0324 190.176 99.381 190.16L99.2721 187.311C98.9343 187.322 98.5911 187.338 98.2534 187.344L98.3297 190.198Z" fill="#26FFBE"/>
<path d="M12.1326 134.048C11.991 133.743 11.8493 133.432 11.7132 133.122L9.10938 134.293C9.251 134.609 9.39808 134.93 9.53971 135.241L12.1326 134.048Z" fill="#26FFBE"/>
<path d="M11.2992 132.196C11.163 131.885 11.0268 131.575 10.8961 131.259L8.27051 132.37C8.40669 132.691 8.54287 133.013 8.6845 133.334L11.2992 132.196Z" fill="#26FFBE"/>
<path d="M82.582 189.337L82.9688 186.516C82.631 186.467 82.2987 186.418 81.961 186.369L81.5361 189.185C81.8848 189.239 82.2334 189.288 82.582 189.337Z" fill="#26FFBE"/>
<path d="M77.3853 188.471C77.7339 188.537 78.0771 188.607 78.4257 188.667L78.9432 185.867C78.6054 185.802 78.2732 185.742 77.9409 185.677L77.3853 188.471Z" fill="#26FFBE"/>
<path d="M10.5038 130.322C10.3786 130.006 10.2478 129.69 10.1225 129.374L7.46973 130.425C7.60046 130.747 7.73119 131.079 7.86738 131.4L10.5038 130.322Z" fill="#26FFBE"/>
<path d="M87.8115 189.915C88.1601 189.942 88.5088 189.969 88.8628 189.991L89.0644 187.148C88.7212 187.126 88.3835 187.099 88.0458 187.071L87.8115 189.915Z" fill="#26FFBE"/>
<path d="M100.438 190.116C100.781 190.1 101.135 190.078 101.489 190.056L101.315 187.213C100.971 187.235 100.634 187.251 100.296 187.267L100.438 190.116Z" fill="#26FFBE"/>
<path d="M13.0096 135.883C12.8625 135.584 12.71 135.273 12.5683 134.968L9.98633 136.194C10.1389 136.51 10.2914 136.826 10.4439 137.136L13.0096 135.883Z" fill="#26FFBE"/>
<path d="M85.7139 189.718C86.0625 189.751 86.4166 189.789 86.7652 189.822L87.0267 186.984C86.6889 186.951 86.3457 186.919 86.0135 186.88L85.7139 189.718Z" fill="#26FFBE"/>
<path d="M61.2777 180.747C60.9617 180.616 60.6458 180.486 60.3298 180.355L59.2295 182.986C59.5563 183.122 59.8832 183.258 60.21 183.389L61.2777 180.747Z" fill="#26FFBE"/>
<path d="M117.101 187.807C117.444 187.731 117.787 187.649 118.125 187.567L117.455 184.794C117.123 184.876 116.79 184.952 116.458 185.029L117.101 187.807Z" fill="#26FFBE"/>
<path d="M70.9736 184.032C70.6522 183.945 70.3199 183.847 69.9931 183.754L69.1978 186.494C69.5355 186.592 69.8787 186.685 70.2109 186.777L70.9736 184.032Z" fill="#26FFBE"/>
<path d="M119.149 187.311C119.487 187.224 119.83 187.136 120.168 187.044L119.432 184.293C119.105 184.375 118.773 184.462 118.446 184.549L119.149 187.311Z" fill="#26FFBE"/>
<path d="M105.683 189.713L105.384 186.88C105.046 186.913 104.703 186.946 104.365 186.978L104.632 189.816C104.981 189.784 105.335 189.751 105.683 189.713Z" fill="#26FFBE"/>
<path d="M112.972 188.661C113.321 188.596 113.664 188.531 114.012 188.465L113.462 185.671C113.13 185.731 112.792 185.796 112.46 185.856L112.972 188.661Z" fill="#26FFBE"/>
<path d="M65.1126 182.19C64.7966 182.081 64.4698 181.962 64.1484 181.847L63.1733 184.522C63.5056 184.642 63.8379 184.767 64.1647 184.881L65.1126 182.19Z" fill="#26FFBE"/>
<path d="M122.379 183.454L123.207 186.183C123.539 186.079 123.882 185.976 124.215 185.872L123.354 183.154C123.033 183.252 122.706 183.356 122.379 183.454Z" fill="#26FFBE"/>
<path d="M125.217 185.552C125.549 185.443 125.887 185.334 126.214 185.219L125.299 182.523C124.977 182.632 124.65 182.741 124.329 182.844L125.217 185.552Z" fill="#26FFBE"/>
<path d="M74.2965 187.818L74.9339 185.039C74.6016 184.963 74.2693 184.881 73.9425 184.805L73.2725 187.572C73.6102 187.654 73.9534 187.736 74.2965 187.818Z" fill="#26FFBE"/>
<path d="M80.9476 186.21C80.6153 186.156 80.2776 186.101 79.9399 186.042L79.4551 188.852C79.8037 188.912 80.1469 188.972 80.4955 189.027L80.9476 186.21Z" fill="#26FFBE"/>
<path d="M116.077 188.035L115.462 185.252C115.135 185.328 114.797 185.399 114.465 185.464L115.042 188.259C115.385 188.188 115.734 188.112 116.077 188.035Z" fill="#26FFBE"/>
<path d="M84.9948 186.772C84.6625 186.734 84.3193 186.69 83.9816 186.646L83.6221 189.474C83.9707 189.517 84.3248 189.561 84.6679 189.599L84.9948 186.772Z" fill="#26FFBE"/>
<path d="M76.9327 185.475C76.6004 185.404 76.2627 185.334 75.9304 185.263L75.3203 188.046C75.6689 188.123 76.0121 188.193 76.3553 188.264L76.9327 185.475Z" fill="#26FFBE"/>
<path d="M102.535 189.991C102.878 189.964 103.232 189.937 103.586 189.909L103.352 187.066C103.009 187.093 102.666 187.12 102.333 187.148L102.535 189.991Z" fill="#26FFBE"/>
<path d="M108.821 189.332C109.17 189.283 109.519 189.234 109.862 189.18L109.437 186.363C109.105 186.412 108.767 186.461 108.424 186.51L108.821 189.332Z" fill="#26FFBE"/>
<path d="M106.729 189.599C107.072 189.555 107.426 189.512 107.775 189.468L107.416 186.641C107.078 186.685 106.735 186.728 106.402 186.766L106.729 189.599Z" fill="#26FFBE"/>
<path d="M111.942 188.847L111.452 186.036C111.12 186.096 110.782 186.151 110.444 186.205L110.902 189.021C111.245 188.961 111.594 188.907 111.942 188.847Z" fill="#26FFBE"/>
<path d="M185.872 77.1456C185.937 77.4779 186.003 77.8156 186.068 78.1479L188.874 77.6141C188.808 77.2709 188.737 76.9223 188.667 76.5791L185.872 77.1456Z" fill="#26FFBE"/>
<path d="M187.61 91.3143C187.621 91.652 187.638 91.9897 187.648 92.3274L190.503 92.2348C190.486 91.8862 190.476 91.5376 190.459 91.189L187.61 91.3143Z" fill="#26FFBE"/>
<path d="M187.338 87.2393C187.371 87.5771 187.398 87.9202 187.425 88.258L190.269 88.0346C190.241 87.6915 190.214 87.3374 190.181 86.9888L187.338 87.2393Z" fill="#26FFBE"/>
<path d="M190.546 94.3321C190.541 93.9835 190.536 93.6348 190.53 93.2808L187.676 93.3461C187.681 93.6839 187.687 94.027 187.692 94.3648L190.546 94.3321Z" fill="#26FFBE"/>
<path d="M187.496 89.2766C187.517 89.6143 187.539 89.952 187.556 90.2952L190.404 90.1373C190.388 89.7886 190.366 89.4346 190.339 89.0859L187.496 89.2766Z" fill="#26FFBE"/>
<path d="M1.08008 88.1548L3.92354 88.3726C3.95078 88.0349 3.97802 87.6917 4.0107 87.354L1.16723 87.1089C1.14 87.4521 1.11276 87.8061 1.08008 88.1548Z" fill="#26FFBE"/>
<path d="M0.949219 90.2519L3.79813 90.4099C3.81447 90.0667 3.83626 89.729 3.85805 89.3913L1.00914 89.2061C0.987351 89.5492 0.965559 89.9033 0.949219 90.2519Z" fill="#26FFBE"/>
<path d="M99.1904 3.61893C99.5336 3.62983 99.8713 3.64617 100.215 3.66251L100.351 0.813598C100.008 0.797255 99.648 0.780913 99.2994 0.77002L99.1904 3.61893Z" fill="#26FFBE"/>
<path d="M97.1965 0.720703L97.1475 3.56961C97.4961 3.57506 97.8284 3.58051 98.1715 3.5914L98.2478 0.742492C97.8992 0.726151 97.5451 0.720703 97.1965 0.720703Z" fill="#26FFBE"/>
<path d="M184.974 73.1693C185.055 73.4962 185.137 73.8285 185.213 74.1607L187.991 73.5016C187.91 73.1584 187.828 72.8153 187.741 72.4775L184.974 73.1693Z" fill="#26FFBE"/>
<path d="M96.1402 0.70459C95.797 0.70459 95.4375 0.70459 95.0889 0.70459L95.1052 3.5535C95.4484 3.5535 95.7861 3.5535 96.1293 3.5535L96.1402 0.70459Z" fill="#26FFBE"/>
<path d="M185.447 75.1518C185.518 75.4841 185.594 75.8164 185.665 76.1487L188.454 75.5495C188.383 75.2063 188.307 74.8631 188.231 74.5254L185.447 75.1518Z" fill="#26FFBE"/>
<path d="M183.895 69.231C183.993 69.5578 184.091 69.8847 184.184 70.2115L186.929 69.4325C186.831 69.0948 186.733 68.7571 186.63 68.4248L183.895 69.231Z" fill="#26FFBE"/>
<path d="M71.2295 187.055C71.5672 187.142 71.9104 187.234 72.2481 187.322L72.9508 184.554C72.624 184.467 72.2863 184.385 71.9594 184.298L71.2295 187.055Z" fill="#26FFBE"/>
<path d="M186.254 79.1501C186.314 79.4878 186.374 79.8255 186.428 80.1578L189.239 79.6839C189.185 79.3407 189.125 78.9921 189.059 78.6489L186.254 79.1501Z" fill="#26FFBE"/>
<path d="M187.131 85.208C187.169 85.5457 187.207 85.8889 187.24 86.2266L190.078 85.9433C190.045 85.5947 190.007 85.2461 189.969 84.8975L187.131 85.208Z" fill="#26FFBE"/>
<path d="M186.886 83.187C186.929 83.5193 186.973 83.857 187.016 84.1947L189.849 83.8515C189.805 83.5029 189.762 83.1543 189.713 82.8057L186.886 83.187Z" fill="#26FFBE"/>
<path d="M186.591 81.1658C186.646 81.498 186.695 81.8358 186.744 82.1735L189.566 81.765C189.516 81.4218 189.467 81.0677 189.413 80.73L186.591 81.1658Z" fill="#26FFBE"/>
<path d="M184.456 71.197C184.543 71.5239 184.636 71.8561 184.723 72.183L187.479 71.4639C187.398 71.1262 187.3 70.783 187.207 70.4453L184.456 71.197Z" fill="#26FFBE"/>
<path d="M9.03851 126.514C8.92412 126.193 8.80973 125.871 8.70078 125.55L6.00439 126.481C6.11879 126.814 6.23862 127.146 6.34757 127.478L9.03851 126.514Z" fill="#26FFBE"/>
<path d="M0.856445 92.3599L3.7108 92.4525C3.7217 92.1093 3.73259 91.7716 3.74893 91.4284L0.894576 91.3086C0.878234 91.6518 0.867339 92.0058 0.856445 92.3599Z" fill="#26FFBE"/>
<path d="M8.37355 124.586C8.26461 124.264 8.15566 123.938 8.05216 123.616L5.33398 124.488C5.44293 124.82 5.55187 125.158 5.66627 125.49L8.37355 124.586Z" fill="#26FFBE"/>
<path d="M69.1216 4.46826C68.7839 4.56087 68.4461 4.66436 68.1084 4.76786L68.9418 7.49148C69.2632 7.39344 69.5901 7.29538 69.9169 7.20278L69.1216 4.46826Z" fill="#26FFBE"/>
<path d="M66.0219 8.42881L65.1013 5.73242C64.7745 5.84137 64.4368 5.96121 64.1045 6.0756L65.0578 8.76654C65.3791 8.65215 65.7005 8.53776 66.0219 8.42881Z" fill="#26FFBE"/>
<path d="M66.1693 185.557L67.0572 182.85C66.7358 182.746 66.409 182.637 66.0876 182.528L65.167 185.225C65.4993 185.339 65.837 185.448 66.1693 185.557Z" fill="#26FFBE"/>
<path d="M9.75246 128.426C9.63262 128.11 9.50733 127.789 9.39294 127.478L6.71289 128.464C6.83818 128.791 6.96346 129.118 7.08875 129.444L9.75246 128.426Z" fill="#26FFBE"/>
<path d="M68.1899 186.194L69.0125 183.465C68.6856 183.367 68.3588 183.264 68.032 183.166L67.1768 185.884C67.509 185.987 67.8522 186.091 68.1899 186.194Z" fill="#26FFBE"/>
<path d="M71.148 3.90186C70.8102 3.98901 70.4725 4.08162 70.1348 4.17967L70.9028 6.92508C71.2242 6.83792 71.5565 6.73987 71.8888 6.65272L71.148 3.90186Z" fill="#26FFBE"/>
<path d="M81.8788 4.57746L81.4539 1.76123C81.1107 1.81026 80.7621 1.86473 80.4189 1.92465L80.8765 4.73543C81.2088 4.68096 81.5465 4.63193 81.8788 4.57746Z" fill="#26FFBE"/>
<path d="M0.812988 94.4571L3.6619 94.4898C3.66735 94.1466 3.67279 93.8089 3.67824 93.4657L0.823883 93.4058C0.818436 93.7544 0.812988 94.1085 0.812988 94.4571Z" fill="#26FFBE"/>
<path d="M94.0376 0.720703C93.6836 0.726151 93.335 0.731598 92.9863 0.742492L93.068 3.5914C93.4058 3.58051 93.7435 3.57506 94.0867 3.56961L94.0376 0.720703Z" fill="#26FFBE"/>
<path d="M75.2444 2.90527C74.8957 2.98153 74.5526 3.0578 74.2148 3.13951L74.8576 5.9176C75.1899 5.83589 75.5222 5.76508 75.8545 5.68882L75.2444 2.90527Z" fill="#26FFBE"/>
<path d="M7.45335 121.666L4.71338 122.478C4.81143 122.81 4.91493 123.148 5.01842 123.485L7.74205 122.641C7.644 122.32 7.54595 121.987 7.45335 121.666Z" fill="#26FFBE"/>
<path d="M79.3783 2.09912C79.0297 2.15904 78.6865 2.22441 78.3379 2.28433L78.8608 5.08966C79.1931 5.02974 79.5308 4.96982 79.8631 4.9099L79.3783 2.09912Z" fill="#26FFBE"/>
<path d="M0.813064 96.5596L3.66742 96.5269C3.66198 96.1892 3.65653 95.846 3.65653 95.5083H0.807617C0.807617 95.8624 0.807616 96.211 0.813064 96.5596Z" fill="#26FFBE"/>
<path d="M43.4648 16.3327L45.0391 18.7132C45.3224 18.5225 45.6056 18.3373 45.8943 18.1521L44.3473 15.7607C44.0586 15.9459 43.7535 16.142 43.4648 16.3327Z" fill="#26FFBE"/>
<path d="M187.229 120.419L184.478 119.672C184.391 119.999 184.293 120.326 184.2 120.653L186.946 121.432C187.044 121.094 187.136 120.756 187.229 120.419Z" fill="#26FFBE"/>
<path d="M187.762 118.382L184.995 117.695C184.914 118.022 184.826 118.354 184.739 118.681L187.501 119.4C187.588 119.068 187.675 118.725 187.762 118.382Z" fill="#26FFBE"/>
<path d="M186.652 122.445L183.917 121.633C183.819 121.96 183.721 122.287 183.623 122.608L186.347 123.453C186.45 123.115 186.554 122.777 186.652 122.445Z" fill="#26FFBE"/>
<path d="M188.247 116.333L185.458 115.712C185.387 116.039 185.311 116.376 185.229 116.703L188.008 117.362C188.089 117.019 188.166 116.676 188.247 116.333Z" fill="#26FFBE"/>
<path d="M188.683 114.279L185.889 113.713C185.818 114.045 185.747 114.383 185.682 114.715L188.471 115.309C188.541 114.966 188.618 114.623 188.683 114.279Z" fill="#26FFBE"/>
<path d="M189.424 110.134L186.602 109.698C186.553 110.036 186.499 110.368 186.439 110.706L189.255 111.174C189.315 110.831 189.37 110.477 189.424 110.134Z" fill="#26FFBE"/>
<path d="M189.724 108.054L186.897 107.678C186.853 108.015 186.804 108.353 186.755 108.691L189.582 109.094C189.631 108.751 189.68 108.397 189.724 108.054Z" fill="#26FFBE"/>
<path d="M186.03 124.46L183.312 123.589C183.209 123.91 183.105 124.237 182.996 124.564L185.703 125.463C185.812 125.13 185.921 124.793 186.03 124.46Z" fill="#26FFBE"/>
<path d="M189.076 112.21L186.27 111.708C186.21 112.046 186.15 112.379 186.085 112.716L188.885 113.245C188.95 112.907 189.016 112.558 189.076 112.21Z" fill="#26FFBE"/>
<path d="M127.157 6.04296C126.824 5.92857 126.487 5.80873 126.154 5.69434L125.239 8.39617C125.561 8.50512 125.887 8.61951 126.209 8.72845L127.157 6.04296Z" fill="#26FFBE"/>
<path d="M182.244 134.309L179.641 133.144C179.505 133.449 179.363 133.765 179.216 134.075L181.803 135.273C181.95 134.952 182.097 134.631 182.244 134.309Z" fill="#26FFBE"/>
<path d="M181.356 136.227L178.78 134.996C178.633 135.306 178.48 135.617 178.333 135.922L180.893 137.175C181.046 136.864 181.204 136.543 181.356 136.227Z" fill="#26FFBE"/>
<path d="M185.36 126.465L182.669 125.534C182.555 125.855 182.441 126.176 182.326 126.498L185.012 127.462C185.132 127.13 185.246 126.792 185.36 126.465Z" fill="#26FFBE"/>
<path d="M38.3228 19.9766L40.0495 22.2481C40.3219 22.0411 40.5943 21.8396 40.8666 21.638L39.1616 19.3447C38.8838 19.5517 38.6006 19.7642 38.3228 19.9766Z" fill="#26FFBE"/>
<path d="M180.42 138.117L177.876 136.836C177.718 137.136 177.565 137.441 177.407 137.746L179.94 139.059C180.104 138.748 180.267 138.432 180.42 138.117Z" fill="#26FFBE"/>
<path d="M183.089 132.375L180.458 131.264C180.327 131.58 180.191 131.896 180.055 132.207L182.669 133.345C182.811 133.024 182.953 132.697 183.089 132.375Z" fill="#26FFBE"/>
<path d="M184.647 128.453L181.978 127.462C181.858 127.778 181.738 128.099 181.613 128.421L184.276 129.439C184.396 129.112 184.527 128.78 184.647 128.453Z" fill="#26FFBE"/>
<path d="M179.45 139.99L176.934 138.656C176.776 138.955 176.607 139.26 176.449 139.555L178.949 140.922C179.118 140.611 179.287 140.301 179.45 139.99Z" fill="#26FFBE"/>
<path d="M183.89 130.425L181.237 129.374C181.111 129.69 180.981 130.006 180.855 130.322L183.492 131.406C183.628 131.079 183.759 130.752 183.89 130.425Z" fill="#26FFBE"/>
<path d="M133.813 11.7898L134.995 9.19693C134.679 9.05531 134.358 8.90823 134.031 8.7666L132.876 11.3758C133.186 11.5066 133.502 11.6482 133.813 11.7898Z" fill="#26FFBE"/>
<path d="M131.934 10.9618L133.061 8.34165C132.734 8.20547 132.407 8.06384 132.086 7.93311L130.991 10.5641C131.307 10.6949 131.618 10.8256 131.934 10.9618Z" fill="#26FFBE"/>
<path d="M135.665 12.6609L136.902 10.0953C136.591 9.94274 136.27 9.79022 135.954 9.6377L134.745 12.2197C135.05 12.3613 135.36 12.5138 135.665 12.6609Z" fill="#26FFBE"/>
<path d="M137.495 13.5709L138.792 11.0325C138.481 10.8745 138.165 10.7111 137.849 10.5586L136.58 13.1079C136.885 13.2604 137.196 13.413 137.495 13.5709Z" fill="#26FFBE"/>
<path d="M190.187 103.87L187.343 103.619C187.31 103.962 187.283 104.3 187.245 104.638L190.089 104.916C190.121 104.572 190.154 104.218 190.187 103.87Z" fill="#26FFBE"/>
<path d="M36.6616 21.2679L38.4374 23.4958C38.6989 23.2833 38.9713 23.0763 39.2382 22.8639L37.4842 20.6196C37.2118 20.8321 36.934 21.05 36.6616 21.2679Z" fill="#26FFBE"/>
<path d="M139.31 14.5185L140.666 12.0182C140.355 11.8494 140.045 11.6805 139.734 11.5171L138.405 14.0446C138.705 14.1971 139.01 14.3606 139.31 14.5185Z" fill="#26FFBE"/>
<path d="M130.044 10.1772L131.111 7.52982C130.784 7.39909 130.452 7.2738 130.125 7.14307L129.09 9.79588C129.401 9.92116 129.728 10.0465 130.044 10.1772Z" fill="#26FFBE"/>
<path d="M129.145 6.76194C128.818 6.6421 128.486 6.51681 128.153 6.39697L127.173 9.07702C127.5 9.19141 127.821 9.31125 128.137 9.43109L129.145 6.76194Z" fill="#26FFBE"/>
<path d="M141.101 15.5101L142.512 13.0316C142.207 12.8628 141.897 12.6885 141.592 12.5142L140.208 15.009C140.502 15.1724 140.802 15.3413 141.101 15.5101Z" fill="#26FFBE"/>
<path d="M190.552 95.47V95.3828H187.698V95.4591C187.698 95.8023 187.698 96.14 187.692 96.4832L190.547 96.5158C190.552 96.1672 190.552 95.8186 190.552 95.47Z" fill="#26FFBE"/>
<path d="M190.53 97.5727L187.676 97.5073C187.67 97.8505 187.659 98.1882 187.648 98.526L190.503 98.624C190.514 98.2699 190.525 97.9213 190.53 97.5727Z" fill="#26FFBE"/>
<path d="M190.345 101.773L187.501 101.587C187.474 101.925 187.452 102.263 187.425 102.606L190.274 102.824C190.301 102.475 190.323 102.127 190.345 101.773Z" fill="#26FFBE"/>
<path d="M190.459 99.6756L187.61 99.5503C187.594 99.888 187.577 100.231 187.556 100.569L190.405 100.721C190.426 100.378 190.448 100.024 190.459 99.6756Z" fill="#26FFBE"/>
<path d="M142.866 16.5397L144.337 14.0939C144.037 13.9196 143.732 13.7344 143.427 13.5601L141.989 16.0222C142.283 16.1911 142.578 16.3654 142.866 16.5397Z" fill="#26FFBE"/>
<path d="M144.609 17.6128L146.129 15.1997C145.835 15.009 145.53 14.8238 145.236 14.644L143.743 17.0735C144.032 17.2478 144.321 17.4276 144.609 17.6128Z" fill="#26FFBE"/>
<path d="M146.331 18.7185L147.905 16.3381C147.616 16.1474 147.317 15.9568 147.023 15.7661L145.476 18.1629C145.759 18.3427 146.048 18.5333 146.331 18.7185Z" fill="#26FFBE"/>
<path d="M189.979 105.967L187.141 105.651C187.103 105.989 187.065 106.332 187.021 106.665L189.854 107.013C189.898 106.665 189.941 106.316 189.979 105.967Z" fill="#26FFBE"/>
<path d="M62.127 6.8001L63.1401 9.46381C63.4561 9.34397 63.7775 9.22413 64.0934 9.10973L63.1184 6.42969C62.7861 6.54953 62.4538 6.68026 62.127 6.8001Z" fill="#26FFBE"/>
<path d="M66.1035 5.4L66.9969 8.10728C67.3183 8.00379 67.6451 7.89484 67.9665 7.79679L67.1113 5.07861C66.7735 5.18211 66.4358 5.29106 66.1035 5.4Z" fill="#26FFBE"/>
<path d="M72.1665 3.63534L72.8746 6.39709C73.2015 6.31539 73.5338 6.23368 73.866 6.15197L73.1906 3.38477C72.8529 3.46647 72.5042 3.54818 72.1665 3.63534Z" fill="#26FFBE"/>
<path d="M77.3084 2.47998C76.9598 2.54535 76.6166 2.61616 76.2734 2.68698L76.8563 5.47597C77.1886 5.4106 77.5209 5.33979 77.8531 5.27442L77.3084 2.47998Z" fill="#26FFBE"/>
<path d="M60.166 7.56254L61.2337 10.2099C61.5496 10.0792 61.871 9.95388 62.1869 9.83404L61.1465 7.17578C60.8197 7.30107 60.4928 7.4318 60.166 7.56254Z" fill="#26FFBE"/>
<path d="M137.849 180.382L136.58 177.827C136.275 177.98 135.97 178.127 135.665 178.274L136.907 180.839C137.223 180.692 137.539 180.534 137.849 180.382Z" fill="#26FFBE"/>
<path d="M134.053 182.163L132.898 179.554C132.587 179.69 132.271 179.832 131.961 179.963L133.089 182.583C133.41 182.441 133.731 182.305 134.053 182.163Z" fill="#26FFBE"/>
<path d="M135.959 181.291L134.75 178.709C134.445 178.857 134.134 178.998 133.829 179.14L135.011 181.733C135.322 181.586 135.643 181.439 135.959 181.291Z" fill="#26FFBE"/>
<path d="M43.4214 174.575L44.9902 172.195C44.707 172.004 44.4237 171.819 44.1405 171.628L42.5444 173.987C42.8331 174.183 43.1273 174.379 43.4214 174.575Z" fill="#26FFBE"/>
<path d="M63.1895 181.493C62.8736 181.373 62.5467 181.253 62.2308 181.128L61.1958 183.781C61.5226 183.911 61.8549 184.042 62.1818 184.162L63.1895 181.493Z" fill="#26FFBE"/>
<path d="M50.2254 175.403C49.9312 175.234 49.6316 175.065 49.3375 174.891L47.8994 177.353C48.199 177.528 48.5095 177.707 48.8091 177.882L50.2254 175.403Z" fill="#26FFBE"/>
<path d="M178.437 141.843L175.948 140.443C175.784 140.742 175.615 141.037 175.441 141.331L177.914 142.758C178.088 142.453 178.263 142.148 178.437 141.843Z" fill="#26FFBE"/>
<path d="M122.199 186.483L121.404 183.743C121.077 183.835 120.745 183.933 120.418 184.02L121.186 186.771C121.524 186.673 121.861 186.581 122.199 186.483Z" fill="#26FFBE"/>
<path d="M132.125 182.991L131.03 180.36C130.714 180.486 130.398 180.616 130.087 180.742L131.155 183.384C131.476 183.258 131.803 183.122 132.125 182.991Z" fill="#26FFBE"/>
<path d="M128.203 184.516L127.228 181.836C126.906 181.956 126.585 182.071 126.264 182.185L127.217 184.871C127.538 184.756 127.876 184.636 128.203 184.516Z" fill="#26FFBE"/>
<path d="M58.2324 8.36899L59.3546 10.9891C59.665 10.8584 59.9755 10.7222 60.2915 10.5915L59.1911 7.96045C58.8752 8.09663 58.5538 8.23281 58.2324 8.36899Z" fill="#26FFBE"/>
<path d="M130.174 183.776L129.134 181.118C128.818 181.243 128.502 181.363 128.186 181.483L129.194 184.152C129.521 184.027 129.847 183.901 130.174 183.776Z" fill="#26FFBE"/>
<path d="M46.7115 173.301C46.4228 173.121 46.1341 172.941 45.8454 172.756L44.2983 175.147C44.5925 175.338 44.8921 175.529 45.1917 175.714L46.7115 173.301Z" fill="#26FFBE"/>
<path d="M41.7217 17.5093L43.345 19.8516C43.6228 19.6609 43.906 19.4648 44.1893 19.2796L42.5878 16.9155C42.2991 17.1116 42.0104 17.3077 41.7217 17.5093Z" fill="#26FFBE"/>
<path d="M175.153 147.246L172.767 145.683C172.576 145.972 172.391 146.255 172.2 146.538L174.57 148.123C174.766 147.829 174.962 147.535 175.153 147.246Z" fill="#26FFBE"/>
<path d="M171.519 152.416L169.242 150.7C169.035 150.972 168.828 151.244 168.621 151.511L170.882 153.254C171.094 152.977 171.307 152.693 171.519 152.416Z" fill="#26FFBE"/>
<path d="M172.767 150.716L170.452 149.055C170.256 149.332 170.054 149.605 169.853 149.883L172.151 151.571C172.358 151.288 172.565 151.005 172.767 150.716Z" fill="#26FFBE"/>
<path d="M173.981 148.995L171.628 147.382C171.432 147.666 171.236 147.949 171.045 148.221L173.376 149.861C173.578 149.578 173.779 149.283 173.981 148.995Z" fill="#26FFBE"/>
<path d="M40.0117 18.7239L41.684 21.0281C41.9618 20.832 42.2396 20.6305 42.512 20.4344L40.8615 18.1084C40.5782 18.3099 40.295 18.5169 40.0117 18.7239Z" fill="#26FFBE"/>
<path d="M56.3149 9.21842L57.497 11.8113C57.8075 11.6697 58.118 11.5335 58.4285 11.3973L57.2682 8.78809C56.9468 8.92971 56.6309 9.07679 56.3149 9.21842Z" fill="#26FFBE"/>
<path d="M176.291 145.47L173.867 143.961C173.687 144.25 173.502 144.544 173.322 144.828L175.729 146.358C175.915 146.064 176.1 145.764 176.291 145.47Z" fill="#26FFBE"/>
<path d="M177.38 143.662L174.929 142.213C174.754 142.507 174.58 142.796 174.4 143.09L176.841 144.566C177.021 144.267 177.206 143.967 177.38 143.662Z" fill="#26FFBE"/>
<path d="M50.6768 12.024L52.0277 14.5298C52.3273 14.3663 52.6269 14.2084 52.9265 14.0504L51.6028 11.5283C51.2923 11.6863 50.9818 11.8606 50.6768 12.024Z" fill="#26FFBE"/>
<path d="M52.5293 11.0491L53.8257 13.5821C54.1308 13.4296 54.4304 13.277 54.7354 13.1245L53.4662 10.5752C53.1612 10.7277 52.8452 10.8857 52.5293 11.0491Z" fill="#26FFBE"/>
<path d="M54.4141 10.1118L55.656 12.6774C55.9611 12.5304 56.2661 12.3833 56.5766 12.2417L55.3619 9.65967C55.0459 9.80674 54.73 9.95927 54.4141 10.1118Z" fill="#26FFBE"/>
<path d="M48.8359 13.0369L50.2468 15.5154C50.5464 15.3466 50.8405 15.1832 51.1401 15.0197L49.7565 12.5249C49.4515 12.6938 49.141 12.8681 48.8359 13.0369Z" fill="#26FFBE"/>
<path d="M45.23 15.1942L46.7498 17.6073C47.0385 17.4276 47.3272 17.2478 47.6159 17.0681L46.1233 14.644C45.8292 14.8238 45.5241 15.009 45.23 15.1942Z" fill="#26FFBE"/>
<path d="M47.022 14.0993L48.4927 16.5452C48.7869 16.3708 49.0756 16.1965 49.3697 16.0222L47.9317 13.5601C47.6266 13.7398 47.3216 13.9196 47.022 14.0993Z" fill="#26FFBE"/>
<path d="M56.3263 181.722L57.5138 179.129C57.2033 178.993 56.8928 178.846 56.5823 178.699L55.373 181.281C55.689 181.428 56.0104 181.58 56.3263 181.722Z" fill="#26FFBE"/>
<path d="M170.234 154.083L167.989 152.318C167.782 152.585 167.564 152.857 167.357 153.119L169.574 154.905C169.792 154.633 170.016 154.361 170.234 154.083Z" fill="#26FFBE"/>
<path d="M48.4545 174.374C48.1658 174.199 47.8662 174.02 47.583 173.845L46.085 176.269C46.3846 176.454 46.6896 176.64 46.9892 176.819L48.4545 174.374Z" fill="#26FFBE"/>
<path d="M161.294 31.024C161.534 31.2691 161.773 31.5142 162.008 31.7593L164.067 29.782C163.821 29.5314 163.576 29.2754 163.331 29.0303L161.294 31.024Z" fill="#26FFBE"/>
<path d="M156.855 26.8022C157.111 27.031 157.367 27.2544 157.618 27.4831L159.54 25.3805C159.279 25.1463 159.018 24.9066 158.756 24.6724L156.855 26.8022Z" fill="#26FFBE"/>
<path d="M168.038 38.677C168.245 38.9439 168.458 39.2108 168.665 39.4778L170.925 37.7401C170.713 37.4677 170.495 37.1899 170.282 36.9121L168.038 38.677Z" fill="#26FFBE"/>
<path d="M158.369 28.1859C158.62 28.4147 158.865 28.6489 159.115 28.8832L161.082 26.8186C160.831 26.579 160.57 26.3393 160.314 26.0996L158.369 28.1859Z" fill="#26FFBE"/>
<path d="M159.846 29.5857C160.091 29.8254 160.336 30.065 160.576 30.3047L162.591 28.2838C162.341 28.0332 162.09 27.7881 161.839 27.543L159.846 29.5857Z" fill="#26FFBE"/>
<path d="M166.758 37.0868C166.976 37.3483 167.188 37.6152 167.401 37.8767L169.623 36.09C169.405 35.823 169.182 35.5452 168.964 35.2783L166.758 37.0868Z" fill="#26FFBE"/>
<path d="M165.445 35.529C165.663 35.785 165.887 36.041 166.104 36.3025L168.289 34.4668C168.065 34.1998 167.837 33.9329 167.608 33.666L165.445 35.529Z" fill="#26FFBE"/>
<path d="M164.095 33.9978C164.324 34.2484 164.547 34.5044 164.776 34.7605L166.916 32.8757C166.682 32.6142 166.448 32.3473 166.214 32.0913L164.095 33.9978Z" fill="#26FFBE"/>
<path d="M162.711 32.4945C162.945 32.7451 163.179 32.9957 163.403 33.2408L165.505 31.3125C165.266 31.051 165.026 30.795 164.786 30.5444L162.711 32.4945Z" fill="#26FFBE"/>
<path d="M147.181 19.2904C147.464 19.4756 147.747 19.6717 148.025 19.8678L149.654 17.52C149.365 17.3239 149.071 17.1224 148.782 16.9263L147.181 19.2904Z" fill="#26FFBE"/>
<path d="M13.4238 48.2154L15.8969 49.6371C16.0657 49.3429 16.2401 49.0488 16.4144 48.7546L13.9577 47.3057C13.7779 47.6053 13.5981 47.9158 13.4238 48.2154Z" fill="#26FFBE"/>
<path d="M12.3887 50.051L14.8944 51.4237C15.0633 51.1241 15.2267 50.8245 15.3956 50.5249L12.9007 49.1304C12.7318 49.4354 12.5575 49.7459 12.3887 50.051Z" fill="#26FFBE"/>
<path d="M148.864 20.451C149.142 20.6471 149.42 20.8432 149.692 21.0447L151.37 18.7405C151.087 18.5335 150.798 18.3265 150.515 18.125L148.864 20.451Z" fill="#26FFBE"/>
<path d="M155.313 25.4679C155.575 25.6858 155.836 25.9091 156.092 26.1325L157.966 23.9808C157.705 23.752 157.432 23.5232 157.171 23.2944L155.313 25.4679Z" fill="#26FFBE"/>
<path d="M153.744 24.1603C154.011 24.3728 154.273 24.5906 154.534 24.8085L156.359 22.6187C156.092 22.3954 155.82 22.1721 155.547 21.9487L153.744 24.1603Z" fill="#26FFBE"/>
<path d="M152.143 22.8855C152.415 23.0979 152.682 23.3049 152.949 23.5173L154.725 21.2894C154.452 21.0715 154.174 20.8536 153.897 20.6357L152.143 22.8855Z" fill="#26FFBE"/>
<path d="M150.52 21.6492C150.792 21.8507 151.064 22.0577 151.337 22.2647L153.063 19.9932C152.786 19.7808 152.502 19.5683 152.225 19.3613L150.52 21.6492Z" fill="#26FFBE"/>
<path d="M11.3975 51.9139L13.9304 53.2267C14.0884 52.9271 14.2464 52.622 14.4043 52.3224L11.8877 50.9824C11.7243 51.2875 11.5609 51.6034 11.3975 51.9139Z" fill="#26FFBE"/>
<path d="M7.85059 59.5727L10.4871 60.6513C10.6178 60.3353 10.7485 60.0194 10.8847 59.7034L8.25913 58.5977C8.1175 58.919 7.98132 59.2459 7.85059 59.5727Z" fill="#26FFBE"/>
<path d="M7.07227 61.5337L9.73597 62.5524C9.85581 62.2364 9.9811 61.915 10.1064 61.6045L7.45357 60.5532C7.32284 60.8746 7.19755 61.2069 7.07227 61.5337Z" fill="#26FFBE"/>
<path d="M8.67383 57.6282L11.2831 58.7667C11.4192 58.4562 11.5609 58.1403 11.6971 57.8298L9.09327 56.6641C8.95708 56.98 8.81001 57.3068 8.67383 57.6282Z" fill="#26FFBE"/>
<path d="M169.28 40.2895C169.487 40.5619 169.689 40.8343 169.89 41.1066L172.189 39.4234C171.982 39.1402 171.77 38.8569 171.563 38.5791L169.28 40.2895Z" fill="#26FFBE"/>
<path d="M82.8922 4.43051C83.2299 4.38693 83.5677 4.33791 83.9054 4.29978L83.5459 1.47266C83.1972 1.51623 82.8541 1.55981 82.5 1.60884L82.8922 4.43051Z" fill="#26FFBE"/>
<path d="M5.64502 65.5106L8.3523 66.4094C8.4558 66.088 8.57019 65.7666 8.67914 65.4398L5.98275 64.5083C5.86836 64.846 5.75396 65.1783 5.64502 65.5106Z" fill="#26FFBE"/>
<path d="M9.53955 55.6999L12.127 56.8982C12.2686 56.5932 12.4157 56.2827 12.5573 55.9722L9.98623 54.7466C9.8337 55.0625 9.68118 55.3839 9.53955 55.6999Z" fill="#26FFBE"/>
<path d="M35.0273 22.5913L36.8522 24.7811C37.1136 24.5632 37.3806 24.3508 37.642 24.1329L35.8444 21.9268C35.5721 22.1446 35.2943 22.368 35.0273 22.5913Z" fill="#26FFBE"/>
<path d="M6.33691 63.5164L9.02241 64.4751C9.1368 64.1537 9.25664 63.8323 9.37103 63.5109L6.69643 62.5195C6.57659 62.8518 6.45131 63.1841 6.33691 63.5164Z" fill="#26FFBE"/>
<path d="M172.794 45.2957C172.979 45.579 173.164 45.8622 173.344 46.1509L175.752 44.6202C175.567 44.3261 175.37 44.0265 175.18 43.7378L172.794 45.2957Z" fill="#26FFBE"/>
<path d="M173.889 47.0113C174.068 47.3 174.248 47.5887 174.423 47.8774L176.863 46.3958C176.683 46.1016 176.498 45.802 176.313 45.5024L173.889 47.0113Z" fill="#26FFBE"/>
<path d="M171.661 43.6016C171.851 43.8795 172.042 44.1627 172.233 44.446L174.602 42.8608C174.412 42.5721 174.21 42.278 174.014 41.9893L171.661 43.6016Z" fill="#26FFBE"/>
<path d="M170.489 41.9348C170.685 42.2072 170.881 42.485 171.078 42.7628L173.414 41.1287C173.213 40.84 173.011 40.5567 172.81 40.2734L170.489 41.9348Z" fill="#26FFBE"/>
<path d="M174.945 48.7547C175.12 49.0434 175.288 49.3376 175.457 49.6317L177.93 48.21C177.762 47.9049 177.582 47.6053 177.402 47.3003L174.945 48.7547Z" fill="#26FFBE"/>
<path d="M176.939 52.301C177.103 52.6006 177.261 52.9002 177.413 53.1998L179.946 51.887C179.788 51.5819 179.625 51.266 179.462 50.9609L176.939 52.301Z" fill="#26FFBE"/>
<path d="M10.4438 53.7988L13.0095 55.0517C13.1566 54.7466 13.3091 54.4416 13.4616 54.1365L10.9178 52.8564C10.7598 53.1669 10.6018 53.4829 10.4438 53.7988Z" fill="#26FFBE"/>
<path d="M175.964 50.5141C176.133 50.8137 176.296 51.1079 176.46 51.4075L178.96 50.0348C178.791 49.7297 178.622 49.4247 178.453 49.1196L175.964 50.5141Z" fill="#26FFBE"/>
<path d="M4.99658 67.5258L7.72565 68.3647C7.8237 68.0378 7.9272 67.711 8.0307 67.3842L5.31797 66.5181C5.20902 66.8503 5.10008 67.1881 4.99658 67.5258Z" fill="#26FFBE"/>
<path d="M14.4961 46.4012L16.9365 47.8774C17.1108 47.5833 17.296 47.2946 17.4703 47.0059L15.0517 45.5024C14.8665 45.7966 14.6759 46.1016 14.4961 46.4012Z" fill="#26FFBE"/>
<path d="M117.025 3.11216C116.687 3.03045 116.338 2.95419 115.995 2.87793L115.391 5.66692C115.723 5.73774 116.061 5.814 116.387 5.89026L117.025 3.11216Z" fill="#26FFBE"/>
<path d="M119.073 3.60262C118.73 3.52092 118.387 3.43376 118.049 3.35205L117.379 6.1247C117.711 6.20096 118.038 6.28267 118.37 6.36983L119.073 3.60262Z" fill="#26FFBE"/>
<path d="M23.0977 34.4394L25.2766 36.2751C25.4999 36.0137 25.7178 35.7577 25.9411 35.4962L23.7786 33.6387C23.5498 33.9001 23.321 34.1725 23.0977 34.4394Z" fill="#26FFBE"/>
<path d="M121.105 4.14695C120.772 4.0489 120.429 3.9563 120.091 3.86914L119.356 6.62545C119.683 6.7126 120.015 6.79431 120.342 6.89236L121.105 4.14695Z" fill="#26FFBE"/>
<path d="M21.7578 36.0627L23.9803 37.8494C24.1927 37.5879 24.4106 37.321 24.6231 37.0595L22.4224 35.2456C22.199 35.518 21.9757 35.7903 21.7578 36.0627Z" fill="#26FFBE"/>
<path d="M114.96 2.66012C114.617 2.58931 114.268 2.52394 113.93 2.45312L113.386 5.25301C113.713 5.31838 114.05 5.38375 114.383 5.45456L114.96 2.66012Z" fill="#26FFBE"/>
<path d="M110.82 1.90268C110.477 1.8482 110.128 1.79373 109.785 1.73926L109.366 4.56093C109.698 4.60996 110.041 4.66443 110.373 4.7189L110.82 1.90268Z" fill="#26FFBE"/>
<path d="M112.896 2.25691C112.553 2.19699 112.204 2.13707 111.861 2.07715L111.376 4.88248C111.714 4.9424 112.051 5.00232 112.384 5.06224L112.896 2.25691Z" fill="#26FFBE"/>
<path d="M125.152 5.36192C124.814 5.25297 124.476 5.14402 124.138 5.04053L123.283 7.7587C123.61 7.8622 123.937 7.9657 124.264 8.07465L125.152 5.36192Z" fill="#26FFBE"/>
<path d="M31.8516 25.3531L33.7744 27.4612C34.025 27.2324 34.281 27.0036 34.5316 26.7803L32.636 24.6504C32.3745 24.8792 32.113 25.1189 31.8516 25.3531Z" fill="#26FFBE"/>
<path d="M30.3154 26.786L32.2819 28.8505C32.527 28.6163 32.7721 28.3821 33.0227 28.1533L31.078 26.0615C30.8275 26.3012 30.566 26.5409 30.3154 26.786Z" fill="#26FFBE"/>
<path d="M33.4258 23.9534L35.2996 26.0997C35.5557 25.8818 35.8171 25.6584 36.0731 25.4351L34.2265 23.2671C33.9596 23.4959 33.6927 23.7247 33.4258 23.9534Z" fill="#26FFBE"/>
<path d="M28.8008 28.2511L30.8163 30.272C31.0559 30.0323 31.2956 29.7927 31.5407 29.5584L29.5525 27.5103C29.3019 27.7499 29.0514 28.006 28.8008 28.2511Z" fill="#26FFBE"/>
<path d="M108.734 1.59224C108.391 1.54321 108.042 1.49963 107.694 1.45605L107.334 4.28318C107.672 4.32676 108.009 4.37033 108.347 4.41936L108.734 1.59224Z" fill="#26FFBE"/>
<path d="M24.4707 32.843L26.6115 34.7277C26.8403 34.4717 27.0636 34.2157 27.2924 33.9651L25.1734 32.0586C24.9392 32.3146 24.7049 32.5815 24.4707 32.843Z" fill="#26FFBE"/>
<path d="M27.3252 29.7493L29.3843 31.7266C29.6185 31.4815 29.8582 31.2364 30.0924 30.9967L28.0606 28.9976C27.8154 29.2481 27.5649 29.4987 27.3252 29.7493Z" fill="#26FFBE"/>
<path d="M25.8813 31.2798L27.9785 33.2136C28.2128 32.963 28.4416 32.7124 28.6703 32.4673L26.5949 30.5117C26.3607 30.7623 26.121 31.0238 25.8813 31.2798Z" fill="#26FFBE"/>
<path d="M123.131 4.73026C122.799 4.63221 122.456 4.52871 122.118 4.43066L121.328 7.17063C121.655 7.26323 121.982 7.36128 122.303 7.45933L123.131 4.73026Z" fill="#26FFBE"/>
<path d="M17.9556 41.1066L20.2924 42.7517C20.4885 42.4739 20.6846 42.1906 20.8807 41.9182L18.5657 40.2568C18.3641 40.5346 18.1571 40.8233 17.9556 41.1066Z" fill="#26FFBE"/>
<path d="M19.1865 39.3966L21.4853 41.0852C21.6868 40.8129 21.8938 40.5405 22.0954 40.2681L19.813 38.5522C19.606 38.8301 19.3935 39.1133 19.1865 39.3966Z" fill="#26FFBE"/>
<path d="M90.0064 3.72237L89.8321 0.878906C89.4835 0.900697 89.1294 0.922483 88.7808 0.94972L88.9878 3.79318C89.3255 3.76595 89.6687 3.74416 90.0064 3.72237Z" fill="#26FFBE"/>
<path d="M87.9691 3.86927L87.7295 1.03125C87.3808 1.05849 87.0322 1.09117 86.6836 1.12385L86.9505 3.96187C87.2882 3.92919 87.6314 3.90195 87.9691 3.86927Z" fill="#26FFBE"/>
<path d="M106.648 1.3307C106.304 1.28712 105.95 1.24899 105.602 1.21631L105.308 4.04888C105.645 4.08701 105.983 4.11969 106.321 4.16327L106.648 1.3307Z" fill="#26FFBE"/>
<path d="M15.6079 44.6094L18.0156 46.1456C18.1954 45.8568 18.3806 45.5681 18.5658 45.2849L16.1799 43.7324C15.9892 44.0211 15.7986 44.3153 15.6079 44.6094Z" fill="#26FFBE"/>
<path d="M85.9314 4.06011L85.6373 1.22754C85.2832 1.26567 84.9346 1.3038 84.5859 1.34193L84.9182 4.1745C85.2559 4.13637 85.5937 4.09824 85.9314 4.06011Z" fill="#26FFBE"/>
<path d="M16.7627 42.8442L19.1377 44.4294C19.3229 44.1461 19.519 43.8683 19.7097 43.585L17.3564 41.9727C17.1603 42.2614 16.9588 42.5555 16.7627 42.8442Z" fill="#26FFBE"/>
<path d="M104.551 1.11311C104.207 1.08043 103.853 1.04774 103.505 1.02051L103.271 3.86397C103.614 3.89121 103.951 3.91844 104.289 3.94568L104.551 1.11311Z" fill="#26FFBE"/>
<path d="M20.4502 37.7187L22.7108 39.4564C22.9178 39.184 23.1302 38.9171 23.3372 38.6502L21.0984 36.8853C20.8805 37.1576 20.6681 37.4409 20.4502 37.7187Z" fill="#26FFBE"/>
<path d="M102.453 0.938902C102.105 0.917113 101.756 0.895324 101.402 0.873535L101.228 3.717C101.571 3.73879 101.908 3.76058 102.252 3.78237L102.453 0.938902Z" fill="#26FFBE"/>
<path d="M92.0495 3.6243L91.9351 0.775391C91.5865 0.786284 91.2324 0.802627 90.8838 0.818969L91.0254 3.66788C91.3686 3.65154 91.7063 3.6352 92.0495 3.6243Z" fill="#26FFBE"/>
</svg>
