<svg width="141" height="141" viewBox="0 0 141 141" fill="none" xmlns="http://www.w3.org/2000/svg">
<path d="M35.4717 9.72272L36.9043 12.1903C42.0247 9.23247 47.4393 6.98275 53.148 5.45208C58.8622 3.91595 64.6744 3.14789 70.5901 3.14244V0.288086C64.4238 0.288086 58.361 1.08883 52.4072 2.69032C46.4533 4.28637 40.81 6.63413 35.4771 9.72272H35.4717Z" fill="#26FFBE"/>
<path d="M104.297 12.0975C109.423 15.0499 114.075 18.6124 118.264 22.785C122.453 26.9576 126.037 31.5986 129.012 36.7027L131.479 35.2755C128.38 29.9481 124.648 25.1164 120.28 20.7695C115.916 16.4226 111.063 12.7076 105.725 9.62988L104.297 12.0975Z" fill="#26FFBE"/>
<path d="M3.27285 70.4702C3.27285 64.5709 4.03002 58.775 5.55525 53.0772C7.08048 47.3793 9.31385 41.9702 12.2608 36.8607L9.78776 35.439C6.71006 40.7609 4.37864 46.3934 2.78805 52.3363C1.2029 58.2738 0.413044 64.3203 0.423939 70.4702V70.5301H3.27285V70.4702Z" fill="#26FFBE"/>
<path d="M138.479 88.9313C140.124 82.8849 140.941 76.7295 140.935 70.4706V70.3398L138.086 70.3453V70.4706C138.086 76.3754 137.324 82.1822 135.793 87.8909C134.268 93.5996 132.024 99.0087 129.071 104.129L131.539 105.556C134.573 100.316 136.888 94.7762 138.479 88.9313Z" fill="#26FFBE"/>
<path d="M104.401 128.778C99.2808 131.73 93.8662 133.975 88.1521 135.5C82.4379 137.03 76.6257 137.793 70.71 137.793V140.647C76.8762 140.653 82.939 139.858 88.8929 138.261C94.8467 136.671 100.496 134.329 105.828 131.245L104.401 128.778Z" fill="#26FFBE"/>
<path d="M35.5805 131.272L37.0076 128.805C31.8872 125.847 27.2353 122.279 23.0463 118.106C18.8629 113.928 15.284 109.287 12.3207 104.178L9.84766 105.605C12.9417 110.932 16.6731 115.769 21.0309 120.122C25.3941 124.474 30.2422 128.189 35.5805 131.272Z" fill="#26FFBE"/>
</svg>
