<svg width="167" height="167" viewBox="0 0 167 167" fill="none" xmlns="http://www.w3.org/2000/svg">
<path d="M2.37697 67.2046C2.20266 68.0925 2.02835 69.0022 1.88672 69.901L10.7603 71.3608C10.891 70.5601 11.0381 69.7539 11.1961 68.9586L2.37697 67.2046Z" fill="#26FFBE"/>
<path d="M47.8833 158.179C48.7058 158.571 49.5447 158.958 50.3781 159.323L53.9951 151.098C53.2488 150.771 52.5026 150.428 51.7672 150.079L47.8833 158.179Z" fill="#26FFBE"/>
<path d="M19.9717 30.4792L26.8788 36.2315C27.3963 35.6105 27.9356 34.9841 28.4748 34.3794L21.7584 28.4038C21.1537 29.0847 20.5491 29.782 19.9717 30.4792Z" fill="#26FFBE"/>
<path d="M10.7762 95.672C10.64 94.8713 10.5147 94.0596 10.4112 93.2534L1.49951 94.4355C1.61935 95.3397 1.75553 96.2494 1.90261 97.1428L10.7762 95.672Z" fill="#26FFBE"/>
<path d="M10.1336 90.8348C10.0519 90.0286 9.98654 89.2115 9.93207 88.3999L0.960449 88.9937C1.02037 89.9033 1.09663 90.8185 1.18379 91.7227L10.1336 90.8348Z" fill="#26FFBE"/>
<path d="M36.041 15.6899L41.2105 23.0383C41.875 22.5698 42.5559 22.1122 43.2314 21.6656L38.3016 14.1538C37.5445 14.6495 36.7818 15.167 36.041 15.6899Z" fill="#26FFBE"/>
<path d="M31.6665 18.9801L37.3153 25.9743C37.9417 25.4623 38.5954 24.9612 39.2382 24.4709L33.8291 17.2969C33.0991 17.8416 32.3746 18.4136 31.6665 18.9801Z" fill="#26FFBE"/>
<path d="M16.5996 34.7991L23.8717 40.0829C24.3456 39.4293 24.8413 38.7756 25.3424 38.1328L18.2501 32.6147C17.6891 33.3283 17.1334 34.0637 16.5996 34.7991Z" fill="#26FFBE"/>
<path d="M27.5215 22.5538L33.6115 29.1613C34.2107 28.6111 34.8262 28.0664 35.4363 27.538L29.5642 20.7344C28.8778 21.3281 28.186 21.9382 27.5215 22.5538Z" fill="#26FFBE"/>
<path d="M23.6157 26.394L30.1306 32.5821C30.6863 31.9993 31.2637 31.411 31.8411 30.8444L25.5386 24.4385C24.8849 25.0813 24.2422 25.7349 23.6157 26.394Z" fill="#26FFBE"/>
<path d="M101.282 2.52944C100.389 2.33878 99.4847 2.15902 98.5913 1.99561L96.9844 10.8365C97.7797 10.9781 98.5859 11.1415 99.3812 11.3104L101.282 2.52944Z" fill="#26FFBE"/>
<path d="M103.952 3.15625L101.756 11.8664C102.546 12.0625 103.336 12.2749 104.115 12.4983L106.599 3.86439C105.722 3.61382 104.834 3.37414 103.952 3.15625Z" fill="#26FFBE"/>
<path d="M94.5769 10.4388L95.8896 1.5489C94.9908 1.41816 94.0703 1.29832 93.1715 1.19482L92.1528 10.1229C92.9536 10.2155 93.7707 10.319 94.5769 10.4388Z" fill="#26FFBE"/>
<path d="M0.823907 86.2595L9.81732 85.9599C9.78463 85.1537 9.77374 84.3312 9.77374 83.5195L0.780329 83.525C0.774881 84.4292 0.791223 85.3553 0.823907 86.2595Z" fill="#26FFBE"/>
<path d="M79.94 9.73627L79.4933 0.764648C78.5836 0.808226 77.663 0.868147 76.7588 0.944408L77.4996 9.89424C78.3113 9.82887 79.1283 9.7744 79.94 9.73627Z" fill="#26FFBE"/>
<path d="M108.773 14.0071L111.823 5.55839C110.968 5.2479 110.091 4.9483 109.225 4.66504L106.458 13.2172C107.226 13.4623 108.01 13.7293 108.773 14.0071Z" fill="#26FFBE"/>
<path d="M10.4005 73.7741L1.48334 72.6084C1.36351 73.5072 1.26001 74.4223 1.17285 75.3266L10.1227 76.1981C10.1989 75.3919 10.297 74.5803 10.4005 73.7741Z" fill="#26FFBE"/>
<path d="M0.818848 80.7902L9.81225 81.0734C9.83949 80.2672 9.87762 79.4447 9.93209 78.6385L0.955029 78.0557C0.895109 78.9599 0.846085 79.8805 0.818848 80.7902Z" fill="#26FFBE"/>
<path d="M10.7437 44.0701L18.6531 48.3461C19.0398 47.638 19.4429 46.919 19.8569 46.2163L12.0946 41.6787C11.6316 42.4631 11.1794 43.2693 10.7437 44.0701Z" fill="#26FFBE"/>
<path d="M133.486 149.671L128.077 142.491C127.429 142.981 126.77 143.461 126.105 143.929L131.275 151.278C132.016 150.755 132.762 150.215 133.486 149.671Z" fill="#26FFBE"/>
<path d="M137.752 146.239L131.885 139.435C131.27 139.963 130.638 140.492 130.006 140.998L135.649 147.993C136.357 147.421 137.065 146.832 137.752 146.239Z" fill="#26FFBE"/>
<path d="M149.077 134.364L141.984 128.84C141.489 129.478 140.971 130.115 140.448 130.741L147.355 136.494C147.938 135.802 148.516 135.083 149.077 134.364Z" fill="#26FFBE"/>
<path d="M145.563 138.575L138.852 132.594C138.313 133.198 137.757 133.803 137.196 134.391L143.706 140.585C144.332 139.926 144.959 139.25 145.563 138.575Z" fill="#26FFBE"/>
<path d="M141.788 142.535L135.486 136.129C134.908 136.695 134.309 137.262 133.715 137.807L139.8 144.42C140.47 143.804 141.134 143.172 141.788 142.535Z" fill="#26FFBE"/>
<path d="M13.5166 39.3367L21.1264 44.1303C21.5622 43.444 22.0089 42.7576 22.4664 42.0822L15.02 37.0435C14.508 37.7952 14.0069 38.5687 13.5166 39.3367Z" fill="#26FFBE"/>
<path d="M40.6162 12.6941L45.2954 20.3639C45.9872 19.9444 46.6953 19.5304 47.398 19.1328L42.9749 11.3105C42.1905 11.7572 41.3952 12.2202 40.6162 12.6941Z" fill="#26FFBE"/>
<path d="M129.009 152.814L124.085 145.296C123.409 145.743 122.712 146.179 122.02 146.598L126.688 154.273C127.467 153.8 128.246 153.309 129.009 152.814Z" fill="#26FFBE"/>
<path d="M12.307 64.2089L3.62411 61.8774C3.38988 62.7544 3.1611 63.6478 2.9541 64.5303L11.7133 66.5784C11.8985 65.7886 12.0946 64.9933 12.307 64.2089Z" fill="#26FFBE"/>
<path d="M8.28711 48.978L16.4634 52.7203C16.8012 51.9849 17.1552 51.2386 17.5202 50.5141L9.48006 46.4995C9.06607 47.3166 8.66842 48.15 8.28711 48.978Z" fill="#26FFBE"/>
<path d="M72.6461 10.4608C73.4468 10.3409 74.2639 10.232 75.0701 10.1394L74.0297 1.2168C73.1255 1.32029 72.2158 1.44013 71.3115 1.57632L72.6461 10.4608Z" fill="#26FFBE"/>
<path d="M6.1626 54.0444L14.5677 57.2365C14.8619 56.4793 15.1669 55.7167 15.4774 54.965L7.18668 51.4951C6.83261 52.334 6.48943 53.1892 6.1626 54.0444Z" fill="#26FFBE"/>
<path d="M152.306 129.935L144.871 124.891C144.413 125.561 143.939 126.231 143.46 126.885L150.727 132.18C151.266 131.444 151.794 130.692 152.306 129.935Z" fill="#26FFBE"/>
<path d="M13.7397 59.5348L5.23112 56.626C4.93152 57.4866 4.64826 58.3691 4.38135 59.2407L12.9826 61.8662C13.2222 61.0873 13.4728 60.3029 13.7397 59.5348Z" fill="#26FFBE"/>
<path d="M155.238 125.305L147.481 120.762C147.072 121.459 146.642 122.162 146.211 122.849L153.81 127.648C154.295 126.879 154.78 126.09 155.238 125.305Z" fill="#26FFBE"/>
<path d="M51.7234 16.8828L47.8286 8.78271C47.0115 9.17492 46.189 9.58891 45.3828 10.0083L49.5445 17.9722C50.2581 17.5964 50.9935 17.2314 51.7234 16.8828Z" fill="#26FFBE"/>
<path d="M157.858 120.484L149.818 116.464C149.453 117.189 149.071 117.919 148.685 118.632L156.589 122.914C157.024 122.113 157.449 121.296 157.858 120.484Z" fill="#26FFBE"/>
<path d="M160.151 115.495L151.86 112.02C151.544 112.766 151.217 113.518 150.874 114.258L159.045 118.006C159.426 117.178 159.802 116.334 160.151 115.495Z" fill="#26FFBE"/>
<path d="M63.1077 12.5359C63.8867 12.3125 64.6765 12.1001 65.4664 11.8986L63.2548 3.19385C62.3723 3.41718 61.4844 3.65686 60.6074 3.90744L63.1077 12.5359Z" fill="#26FFBE"/>
<path d="M166.535 80.6212C166.502 79.7115 166.459 78.7964 166.399 77.8867L157.422 78.4859C157.476 79.2921 157.52 80.1146 157.547 80.9263L166.535 80.6212Z" fill="#26FFBE"/>
<path d="M58.4613 14.0505C59.2239 13.7726 60.0029 13.5057 60.771 13.2552L57.9874 4.71387C57.1213 4.99712 56.2497 5.29672 55.3945 5.60722L58.4613 14.0505Z" fill="#26FFBE"/>
<path d="M53.9349 15.8646C54.6757 15.5378 55.4275 15.2219 56.1792 14.9223L52.8346 6.58252C51.9903 6.92025 51.1459 7.27432 50.3125 7.63929L53.9349 15.8646Z" fill="#26FFBE"/>
<path d="M56.2498 152.046L52.9106 160.386C53.7604 160.723 54.6211 161.056 55.4817 161.366L58.5431 152.917C57.775 152.64 57.007 152.345 56.2498 152.046Z" fill="#26FFBE"/>
<path d="M67.8417 11.3432C68.6316 11.1689 69.4378 11.0055 70.2385 10.8584L68.6098 2.02295C67.7165 2.18637 66.8122 2.37157 65.9243 2.56223L67.8417 11.3432Z" fill="#26FFBE"/>
<path d="M113.381 151.098L116.998 159.323C117.826 158.958 118.665 158.571 119.482 158.179L115.592 150.079C114.863 150.428 114.116 150.765 113.381 151.098Z" fill="#26FFBE"/>
<path d="M82.3806 9.65444C83.1922 9.6381 84.0147 9.6381 84.8318 9.65444L84.968 0.671925C84.0583 0.655582 83.1377 0.655582 82.228 0.671925L82.3806 9.65444Z" fill="#26FFBE"/>
<path d="M156.937 73.6269C157.046 74.4331 157.144 75.2447 157.22 76.0509L166.17 75.163C166.083 74.2588 165.974 73.3436 165.854 72.4448L156.937 73.6269Z" fill="#26FFBE"/>
<path d="M124.329 155.652L119.917 147.83C119.209 148.222 118.49 148.614 117.771 148.99L121.922 156.954C122.733 156.54 123.54 156.099 124.329 155.652Z" fill="#26FFBE"/>
<path d="M87.2773 9.7309C88.089 9.76903 88.9115 9.81805 89.7177 9.88342L90.4422 0.933589C89.538 0.857327 88.6174 0.797408 87.7077 0.759277L87.2773 9.7309Z" fill="#26FFBE"/>
<path d="M60.8586 153.707L58.0859 162.254C58.9466 162.532 59.8345 162.804 60.7061 163.055L63.1955 154.421C62.4165 154.197 61.6321 153.958 60.8586 153.707Z" fill="#26FFBE"/>
<path d="M92.2396 156.801C91.4334 156.894 90.6163 156.976 89.8047 157.041L90.5401 165.996C91.4498 165.92 92.3649 165.833 93.2691 165.729L92.2396 156.801Z" fill="#26FFBE"/>
<path d="M111.061 14.8729C111.818 15.1725 112.575 15.4939 113.321 15.8208L116.933 7.58997C116.094 7.225 115.244 6.86548 114.394 6.5332L111.061 14.8729Z" fill="#26FFBE"/>
<path d="M65.5536 155.058L63.3584 163.768C64.2409 163.992 65.1396 164.199 66.0276 164.395L67.9286 155.614C67.1388 155.445 66.338 155.254 65.5536 155.058Z" fill="#26FFBE"/>
<path d="M106.539 153.696C105.771 153.947 104.981 154.187 104.208 154.41L106.697 163.038C107.568 162.788 108.451 162.521 109.317 162.238L106.539 153.696Z" fill="#26FFBE"/>
<path d="M111.131 152.035C110.379 152.334 109.611 152.628 108.849 152.901L111.915 161.349C112.771 161.039 113.631 160.712 114.476 160.374L111.131 152.035Z" fill="#26FFBE"/>
<path d="M101.849 155.047C101.059 155.243 100.258 155.434 99.4683 155.603L101.38 164.384C102.268 164.188 103.167 163.981 104.049 163.758L101.849 155.047Z" fill="#26FFBE"/>
<path d="M72.7389 156.491C71.9327 156.371 71.1265 156.235 70.3258 156.093L68.7134 164.929C69.6067 165.092 70.5164 165.245 71.4152 165.375L72.7389 156.491Z" fill="#26FFBE"/>
<path d="M87.3701 157.204C86.5585 157.242 85.736 157.269 84.9243 157.28L85.0714 166.263C85.9811 166.252 86.9017 166.219 87.8114 166.181L87.3701 157.204Z" fill="#26FFBE"/>
<path d="M75.1574 156.807L74.1333 165.735C75.0375 165.838 75.9527 165.925 76.8624 166.002L77.5923 157.046C76.7861 156.981 75.9636 156.899 75.1574 156.807Z" fill="#26FFBE"/>
<path d="M82.4787 157.286C81.667 157.269 80.8445 157.242 80.0329 157.204L79.6025 166.176C80.5068 166.219 81.4274 166.252 82.3371 166.263L82.4787 157.286Z" fill="#26FFBE"/>
<path d="M97.0717 156.082C96.2764 156.229 95.4648 156.365 94.6641 156.485L95.9877 165.37C96.8865 165.233 97.7962 165.086 98.695 164.917L97.0717 156.082Z" fill="#26FFBE"/>
<path d="M26.8789 130.703C26.3559 130.082 25.8384 129.445 25.3427 128.802L18.2559 134.326C18.8115 135.039 19.3889 135.758 19.9717 136.456L26.8789 130.703Z" fill="#26FFBE"/>
<path d="M166.584 83.4703V83.356L157.59 83.3669V83.4703C157.59 84.2765 157.574 85.0991 157.547 85.9107L166.54 86.2049C166.568 85.2952 166.584 84.3746 166.584 83.4703Z" fill="#26FFBE"/>
<path d="M165.87 94.3811L156.953 93.21C156.844 94.0107 156.724 94.8223 156.594 95.6285L165.467 97.0938C165.614 96.1951 165.751 95.2854 165.87 94.3811Z" fill="#26FFBE"/>
<path d="M163.719 105.118L155.036 102.775C154.829 103.554 154.6 104.344 154.36 105.118L162.962 107.749C163.228 106.877 163.484 105.995 163.719 105.118Z" fill="#26FFBE"/>
<path d="M164.971 99.7849L156.152 98.0254C155.994 98.8152 155.82 99.6214 155.635 100.411L164.388 102.459C164.601 101.577 164.792 100.678 164.971 99.7849Z" fill="#26FFBE"/>
<path d="M115.549 16.8339C116.279 17.188 117.014 17.553 117.739 17.9288L121.889 9.95952C121.078 9.54008 120.25 9.12609 119.427 8.73389L115.549 16.8339Z" fill="#26FFBE"/>
<path d="M156.136 68.8168C156.294 69.6067 156.441 70.4129 156.577 71.2136L165.446 69.732C165.299 68.8386 165.13 67.9344 164.95 67.041L156.136 68.8168Z" fill="#26FFBE"/>
<path d="M128.078 24.4382C128.726 24.9284 129.374 25.4296 130.006 25.9416L135.649 18.9474C134.941 18.3754 134.211 17.8089 133.487 17.2642L128.078 24.4382Z" fill="#26FFBE"/>
<path d="M119.891 19.0948C120.599 19.4924 121.307 19.9064 122.004 20.3259L126.672 12.6507C125.893 12.1768 125.098 11.7138 124.303 11.2671L119.891 19.0948Z" fill="#26FFBE"/>
<path d="M124.074 21.6329C124.749 22.0742 125.43 22.5372 126.095 23.0002L131.264 15.6518C130.518 15.1289 129.755 14.6114 128.993 14.1157L124.074 21.6329Z" fill="#26FFBE"/>
<path d="M162.106 110.363L153.603 107.449C153.341 108.217 153.058 108.991 152.77 109.748L161.169 112.945C161.501 112.096 161.812 111.224 162.106 110.363Z" fill="#26FFBE"/>
<path d="M149.796 50.4327C150.161 51.1572 150.515 51.8926 150.853 52.628L159.018 48.8694C158.642 48.0468 158.245 47.2189 157.836 46.4072L149.796 50.4327Z" fill="#26FFBE"/>
<path d="M131.885 27.5053C132.5 28.0337 133.116 28.5785 133.71 29.1286L139.8 22.5157C139.13 21.9001 138.443 21.29 137.751 20.6963L131.885 27.5053Z" fill="#26FFBE"/>
<path d="M151.833 54.8504C152.149 55.5967 152.454 56.3593 152.743 57.111L161.142 53.9026C160.816 53.0583 160.472 52.2031 160.124 51.3696L151.833 54.8504Z" fill="#26FFBE"/>
<path d="M153.576 59.4042C153.838 60.1668 154.094 60.9512 154.333 61.7247L162.929 59.0828C162.662 58.2112 162.373 57.3342 162.079 56.479L153.576 59.4042Z" fill="#26FFBE"/>
<path d="M155.014 64.0671C155.226 64.846 155.428 65.6413 155.618 66.4312L164.367 64.3667C164.16 63.4788 163.936 62.5909 163.697 61.7139L155.014 64.0671Z" fill="#26FFBE"/>
<path d="M147.47 46.1564C147.878 46.8536 148.281 47.5672 148.668 48.2753L156.567 43.9884C156.136 43.1931 155.684 42.3923 155.221 41.6079L147.47 46.1564Z" fill="#26FFBE"/>
<path d="M141.788 24.4058L135.485 30.8117C136.063 31.3782 136.64 31.9611 137.201 32.5494L143.711 26.3559C143.084 25.6968 142.436 25.0431 141.788 24.4058Z" fill="#26FFBE"/>
<path d="M144.86 42.033C145.318 42.703 145.765 43.3894 146.2 44.0703L153.799 39.2712C153.314 38.5032 152.808 37.7351 152.301 36.9834L144.86 42.033Z" fill="#26FFBE"/>
<path d="M138.852 34.3469C139.397 34.9515 139.931 35.5725 140.448 36.1935L147.355 30.4358C146.772 29.7385 146.173 29.0413 145.563 28.3604L138.852 34.3469Z" fill="#26FFBE"/>
<path d="M141.984 38.0894C142.486 38.7322 142.976 39.3859 143.455 40.0395L150.722 34.7503C150.188 34.0149 149.632 33.2795 149.077 32.5659L141.984 38.0894Z" fill="#26FFBE"/>
<path d="M166.404 88.9339L157.433 88.3511C157.378 89.1573 157.313 89.9798 157.231 90.786L166.181 91.663C166.268 90.7588 166.344 89.8436 166.404 88.9339Z" fill="#26FFBE"/>
<path d="M30.1248 134.347C29.5692 133.764 29.0081 133.16 28.4688 132.555L21.7578 138.531C22.3625 139.206 22.9834 139.882 23.6099 140.541L30.1248 134.347Z" fill="#26FFBE"/>
<path d="M13.0097 105.167C12.7754 104.388 12.5466 103.603 12.3342 102.824L3.65674 105.172C3.89097 106.049 4.14699 106.931 4.41391 107.803L13.0097 105.167Z" fill="#26FFBE"/>
<path d="M11.735 100.455C11.5498 99.6703 11.3755 98.8641 11.2175 98.0742L2.39844 99.8391C2.5782 100.732 2.7743 101.631 2.98129 102.519L11.735 100.455Z" fill="#26FFBE"/>
<path d="M33.6111 137.774C33.0173 137.224 32.4181 136.657 31.8407 136.091L25.5273 142.491C26.1756 143.129 26.8456 143.766 27.5156 144.382L33.6111 137.774Z" fill="#26FFBE"/>
<path d="M45.3171 146.582C44.6253 146.163 43.9226 145.716 43.2471 145.28L38.3174 152.792C39.08 153.288 39.859 153.783 40.6379 154.257L45.3171 146.582Z" fill="#26FFBE"/>
<path d="M49.5772 148.984C48.8582 148.608 48.1337 148.216 47.4255 147.818L43.0078 155.641C43.8031 156.087 44.6147 156.529 45.4209 156.948L49.5772 148.984Z" fill="#26FFBE"/>
<path d="M37.3154 140.966C36.6835 140.454 36.0516 139.925 35.4361 139.402L29.564 146.201C30.2558 146.794 30.9585 147.383 31.6666 147.955L37.3154 140.966Z" fill="#26FFBE"/>
<path d="M14.6003 109.781C14.3116 109.023 14.0283 108.25 13.7668 107.487L5.26367 110.407C5.55782 111.268 5.87376 112.134 6.2006 112.984L14.6003 109.781Z" fill="#26FFBE"/>
<path d="M23.8771 126.857C23.3977 126.204 22.9238 125.528 22.4717 124.864L15.0308 129.902C15.5374 130.654 16.0657 131.406 16.605 132.141L23.8771 126.857Z" fill="#26FFBE"/>
<path d="M21.137 122.821C20.7012 122.14 20.2763 121.437 19.8678 120.74L12.1055 125.283C12.5685 126.068 13.0424 126.852 13.5326 127.615L21.137 122.821Z" fill="#26FFBE"/>
<path d="M16.4851 114.264C16.1474 113.534 15.8205 112.782 15.5046 112.036L7.21387 115.516C7.56794 116.35 7.93835 117.194 8.31421 118.017L16.4851 114.264Z" fill="#26FFBE"/>
<path d="M18.6697 118.621C18.2829 117.908 17.9016 117.183 17.5421 116.464L9.50195 120.479C9.90505 121.291 10.3354 122.108 10.7657 122.903L18.6697 118.621Z" fill="#26FFBE"/>
<path d="M39.2437 142.464L33.8291 149.638C34.559 150.188 35.2999 150.727 36.0516 151.25L41.221 143.907C40.5565 143.439 39.8919 142.954 39.2437 142.464Z" fill="#26FFBE"/>
</svg>
