<svg width="215" height="215" viewBox="0 0 215 218" fill="none" xmlns="http://www.w3.org/2000/svg">
<path d="M1.85841 95.73C0.877904 102.833 0.610989 109.958 1.05222 117.11C1.49889 124.263 2.64826 131.301 4.49488 138.224C6.86443 147.01 10.3016 155.356 14.8174 163.26L17.2959 161.849C8.40056 146.275 3.69958 128.512 3.69958 110.465C3.69958 105.66 4.02641 100.878 4.68553 96.1167L1.85841 95.73Z" fill="#26FFBE"/>
<path d="M34.8307 36.3548C51.1561 20.3508 72.5965 10.0446 95.208 7.34819L94.8703 4.51562C89.058 5.21287 83.3384 6.37858 77.7223 8.01821C72.1008 9.65238 66.6535 11.7387 61.3751 14.2771C56.0967 16.8101 51.0635 19.7625 46.2754 23.1234C41.4872 26.4898 37.0041 30.2212 32.8315 34.323L34.8307 36.3548Z" fill="#26FFBE"/>
<path d="M204.311 72.0401L206.959 70.9834C204.791 65.5579 202.187 60.3395 199.158 55.3334C196.13 50.3274 192.714 45.6046 188.912 41.1597C185.11 36.7147 180.97 32.6075 176.492 28.838C172.02 25.0685 167.265 21.6912 162.231 18.7007L160.771 21.1519C180.414 32.82 195.874 50.8994 204.311 72.0401Z" fill="#26FFBE"/>
<path d="M135.016 213.652L134.286 210.896C125.565 213.189 116.697 214.333 107.677 214.328C93.7262 214.328 80.1898 211.615 67.4378 206.266L66.332 208.891C79.4381 214.387 93.3449 217.176 107.677 217.176C116.942 217.182 126.056 216.005 135.016 213.652Z" fill="#26FFBE"/>
<path d="M190.077 173.822L192.338 175.559C195.917 170.935 199.092 166.043 201.86 160.89C204.632 155.737 206.958 150.393 208.843 144.853C210.728 139.319 212.149 133.665 213.097 127.896C214.05 122.127 214.519 116.315 214.514 110.47H211.659C211.659 133.621 204.196 155.53 190.077 173.822Z" fill="#26FFBE"/>
<path d="M57.7688 201.036C57.1424 201.036 56.5377 201.156 55.9549 201.401C55.3775 201.641 54.8654 201.979 54.4188 202.425C53.9775 202.866 53.6344 203.378 53.3947 203.961C53.155 204.539 53.0352 205.143 53.0352 205.77C53.0352 206.396 53.155 207.001 53.3947 207.578C53.6344 208.161 53.9775 208.668 54.4188 209.114C54.8654 209.556 55.3775 209.899 55.9549 210.138C56.5377 210.378 57.1424 210.498 57.7688 210.498C58.3952 210.498 58.9999 210.378 59.5827 210.138C60.1602 209.899 60.6722 209.556 61.1189 209.114C61.5655 208.668 61.9033 208.161 62.143 207.578C62.3881 207.001 62.5079 206.396 62.5079 205.77C62.5079 205.143 62.3826 204.539 62.143 203.961C61.9033 203.378 61.5601 202.866 61.1189 202.425C60.6722 201.984 60.1602 201.641 59.5827 201.401C58.9999 201.161 58.3952 201.042 57.7688 201.036ZM57.7688 209.202C57.3112 209.202 56.8755 209.114 56.456 208.94C56.0311 208.766 55.6607 208.521 55.3393 208.199C55.018 207.878 54.7674 207.502 54.5931 207.083C54.4188 206.663 54.3316 206.222 54.3316 205.77C54.3316 205.312 54.4188 204.876 54.5931 204.457C54.7674 204.032 55.018 203.662 55.3393 203.34C55.6607 203.019 56.0311 202.768 56.456 202.594C56.8755 202.42 57.3112 202.333 57.7688 202.333C58.2264 202.333 58.6622 202.42 59.087 202.594C59.5065 202.768 59.8769 203.019 60.2037 203.34C60.5251 203.662 60.7702 204.032 60.9446 204.457C61.1189 204.876 61.2115 205.312 61.2115 205.77C61.206 206.222 61.1189 206.663 60.9446 207.083C60.7702 207.502 60.5251 207.872 60.1983 208.199C59.8769 208.521 59.5065 208.766 59.087 208.94C58.6622 209.114 58.2264 209.202 57.7688 209.202Z" fill="#26FFBE"/>
<path d="M186.084 178.55C185.458 178.55 184.853 178.67 184.27 178.909C183.693 179.149 183.181 179.492 182.734 179.939C182.293 180.38 181.95 180.892 181.71 181.47C181.47 182.052 181.351 182.652 181.351 183.283C181.351 183.91 181.47 184.515 181.71 185.092C181.95 185.669 182.293 186.181 182.734 186.628C183.181 187.069 183.693 187.412 184.276 187.652C184.853 187.892 185.458 188.012 186.084 188.012C186.716 188.012 187.315 187.892 187.898 187.652C188.476 187.412 188.988 187.069 189.434 186.628C189.881 186.181 190.219 185.669 190.458 185.092C190.704 184.515 190.823 183.91 190.823 183.283C190.823 182.652 190.698 182.052 190.458 181.47C190.219 180.892 189.876 180.38 189.434 179.939C188.988 179.492 188.476 179.154 187.898 178.915C187.315 178.67 186.711 178.55 186.084 178.55ZM186.084 186.715C185.627 186.715 185.191 186.628 184.771 186.454C184.347 186.279 183.976 186.034 183.655 185.707C183.333 185.386 183.083 185.016 182.908 184.596C182.734 184.177 182.647 183.736 182.647 183.283C182.647 182.826 182.734 182.39 182.908 181.965C183.083 181.546 183.333 181.175 183.655 180.854C183.976 180.533 184.347 180.282 184.771 180.108C185.191 179.933 185.627 179.846 186.084 179.846C186.542 179.846 186.978 179.933 187.402 180.108C187.822 180.282 188.192 180.533 188.519 180.854C188.841 181.175 189.086 181.546 189.26 181.965C189.44 182.39 189.527 182.826 189.527 183.283C189.521 183.736 189.434 184.177 189.26 184.596C189.086 185.016 188.841 185.386 188.514 185.707C188.192 186.029 187.822 186.279 187.402 186.454C186.978 186.628 186.542 186.715 186.084 186.715Z" fill="#26FFBE"/>
<mask id="mask0_2028_687" style="mask-type:luminance" maskUnits="userSpaceOnUse" x="102" y="0" width="12" height="11">
<path d="M102.333 0H113.489V10.6821H102.333V0Z" fill="white"/>
</mask>
<g mask="url(#mask0_2028_687)">
<path d="M107.677 9.48909C108.309 9.48909 108.913 9.36925 109.491 9.12957C110.074 8.8899 110.586 8.54672 111.027 8.10549C111.474 7.65882 111.817 7.14678 112.056 6.56937C112.296 5.98651 112.416 5.38731 112.416 4.75543C112.416 4.129 112.296 3.52436 112.056 2.94695C111.817 2.36954 111.474 1.8575 111.027 1.41082C110.586 0.969596 110.074 0.626418 109.491 0.38674C108.913 0.14706 108.309 0.0272217 107.677 0.0272217C107.05 0.0272217 106.446 0.14706 105.868 0.38674C105.286 0.626418 104.774 0.969596 104.332 1.41082C103.886 1.8575 103.542 2.36954 103.303 2.94695C103.063 3.52436 102.943 4.129 102.943 4.75543C102.943 5.38731 103.063 5.98651 103.303 6.56937C103.548 7.14678 103.886 7.65882 104.332 8.10004C104.774 8.54672 105.286 8.88445 105.868 9.12957C106.446 9.36925 107.05 9.48909 107.677 9.48909ZM107.677 1.32367C108.134 1.32367 108.576 1.41082 108.995 1.58513C109.415 1.75945 109.79 2.00457 110.112 2.33141C110.433 2.6528 110.684 3.02321 110.858 3.44265C111.032 3.86208 111.12 4.30331 111.12 4.75543C111.12 5.213 111.032 5.64878 110.858 6.07367C110.684 6.49311 110.433 6.86352 110.112 7.18491C109.79 7.50629 109.415 7.75687 108.995 7.93118C108.576 8.10549 108.134 8.19265 107.677 8.19265C107.225 8.19265 106.784 8.10549 106.364 7.93118C105.945 7.75687 105.569 7.50629 105.247 7.18491C104.926 6.86352 104.675 6.49311 104.501 6.07367C104.327 5.64878 104.24 5.213 104.24 4.75543C104.24 4.30331 104.327 3.86208 104.501 3.44265C104.675 3.02321 104.926 2.6528 105.247 2.33141C105.569 2.01002 105.945 1.75945 106.364 1.58513C106.784 1.41082 107.225 1.32367 107.677 1.32367Z" fill="#26FFBE"/>
</g>
</svg>
