<svg width="111" height="111" viewBox="0 0 111 111" fill="none" xmlns="http://www.w3.org/2000/svg">
<path d="M14.0001 23.4623L11.7395 21.7246C11.5216 22.0079 11.3091 22.2911 11.0967 22.5798L13.39 24.2739C13.5861 24.0016 13.7931 23.7292 14.0001 23.4623Z" fill="#26FFBE"/>
<path d="M10.5735 28.4848L8.12773 27.0195C7.94253 27.3191 7.76277 27.6296 7.58301 27.9401L10.0561 29.3564C10.2249 29.0677 10.3992 28.7735 10.5735 28.4848Z" fill="#26FFBE"/>
<path d="M12.7906 25.0909L10.4646 23.4404C10.2576 23.7291 10.0506 24.0287 9.85449 24.3174L12.2132 25.9298C12.4038 25.6466 12.5945 25.3688 12.7906 25.0909Z" fill="#26FFBE"/>
<path d="M9.56059 30.2492L7.06031 28.8765C6.88599 29.187 6.71168 29.5029 6.55371 29.8188L9.08123 31.1425C9.2392 30.8375 9.39717 30.5379 9.56059 30.2492Z" fill="#26FFBE"/>
<path d="M15.2691 21.8824L13.0739 20.0576C12.8506 20.33 12.6218 20.6078 12.3984 20.8856L14.6264 22.6668C14.8334 22.4054 15.0512 22.1439 15.2691 21.8824Z" fill="#26FFBE"/>
<path d="M11.6469 26.7689L9.261 25.2056C9.07035 25.5052 8.87425 25.8048 8.68359 26.1098L11.1076 27.6187C11.2819 27.3354 11.4671 27.0522 11.6469 26.7689Z" fill="#26FFBE"/>
<path d="M3.18164 37.6742L5.88348 38.5894C5.99242 38.2734 6.10681 37.9466 6.22121 37.6307L3.54116 36.6665C3.41587 36.9988 3.29603 37.3365 3.18164 37.6742Z" fill="#26FFBE"/>
<path d="M0.512695 50.1755L3.35071 50.4424C3.38339 50.1101 3.42153 49.7724 3.45966 49.4347L0.62164 49.1133C0.578062 49.4619 0.539931 49.8214 0.512695 50.1755Z" fill="#26FFBE"/>
<path d="M0.752441 48.0508L3.57956 48.4321C3.62314 48.0999 3.67217 47.7621 3.72119 47.4298L0.899517 46.9995C0.845045 47.3481 0.796019 47.7022 0.752441 48.0508Z" fill="#26FFBE"/>
<path d="M9.08655 79.8085C8.92858 79.5143 8.77605 79.2093 8.62898 78.9097L6.07422 80.1843C6.23219 80.5003 6.39561 80.8162 6.55902 81.1321L9.08655 79.8085Z" fill="#26FFBE"/>
<path d="M1.07373 45.9433L3.88451 46.4336C3.94443 46.1013 4.00435 45.7636 4.06972 45.4367L1.26438 44.8975C1.20446 45.2406 1.13365 45.5947 1.07373 45.9433Z" fill="#26FFBE"/>
<path d="M16.5927 20.3518L14.4738 18.4453C14.2395 18.7068 13.9999 18.9791 13.7656 19.2461L15.9282 21.1145C16.1406 20.8584 16.3694 20.6024 16.5927 20.3518Z" fill="#26FFBE"/>
<path d="M1.48242 43.8515L4.27141 44.4453C4.34223 44.113 4.41304 43.7862 4.4893 43.4593L1.71121 42.8057C1.63495 43.1543 1.55324 43.5029 1.48242 43.8515Z" fill="#26FFBE"/>
<path d="M2.5332 39.7115L5.26772 40.5231C5.36033 40.2018 5.46382 39.8804 5.56187 39.559L2.8437 38.6929C2.7402 39.0306 2.63125 39.3738 2.5332 39.7115Z" fill="#26FFBE"/>
<path d="M1.9668 41.7703L4.734 42.4729C4.82116 42.1516 4.90831 41.8193 4.99002 41.4979L2.23916 40.7407C2.14656 41.0785 2.05395 41.4271 1.9668 41.7703Z" fill="#26FFBE"/>
<path d="M5.89984 72.3948C5.7909 72.0788 5.6874 71.7574 5.5839 71.436L2.86572 72.2967C2.97467 72.6344 3.08361 72.9776 3.198 73.3153L5.89984 72.3948Z" fill="#26FFBE"/>
<path d="M3.19831 58.5317C3.17652 58.194 3.16018 57.8508 3.14928 57.5186L0.294922 57.6275C0.311263 57.9816 0.327605 58.3411 0.349394 58.6952L3.19831 58.5317Z" fill="#26FFBE"/>
<path d="M3.89525 64.5564C3.83533 64.2296 3.78086 63.8919 3.73183 63.5596L0.910156 63.9899C0.964628 64.3385 1.02455 64.698 1.08447 65.0467L3.89525 64.5564Z" fill="#26FFBE"/>
<path d="M3.58481 62.557C3.54123 62.2247 3.49765 61.887 3.45952 61.5547L0.626953 61.8815C0.665083 62.2301 0.708661 62.5897 0.757687 62.9383L3.58481 62.557Z" fill="#26FFBE"/>
<path d="M0.26773 56.5652L3.12209 56.5107C3.11664 56.173 3.11119 55.8353 3.11119 55.4976H0.256836C0.256836 55.8516 0.262284 56.2111 0.26773 56.5652Z" fill="#26FFBE"/>
<path d="M3.35054 60.5473C3.31786 60.215 3.29062 59.8773 3.26339 59.5396L0.419922 59.7574C0.447158 60.1115 0.479841 60.4656 0.512525 60.8197L3.35054 60.5473Z" fill="#26FFBE"/>
<path d="M20.9121 16.0811L19.0219 13.9458C18.7549 14.18 18.488 14.4197 18.2266 14.6594L20.1549 16.7566C20.4055 16.5332 20.656 16.3045 20.9121 16.0811Z" fill="#26FFBE"/>
<path d="M17.9769 18.8759L15.9342 16.8877C15.6836 17.1437 15.4385 17.4052 15.1934 17.6612L17.2797 19.6059C17.5084 19.3662 17.7427 19.1156 17.9769 18.8759Z" fill="#26FFBE"/>
<path d="M3.26348 51.4502L0.414564 51.2378C0.387328 51.5864 0.365539 51.9459 0.34375 52.3L3.19266 52.4634C3.21445 52.1257 3.23624 51.7825 3.26348 51.4502Z" fill="#26FFBE"/>
<path d="M0.267578 54.4299L3.11649 54.4844C3.12738 54.1466 3.13283 53.8089 3.14917 53.4712L0.294814 53.3677C0.283919 53.7217 0.273025 54.0758 0.267578 54.4299Z" fill="#26FFBE"/>
<path d="M6.06319 30.7671C5.90522 31.083 5.74725 31.4044 5.59473 31.7258L8.17672 32.9514C8.31835 32.6464 8.47087 32.3413 8.61795 32.0363L6.06319 30.7671Z" fill="#26FFBE"/>
<path d="M16.6802 16.1305L18.6902 18.1569C18.9299 17.9172 19.175 17.6829 19.4147 17.4487L17.4482 15.3896C17.1922 15.6293 16.9362 15.8799 16.6802 16.1305Z" fill="#26FFBE"/>
<path d="M7.74603 33.8773L5.14769 32.7007C5.00062 33.0275 4.85354 33.3544 4.71191 33.6812L7.33749 34.8033C7.46822 34.4928 7.60985 34.1769 7.74603 33.8773Z" fill="#26FFBE"/>
<path d="M8.1824 78.0055C8.04077 77.7004 7.89915 77.3954 7.75752 77.0903L5.15918 78.2615C5.30626 78.5883 5.45333 78.9097 5.60585 79.2311L8.1824 78.0055Z" fill="#26FFBE"/>
<path d="M3.91162 35.6589L6.57533 36.683C6.69516 36.367 6.82045 36.0511 6.94574 35.7351L4.30382 34.6675C4.16764 34.9998 4.03691 35.332 3.91162 35.6589Z" fill="#26FFBE"/>
<path d="M7.35451 76.1643C7.21832 75.8593 7.09304 75.5488 6.9623 75.2383L4.31494 76.3114C4.45112 76.6382 4.5873 76.9651 4.72349 77.2919L7.35451 76.1643Z" fill="#26FFBE"/>
<path d="M5.28453 70.4668C5.19193 70.1454 5.09388 69.8185 5.00672 69.4917L2.25586 70.2543C2.34846 70.5975 2.44651 70.9407 2.55001 71.2784L5.28453 70.4668Z" fill="#26FFBE"/>
<path d="M6.59173 74.296C6.4719 73.9855 6.35206 73.6641 6.23766 73.3481L3.55762 74.3178C3.67746 74.65 3.80274 74.9878 3.92803 75.3146L6.59173 74.296Z" fill="#26FFBE"/>
<path d="M4.75076 68.5167C4.66361 68.1899 4.5819 67.8576 4.50564 67.5308L1.72754 68.1844C1.80925 68.5276 1.8964 68.8762 1.98356 69.2194L4.75076 68.5167Z" fill="#26FFBE"/>
<path d="M10.0614 81.5787C9.89255 81.2846 9.72369 80.9904 9.56572 80.6963L7.06543 82.069C7.23429 82.3795 7.40861 82.69 7.58292 82.995L10.0614 81.5787Z" fill="#26FFBE"/>
<path d="M4.28227 66.5446C4.21146 66.2178 4.14064 65.8855 4.08072 65.5532L1.27539 66.0979C1.34621 66.4466 1.41702 66.7952 1.49328 67.1438L4.28227 66.5446Z" fill="#26FFBE"/>
<path d="M42.1674 106.228L41.4375 108.984C41.7807 109.071 42.1293 109.164 42.4725 109.246L43.1534 106.479C42.8211 106.397 42.4943 106.315 42.1674 106.228Z" fill="#26FFBE"/>
<path d="M42.1135 4.72359L41.3782 1.96729C41.035 2.05989 40.6864 2.15794 40.3486 2.25599L41.133 4.99596C41.4599 4.90335 41.7867 4.81075 42.1135 4.72359Z" fill="#26FFBE"/>
<path d="M41.1923 105.956C40.8654 105.863 40.5386 105.77 40.2227 105.672L39.3838 108.396C39.7215 108.499 40.0647 108.603 40.4079 108.701L41.1923 105.956Z" fill="#26FFBE"/>
<path d="M43.4535 1.46094C43.1049 1.5372 42.7617 1.61891 42.4131 1.70606L43.094 4.47327C43.4208 4.39156 43.7531 4.3153 44.0799 4.23903L43.4535 1.46094Z" fill="#26FFBE"/>
<path d="M38.2402 5.91653L37.2923 3.22559C36.96 3.34543 36.6223 3.46526 36.29 3.59055L37.2869 6.2597C37.6083 6.14531 37.9242 6.02547 38.2402 5.91653Z" fill="#26FFBE"/>
<path d="M37.3306 104.692C37.0147 104.572 36.6987 104.452 36.3828 104.327L35.3369 106.979C35.6637 107.11 36.0015 107.235 36.3338 107.361L37.3306 104.692Z" fill="#26FFBE"/>
<path d="M44.1342 106.707L43.5132 109.491C43.8564 109.567 44.205 109.643 44.5591 109.714L45.1256 106.919C44.7987 106.854 44.461 106.778 44.1342 106.707Z" fill="#26FFBE"/>
<path d="M39.2478 105.362C38.9264 105.258 38.605 105.149 38.2891 105.035L37.3467 107.72C37.6844 107.84 38.0221 107.954 38.3599 108.069L39.2478 105.362Z" fill="#26FFBE"/>
<path d="M39.199 5.58971C39.5204 5.48621 39.8418 5.38271 40.1632 5.28466L39.3243 2.56104C38.9866 2.66453 38.6434 2.77348 38.3057 2.88242L39.199 5.58971Z" fill="#26FFBE"/>
<path d="M46.1225 107.11L45.5996 109.916C45.9482 109.981 46.3078 110.041 46.6564 110.095L47.1139 107.285C46.7871 107.23 46.4548 107.17 46.1225 107.11Z" fill="#26FFBE"/>
<path d="M52.1526 107.862L51.9619 110.705C52.316 110.727 52.6755 110.749 53.0296 110.765L53.1603 107.916C52.828 107.9 52.4848 107.884 52.1526 107.862Z" fill="#26FFBE"/>
<path d="M50.1316 107.688L49.832 110.52C50.1861 110.558 50.5456 110.591 50.8942 110.624L51.1394 107.786C50.8071 107.753 50.4694 107.72 50.1316 107.688Z" fill="#26FFBE"/>
<path d="M51.9021 0.235352C51.5481 0.257141 51.1885 0.284376 50.8345 0.322508L51.0796 3.16052C51.4173 3.13329 51.7551 3.10605 52.0928 3.08426L51.9021 0.235352Z" fill="#26FFBE"/>
<path d="M54.0374 0.131348C53.6833 0.142241 53.3238 0.158584 52.9697 0.174926L53.1059 3.02384C53.4436 3.00749 53.7814 2.9966 54.1191 2.98571L54.0374 0.131348Z" fill="#26FFBE"/>
<path d="M47.653 0.687012C47.2989 0.736037 46.9448 0.790509 46.5962 0.850429L47.0592 3.66121C47.3915 3.60674 47.7292 3.55226 48.0615 3.50324L47.653 0.687012Z" fill="#26FFBE"/>
<path d="M11.1017 83.3109C10.922 83.0277 10.7422 82.7335 10.5733 82.4448L8.12207 83.9156C8.30728 84.2152 8.49248 84.5202 8.68314 84.8198L11.1017 83.3109Z" fill="#26FFBE"/>
<path d="M36.3449 6.62449L35.2936 3.97168C34.9667 4.10241 34.6345 4.23859 34.3076 4.37478L35.408 7.0058C35.7185 6.87506 36.0344 6.74978 36.3449 6.62449Z" fill="#26FFBE"/>
<path d="M45.5455 1.03027C45.1968 1.09564 44.8428 1.16646 44.4941 1.23727L45.0715 4.02626C45.3984 3.96089 45.7361 3.89553 46.0629 3.83561L45.5455 1.03027Z" fill="#26FFBE"/>
<path d="M48.1214 107.437L47.7129 110.259C48.0615 110.308 48.421 110.357 48.7751 110.4L49.1237 107.573C48.7914 107.53 48.4537 107.486 48.1214 107.437Z" fill="#26FFBE"/>
<path d="M49.7722 0.42041C49.4181 0.458541 49.064 0.496672 48.71 0.54025L49.064 3.37282C49.4018 3.32924 49.7395 3.29111 50.0718 3.25298L49.7722 0.42041Z" fill="#26FFBE"/>
<path d="M22.3125 99.6744C22.5958 99.8869 22.8845 100.099 23.1732 100.306L24.8455 98.0021C24.5731 97.8006 24.3007 97.599 24.0338 97.3975L22.3125 99.6744Z" fill="#26FFBE"/>
<path d="M19.001 96.9727C19.2679 97.207 19.5403 97.4412 19.8126 97.67L21.6592 95.4965C21.3978 95.2786 21.1417 95.0553 20.8912 94.8374L19.001 96.9727Z" fill="#26FFBE"/>
<path d="M18.6684 92.762C18.4342 92.5278 18.1945 92.2826 17.9603 92.043L15.9121 94.0312C16.1572 94.2872 16.4133 94.5378 16.6638 94.7884L18.6684 92.762Z" fill="#26FFBE"/>
<path d="M20.6289 98.3566C20.9067 98.5799 21.1845 98.8033 21.4623 99.0212L23.2272 96.7823C22.9603 96.5754 22.6989 96.3629 22.4374 96.145L20.6289 98.3566Z" fill="#26FFBE"/>
<path d="M17.4316 95.5293C17.6877 95.7744 17.9491 96.0195 18.2051 96.2592L20.1389 94.162C19.8938 93.9332 19.6432 93.699 19.3981 93.4702L17.4316 95.5293Z" fill="#26FFBE"/>
<path d="M12.2078 84.9995C12.0171 84.7217 11.8319 84.4439 11.6467 84.1606L9.25537 85.7186C9.45147 86.0182 9.64757 86.3123 9.84912 86.6065L12.2078 84.9995Z" fill="#26FFBE"/>
<path d="M54.1734 107.955L54.0972 110.804C54.4512 110.814 54.8053 110.82 55.1648 110.825L55.1866 107.976C54.8543 107.971 54.5112 107.965 54.1734 107.955Z" fill="#26FFBE"/>
<path d="M14.6097 88.2518C14.4027 87.9904 14.1903 87.7235 13.9887 87.4565L11.7227 89.1942C11.9405 89.472 12.1639 89.7553 12.3818 90.0331L14.6097 88.2518Z" fill="#26FFBE"/>
<path d="M17.2629 91.3132C17.0341 91.068 16.7999 90.8175 16.5766 90.5669L14.4521 92.4734C14.6918 92.7349 14.937 93.0018 15.1766 93.2578L17.2629 91.3132Z" fill="#26FFBE"/>
<path d="M23.1841 10.6175L24.8618 12.9271C25.1287 12.7256 25.4066 12.5295 25.6844 12.3388L24.0556 10.002C23.7615 10.2035 23.4728 10.4105 23.1841 10.6175Z" fill="#26FFBE"/>
<path d="M29.9715 101.281C29.6773 101.113 29.3777 100.944 29.089 100.775L27.6455 103.232C27.9506 103.411 28.261 103.591 28.5715 103.765L29.9715 101.281Z" fill="#26FFBE"/>
<path d="M27.3619 99.7129L25.8203 102.115C26.1199 102.306 26.425 102.496 26.7246 102.682L28.2171 100.252C27.9338 100.078 27.6451 99.8981 27.3619 99.7129Z" fill="#26FFBE"/>
<path d="M31.7585 102.241C31.4589 102.088 31.1539 101.925 30.8597 101.767L29.5088 104.278C29.8247 104.447 30.1407 104.616 30.4621 104.773L31.7585 102.241Z" fill="#26FFBE"/>
<path d="M33.583 103.128C33.278 102.986 32.9675 102.839 32.6679 102.698L31.415 105.258C31.7364 105.41 32.0578 105.568 32.3846 105.716L33.583 103.128Z" fill="#26FFBE"/>
<path d="M34.4818 7.40367L33.327 4.79443C33.0056 4.93606 32.6788 5.08314 32.3574 5.23566L33.5613 7.81766C33.8663 7.67603 34.1714 7.53985 34.4818 7.40367Z" fill="#26FFBE"/>
<path d="M26.5125 99.1568C26.2293 98.9716 25.9515 98.781 25.6736 98.5903L24.0449 100.927C24.3336 101.129 24.6332 101.33 24.9274 101.532L26.5125 99.1568Z" fill="#26FFBE"/>
<path d="M19.8281 13.2488L21.6747 15.4222C21.9362 15.2043 22.1922 14.9919 22.4537 14.774L20.6507 12.5679C20.3728 12.7912 20.1005 13.02 19.8281 13.2488Z" fill="#26FFBE"/>
<path d="M21.4844 11.8977L23.2438 14.1474C23.5053 13.9404 23.7777 13.7279 24.0446 13.5318L22.3287 11.2549C22.04 11.4619 21.7622 11.6798 21.4844 11.8977Z" fill="#26FFBE"/>
<path d="M13.3793 86.6502C13.1777 86.3778 12.9762 86.1 12.7855 85.8276L10.4541 87.4782C10.6611 87.7669 10.8681 88.0556 11.0805 88.3443L13.3793 86.6502Z" fill="#26FFBE"/>
<path d="M107.42 35.5876C107.295 35.2608 107.164 34.923 107.028 34.5962L104.386 35.6747C104.512 35.9852 104.637 36.3012 104.757 36.6117L107.42 35.5876Z" fill="#26FFBE"/>
<path d="M106.62 33.6162C106.478 33.2948 106.336 32.9679 106.184 32.6411L103.585 33.8177C103.722 34.1228 103.863 34.4333 103.994 34.7438L106.62 33.6162Z" fill="#26FFBE"/>
<path d="M108.15 37.5976C108.036 37.2599 107.916 36.9221 107.796 36.5898L105.116 37.5595C105.231 37.8754 105.345 38.1968 105.448 38.5127L108.15 37.5976Z" fill="#26FFBE"/>
<path d="M108.798 39.6295C108.7 39.2863 108.591 38.9431 108.488 38.6108L105.77 39.4715C105.868 39.7929 105.971 40.1197 106.064 40.4411L108.798 39.6295Z" fill="#26FFBE"/>
<path d="M103.76 27.9127C103.585 27.6077 103.4 27.3026 103.215 26.9976L100.769 28.4629C100.943 28.7516 101.118 29.0457 101.281 29.3344L103.76 27.9127Z" fill="#26FFBE"/>
<path d="M102.66 26.0878C102.474 25.7882 102.278 25.4886 102.088 25.189L99.7017 26.7523C99.8814 27.0301 100.067 27.3188 100.246 27.6021L102.66 26.0878Z" fill="#26FFBE"/>
<path d="M105.738 31.6819C105.585 31.3605 105.432 31.0391 105.269 30.7231L102.72 31.9978C102.872 32.2974 103.019 32.6024 103.161 32.9075L105.738 31.6819Z" fill="#26FFBE"/>
<path d="M84.8254 11.7615L86.4105 9.39194C86.1109 9.19584 85.8113 8.99974 85.5117 8.80908L83.9756 11.2113C84.2588 11.3856 84.5421 11.5763 84.8254 11.7615Z" fill="#26FFBE"/>
<path d="M104.784 29.7758C104.62 29.4653 104.451 29.1494 104.283 28.8389L101.782 30.2116C101.94 30.5057 102.104 30.8053 102.256 31.1049L104.784 29.7758Z" fill="#26FFBE"/>
<path d="M85.5062 102.137L83.97 99.7344C83.6868 99.9141 83.3981 100.094 83.1094 100.268L84.6019 102.698C84.907 102.512 85.2066 102.327 85.5062 102.137Z" fill="#26FFBE"/>
<path d="M75.9243 103.94L77.0247 106.571C77.3515 106.434 77.6783 106.293 78.0052 106.151L76.8503 103.542C76.5453 103.678 76.2348 103.814 75.9243 103.94Z" fill="#26FFBE"/>
<path d="M74.0449 104.686L75.0418 107.355C75.3741 107.23 75.7118 107.105 76.0386 106.974L74.9873 104.321C74.6768 104.447 74.3554 104.566 74.0449 104.686Z" fill="#26FFBE"/>
<path d="M74.9492 6.59763C75.2597 6.72292 75.5757 6.84821 75.8916 6.97894L76.9865 4.34792C76.6597 4.21174 76.3219 4.07556 75.9951 3.94482L74.9492 6.59763Z" fill="#26FFBE"/>
<path d="M87.2821 100.955L85.6533 98.6123C85.3755 98.803 85.0923 98.9936 84.8145 99.1788L86.3996 101.554C86.6938 101.358 86.9879 101.156 87.2821 100.955Z" fill="#26FFBE"/>
<path d="M81.3662 101.293L82.7662 103.777C83.0712 103.602 83.3871 103.428 83.6867 103.248L82.2432 100.792C81.9545 100.96 81.6604 101.129 81.3662 101.293Z" fill="#26FFBE"/>
<path d="M77.771 103.128L78.9748 105.716C79.2962 105.563 79.6176 105.41 79.9336 105.258L78.6807 102.698C78.3865 102.839 78.076 102.986 77.771 103.128Z" fill="#26FFBE"/>
<path d="M101.494 24.3067C101.292 24.0125 101.091 23.7184 100.889 23.4297L98.563 25.0857C98.7591 25.358 98.9497 25.6358 99.1404 25.9136L101.494 24.3067Z" fill="#26FFBE"/>
<path d="M79.5903 102.246L80.8868 104.784C81.1973 104.621 81.5187 104.457 81.8292 104.289L80.4782 101.777C80.1841 101.935 79.8845 102.093 79.5903 102.246Z" fill="#26FFBE"/>
<path d="M103.171 78.0109L105.748 79.2365C105.9 78.9152 106.053 78.5883 106.2 78.2669L103.602 77.0903C103.46 77.3954 103.318 77.7059 103.171 78.0109Z" fill="#26FFBE"/>
<path d="M99.1299 85.0322L101.489 86.6392C101.685 86.3505 101.886 86.0509 102.082 85.7513L99.6909 84.1934C99.5112 84.4712 99.3205 84.7544 99.1299 85.0322Z" fill="#26FFBE"/>
<path d="M97.9531 86.6833L100.246 88.3828C100.459 88.0941 100.671 87.8054 100.873 87.5167L98.5523 85.8662C98.3562 86.1386 98.1547 86.4164 97.9531 86.6833Z" fill="#26FFBE"/>
<path d="M96.7163 88.2899L98.9442 90.0712C99.1621 89.7934 99.3855 89.5101 99.6034 89.2323L97.3427 87.4946C97.1357 87.7615 96.9233 88.0285 96.7163 88.2899Z" fill="#26FFBE"/>
<path d="M95.4199 89.8423L97.5716 91.7107C97.8058 91.4438 98.04 91.1714 98.2634 90.899L96.0736 89.0742C95.8612 89.3302 95.6378 89.5917 95.4199 89.8423Z" fill="#26FFBE"/>
<path d="M100.241 83.3383L102.665 84.8526C102.85 84.553 103.041 84.248 103.221 83.9429L100.775 82.4722C100.601 82.7609 100.421 83.055 100.241 83.3383Z" fill="#26FFBE"/>
<path d="M107.045 76.3006L104.397 75.2275C104.272 75.538 104.141 75.854 104.011 76.159L106.631 77.2866C106.772 76.9598 106.909 76.6275 107.045 76.3006Z" fill="#26FFBE"/>
<path d="M101.287 81.6007L103.76 83.0224C103.934 82.712 104.108 82.396 104.283 82.091L101.782 80.7183C101.624 81.0124 101.455 81.3066 101.287 81.6007Z" fill="#26FFBE"/>
<path d="M100.257 22.569C100.05 22.2858 99.8324 21.997 99.6145 21.7192L97.3594 23.4569C97.5609 23.7238 97.7679 23.9962 97.964 24.2631L100.257 22.569Z" fill="#26FFBE"/>
<path d="M102.262 79.8251L104.789 81.1487C104.958 80.8328 105.122 80.5169 105.279 80.2009L102.725 78.9263C102.578 79.2204 102.42 79.5255 102.262 79.8251Z" fill="#26FFBE"/>
<path d="M89.0086 99.7018L87.2927 97.4248C87.0203 97.6264 86.7479 97.8333 86.4756 98.0294L88.1479 100.339C88.4366 100.127 88.7253 99.9142 89.0086 99.7018Z" fill="#26FFBE"/>
<path d="M94.6789 16.1306C94.4283 15.88 94.1668 15.6294 93.9108 15.3843L91.9443 17.4488C92.1895 17.683 92.4291 17.9172 92.6688 18.1569L94.6789 16.1306Z" fill="#26FFBE"/>
<path d="M96.1605 17.6612C95.9208 17.3997 95.6702 17.1383 95.4251 16.8877L93.377 18.8759C93.6112 19.1156 93.8509 19.3607 94.0796 19.6059L96.1605 17.6612Z" fill="#26FFBE"/>
<path d="M97.5937 19.2406C97.3595 18.9737 97.1198 18.7068 96.8856 18.4453L94.7666 20.3518C94.9899 20.6024 95.2133 20.8584 95.4366 21.109L97.5937 19.2406Z" fill="#26FFBE"/>
<path d="M89.8694 11.8978C89.5916 11.6745 89.3083 11.4566 89.025 11.2441L87.3037 13.5211C87.5706 13.7226 87.843 13.9296 88.1099 14.1366L89.8694 11.8978Z" fill="#26FFBE"/>
<path d="M98.9551 20.8802C98.7372 20.6023 98.5084 20.3245 98.2796 20.0576L96.0898 21.877C96.3023 22.1385 96.5202 22.3999 96.7272 22.6614L98.9551 20.8802Z" fill="#26FFBE"/>
<path d="M85.6641 12.3335C85.9419 12.5242 86.2197 12.7203 86.492 12.9164L88.1643 10.6122C87.8756 10.3998 87.5815 10.1928 87.2928 9.99121L85.6641 12.3335Z" fill="#26FFBE"/>
<path d="M91.525 13.2434C91.2526 13.0146 90.9803 12.7858 90.7025 12.5625L88.8994 14.7686C89.1609 14.9811 89.4169 15.2044 89.6784 15.4169L91.525 13.2434Z" fill="#26FFBE"/>
<path d="M93.1268 14.6594C92.8708 14.4197 92.5984 14.1746 92.337 13.9458L90.4468 16.0811C90.6974 16.3045 90.9534 16.5332 91.1985 16.762L93.1268 14.6594Z" fill="#26FFBE"/>
<path d="M95.4092 94.0693L93.3611 92.0811C93.1268 92.3207 92.8871 92.5659 92.6475 92.8001L94.652 94.8265C94.9081 94.5759 95.1586 94.3199 95.4092 94.0693Z" fill="#26FFBE"/>
<path d="M90.6866 98.3893L88.8836 96.1777C88.6276 96.3902 88.3552 96.6026 88.0938 96.8096L89.8532 99.0593C90.131 98.836 90.4143 98.6127 90.6866 98.3893Z" fill="#26FFBE"/>
<path d="M60.4922 110.624C60.8463 110.591 61.2058 110.558 61.5599 110.52L61.2603 107.682C60.9225 107.72 60.5848 107.753 60.2471 107.78L60.4922 110.624Z" fill="#26FFBE"/>
<path d="M71.1688 105.661C70.8474 105.759 70.5206 105.857 70.1992 105.95L70.9836 108.69C71.3214 108.592 71.67 108.488 72.0077 108.385L71.1688 105.661Z" fill="#26FFBE"/>
<path d="M63.6135 0.670898L63.2104 3.49257C63.5427 3.5416 63.8805 3.59062 64.2127 3.6451L64.6703 0.834316C64.3217 0.774397 63.9676 0.719923 63.6135 0.670898Z" fill="#26FFBE"/>
<path d="M61.4943 0.40918L61.2002 3.24175C61.5325 3.27988 61.8757 3.31801 62.2025 3.35614L62.5566 0.529019C62.2025 0.485441 61.8484 0.447309 61.4943 0.40918Z" fill="#26FFBE"/>
<path d="M56.2269 110.825C56.581 110.825 56.9405 110.814 57.2946 110.804L57.2074 107.955C56.8752 107.965 56.532 107.971 56.1997 107.976L56.2269 110.825Z" fill="#26FFBE"/>
<path d="M57.235 0.131348L57.1587 2.98026C57.4964 2.99115 57.8341 3.00205 58.1719 3.01839L58.3026 0.164031C57.9485 0.153136 57.589 0.142241 57.235 0.131348Z" fill="#26FFBE"/>
<path d="M58.3627 110.765C58.7114 110.749 59.0709 110.727 59.425 110.7L59.2343 107.856C58.902 107.878 58.5588 107.9 58.2266 107.916L58.3627 110.765Z" fill="#26FFBE"/>
<path d="M59.3649 0.229492L59.1797 3.07296C59.5174 3.09475 59.8551 3.12198 60.1929 3.14922L60.4326 0.311201C60.0785 0.278518 59.719 0.251283 59.3649 0.229492Z" fill="#26FFBE"/>
<path d="M64.7306 110.09C65.0792 110.035 65.4387 109.975 65.7874 109.91L65.2644 107.104C64.9376 107.164 64.5999 107.224 64.2676 107.279L64.7306 110.09Z" fill="#26FFBE"/>
<path d="M65.7216 1.01416L65.2041 3.81949C65.5364 3.87941 65.8687 3.94478 66.2009 4.01015L66.7675 1.21571C66.4243 1.14489 66.0757 1.07953 65.7216 1.01416Z" fill="#26FFBE"/>
<path d="M69.894 1.94531L69.1641 4.70162C69.4855 4.78878 69.8177 4.87593 70.1391 4.96854L70.9235 2.22857C70.5803 2.13052 70.2372 2.03792 69.894 1.94531Z" fill="#26FFBE"/>
<path d="M26.7305 8.25379L28.223 10.6833C28.5117 10.5089 28.8004 10.3292 29.0891 10.1603L27.6456 7.70361C27.3406 7.88337 27.0355 8.06858 26.7305 8.25379Z" fill="#26FFBE"/>
<path d="M32.6514 8.25357L31.3986 5.69336C31.0826 5.84588 30.7613 6.00385 30.4453 6.16727L31.7418 8.70569C32.0468 8.55316 32.3464 8.39519 32.6514 8.25357Z" fill="#26FFBE"/>
<path d="M30.8538 9.17427L29.5028 6.66309C29.1924 6.8265 28.8764 7.00082 28.5659 7.17513L29.9659 9.65907C30.2546 9.49566 30.5542 9.33224 30.8538 9.17427Z" fill="#26FFBE"/>
<path d="M68.9191 109.24C69.2623 109.153 69.6109 109.066 69.9541 108.973L69.2242 106.217C68.8973 106.304 68.5705 106.391 68.2437 106.467L68.9191 109.24Z" fill="#26FFBE"/>
<path d="M66.8327 109.709C67.1813 109.638 67.53 109.561 67.8786 109.485L67.2521 106.702C66.9253 106.778 66.593 106.849 66.2607 106.914L66.8327 109.709Z" fill="#26FFBE"/>
<path d="M67.8188 1.43896L67.1924 4.22251C67.5192 4.29332 67.8515 4.36958 68.1838 4.45129L68.8592 1.68409C68.5106 1.59694 68.162 1.51523 67.8188 1.43896Z" fill="#26FFBE"/>
<path d="M62.6168 110.4C62.9708 110.357 63.3249 110.308 63.679 110.259L63.2704 107.437C62.9382 107.486 62.6004 107.53 62.2627 107.573L62.6168 110.4Z" fill="#26FFBE"/>
<path d="M71.9478 2.53369L71.1089 5.25732C71.4357 5.35537 71.7571 5.45886 72.0785 5.56236L72.9718 2.85508C72.6341 2.74613 72.2855 2.63719 71.9478 2.53369Z" fill="#26FFBE"/>
<path d="M96.8634 92.5115L94.7444 90.605C94.521 90.8556 94.2923 91.1061 94.0635 91.3513L96.1498 93.2959C96.384 93.0399 96.6291 92.773 96.8634 92.5115Z" fill="#26FFBE"/>
<path d="M105.127 73.332C105.013 73.648 104.898 73.9639 104.773 74.2799L107.437 75.2985C107.567 74.9662 107.693 74.6285 107.813 74.2962L105.127 73.332Z" fill="#26FFBE"/>
<path d="M109.109 70.227L106.358 69.4644C106.276 69.7912 106.178 70.118 106.08 70.4394L108.815 71.2511C108.918 70.9133 109.016 70.5647 109.109 70.227Z" fill="#26FFBE"/>
<path d="M91.1826 94.1947L93.1109 96.2974C93.367 96.0577 93.6339 95.8126 93.8845 95.5674L91.918 93.5029C91.6783 93.7372 91.4277 93.9659 91.1826 94.1947Z" fill="#26FFBE"/>
<path d="M92.3154 97.0108L90.4307 94.8755C90.1746 95.0988 89.9186 95.3167 89.6626 95.5346L91.5092 97.7081C91.7761 97.4793 92.0485 97.245 92.3154 97.0108Z" fill="#26FFBE"/>
<path d="M26.5178 11.7723C26.801 11.5817 27.0843 11.3964 27.3675 11.2167L25.826 8.81445C25.5318 9.00511 25.2268 9.20121 24.9326 9.39731L26.5178 11.7723Z" fill="#26FFBE"/>
<path d="M109.637 68.157L106.859 67.5088C106.783 67.8302 106.701 68.1625 106.62 68.4893L109.387 69.192C109.474 68.8488 109.561 68.5002 109.637 68.157Z" fill="#26FFBE"/>
<path d="M108.504 72.2694L105.786 71.4087C105.683 71.7301 105.574 72.0515 105.465 72.3729L108.167 73.288C108.281 72.9503 108.395 72.6125 108.504 72.2694Z" fill="#26FFBE"/>
<path d="M110.084 66.0706L107.285 65.5259C107.219 65.8582 107.154 66.1904 107.083 66.5173L109.872 67.1165C109.948 66.7679 110.019 66.4192 110.084 66.0706Z" fill="#26FFBE"/>
<path d="M78.6646 8.23167C78.9696 8.37874 79.2746 8.53127 79.5742 8.68379L80.8707 6.14537C80.5547 5.9874 80.2334 5.82399 79.9174 5.66602L78.6646 8.23167Z" fill="#26FFBE"/>
<path d="M74.0017 6.23822L74.9931 3.56362C74.6608 3.44378 74.3231 3.31849 73.9853 3.2041L73.043 5.8896C73.3644 6.00399 73.6857 6.11838 74.0017 6.23822Z" fill="#26FFBE"/>
<path d="M73.0915 105.029C72.7756 105.138 72.4542 105.247 72.1328 105.356L73.0262 108.063C73.3639 107.949 73.7016 107.835 74.0339 107.715L73.0915 105.029Z" fill="#26FFBE"/>
<path d="M76.8232 7.37632C77.1337 7.5125 77.4442 7.65413 77.7493 7.79576L78.9477 5.20832C78.6263 5.06124 78.2994 4.91417 77.9726 4.76709L76.8232 7.37632Z" fill="#26FFBE"/>
<path d="M110.454 63.9679L107.633 63.5376C107.584 63.8699 107.524 64.2076 107.469 64.5344L110.28 65.0247C110.34 64.6706 110.4 64.3166 110.454 63.9679Z" fill="#26FFBE"/>
<path d="M83.1147 10.6667L84.6073 8.23718C84.3022 8.05198 83.9972 7.86677 83.6867 7.68701L82.2432 10.1492C82.5373 10.318 82.8315 10.4923 83.1147 10.6667Z" fill="#26FFBE"/>
<path d="M80.4727 9.1523C80.7723 9.31571 81.0719 9.47913 81.366 9.64255L82.7605 7.1586C82.45 6.98429 82.1341 6.80998 81.8236 6.64111L80.4727 9.1523Z" fill="#26FFBE"/>
<path d="M15.9012 89.8042C15.6833 89.5482 15.4654 89.2867 15.2475 89.0361L13.0522 90.8555C13.281 91.1279 13.5153 91.4002 13.744 91.6726L15.9012 89.8042Z" fill="#26FFBE"/>
<path d="M56.14 2.95877L56.1673 0.109863C56.0039 0.109863 55.8404 0.109863 55.677 0.109863C55.4864 0.109863 55.2903 0.109863 55.0996 0.109863L55.1268 2.95877C55.3066 2.95877 55.4864 2.95877 55.6661 2.95877C55.8241 2.95877 55.9821 2.95877 56.14 2.95877Z" fill="#26FFBE"/>
<path d="M34.5087 103.548L33.3594 106.152C33.6862 106.299 34.0185 106.44 34.3453 106.577L35.4402 103.946C35.1297 103.815 34.8192 103.679 34.5087 103.548Z" fill="#26FFBE"/>
</svg>
