<svg width="138" height="211" viewBox="0 0 138 211" fill="none" xmlns="http://www.w3.org/2000/svg">
<path d="M4.76882 201.036C4.14238 201.036 3.53774 201.156 2.95488 201.401C2.37747 201.641 1.86543 201.979 1.41876 202.425C0.977531 202.866 0.634354 203.378 0.394675 203.961C0.154996 204.539 0.0351562 205.143 0.0351562 205.77C0.0351562 206.396 0.154996 207.001 0.394675 207.578C0.634354 208.161 0.977531 208.668 1.41876 209.114C1.86543 209.556 2.37747 209.899 2.95488 210.138C3.53774 210.378 4.14238 210.498 4.76882 210.498C5.39525 210.498 5.99989 210.378 6.58275 210.138C7.16016 209.899 7.6722 209.556 8.11887 209.114C8.56555 208.668 8.90328 208.161 9.14296 207.578C9.38808 207.001 9.50792 206.396 9.50792 205.77C9.50792 205.143 9.38263 204.539 9.14296 203.961C8.90328 203.378 8.5601 202.866 8.11887 202.425C7.6722 201.984 7.16016 201.641 6.58275 201.401C5.99989 201.161 5.39525 201.042 4.76882 201.036ZM4.76882 209.202C4.31125 209.202 3.87547 209.114 3.45603 208.94C3.03114 208.766 2.66073 208.521 2.33934 208.199C2.01795 207.878 1.76738 207.502 1.59307 207.083C1.41876 206.663 1.3316 206.222 1.3316 205.77C1.3316 205.312 1.41876 204.876 1.59307 204.457C1.76738 204.032 2.01795 203.662 2.33934 203.34C2.66073 203.019 3.03114 202.768 3.45603 202.594C3.87547 202.42 4.31125 202.333 4.76882 202.333C5.22638 202.333 5.66217 202.42 6.08705 202.594C6.50649 202.768 6.8769 203.019 7.20374 203.34C7.52512 203.662 7.77025 204.032 7.94456 204.457C8.11887 204.876 8.21148 205.312 8.21148 205.77C8.20603 206.222 8.11887 206.663 7.94456 207.083C7.77025 207.502 7.52512 207.872 7.19829 208.199C6.8769 208.521 6.50649 208.766 6.08705 208.94C5.66217 209.114 5.22638 209.202 4.76882 209.202Z" fill="#26FFBE"/>
<path d="M133.084 178.55C132.458 178.55 131.853 178.67 131.27 178.909C130.693 179.149 130.181 179.492 129.734 179.939C129.293 180.38 128.95 180.892 128.71 181.47C128.47 182.052 128.351 182.652 128.351 183.283C128.351 183.91 128.47 184.515 128.71 185.092C128.95 185.669 129.293 186.181 129.734 186.628C130.181 187.069 130.693 187.412 131.276 187.652C131.853 187.892 132.458 188.012 133.084 188.012C133.716 188.012 134.315 187.892 134.898 187.652C135.476 187.412 135.988 187.069 136.434 186.628C136.881 186.181 137.219 185.669 137.458 185.092C137.704 184.515 137.823 183.91 137.823 183.283C137.823 182.652 137.698 182.052 137.458 181.47C137.219 180.892 136.876 180.38 136.434 179.939C135.988 179.492 135.476 179.154 134.898 178.915C134.315 178.67 133.711 178.55 133.084 178.55ZM133.084 186.715C132.627 186.715 132.191 186.628 131.771 186.454C131.347 186.279 130.976 186.034 130.655 185.707C130.333 185.386 130.083 185.016 129.908 184.596C129.734 184.177 129.647 183.736 129.647 183.283C129.647 182.826 129.734 182.39 129.908 181.965C130.083 181.546 130.333 181.175 130.655 180.854C130.976 180.533 131.347 180.282 131.771 180.108C132.191 179.933 132.627 179.846 133.084 179.846C133.542 179.846 133.978 179.933 134.402 180.108C134.822 180.282 135.192 180.533 135.519 180.854C135.841 181.175 136.086 181.546 136.26 181.965C136.44 182.39 136.527 182.826 136.527 183.283C136.521 183.736 136.434 184.177 136.26 184.596C136.086 185.016 135.841 185.386 135.514 185.707C135.192 186.029 134.822 186.279 134.402 186.454C133.978 186.628 133.542 186.715 133.084 186.715Z" fill="#26FFBE"/>
<mask id="mask0_2010_689" style="mask-type:luminance" maskUnits="userSpaceOnUse" x="49" y="0" width="12" height="11">
<path d="M49.333 0H60.489V10.6821H49.333V0Z" fill="white"/>
</mask>
<g mask="url(#mask0_2010_689)">
<path d="M54.6769 9.48909C55.3088 9.48909 55.9134 9.36925 56.4908 9.12957C57.0737 8.8899 57.5857 8.54672 58.027 8.10549C58.4736 7.65882 58.8168 7.14678 59.0565 6.56937C59.2962 5.98651 59.416 5.38731 59.416 4.75543C59.416 4.129 59.2962 3.52436 59.0565 2.94695C58.8168 2.36954 58.4736 1.8575 58.027 1.41082C57.5857 0.969596 57.0737 0.626418 56.4908 0.38674C55.9134 0.14706 55.3088 0.0272217 54.6769 0.0272217C54.0505 0.0272217 53.4458 0.14706 52.8684 0.38674C52.2856 0.626418 51.7735 0.969596 51.3323 1.41082C50.8856 1.8575 50.5424 2.36954 50.3028 2.94695C50.0631 3.52436 49.9432 4.129 49.9432 4.75543C49.9432 5.38731 50.0631 5.98651 50.3028 6.56937C50.5479 7.14678 50.8856 7.65882 51.3323 8.10004C51.7735 8.54672 52.2856 8.88445 52.8684 9.12957C53.4458 9.36925 54.0505 9.48909 54.6769 9.48909ZM54.6769 1.32367C55.1345 1.32367 55.5757 1.41082 55.9951 1.58513C56.4146 1.75945 56.7904 2.00457 57.1118 2.33141C57.4332 2.6528 57.6838 3.02321 57.8581 3.44265C58.0324 3.86208 58.1196 4.30331 58.1196 4.75543C58.1196 5.213 58.0324 5.64878 57.8581 6.07367C57.6838 6.49311 57.4332 6.86352 57.1118 7.18491C56.7904 7.50629 56.4146 7.75687 55.9951 7.93118C55.5757 8.10549 55.1345 8.19265 54.6769 8.19265C54.2248 8.19265 53.7835 8.10549 53.3641 7.93118C52.9447 7.75687 52.5688 7.50629 52.2474 7.18491C51.926 6.86352 51.6755 6.49311 51.5012 6.07367C51.3268 5.64878 51.2397 5.213 51.2397 4.75543C51.2397 4.30331 51.3268 3.86208 51.5012 3.44265C51.6755 3.02321 51.926 2.6528 52.2474 2.33141C52.5688 2.01002 52.9447 1.75945 53.3641 1.58513C53.7835 1.41082 54.2248 1.32367 54.6769 1.32367Z" fill="#26FFBE"/>
</g>
</svg>
