<svg width="73" height="85" viewBox="0 0 73 85" fill="none" xmlns="http://www.w3.org/2000/svg">
<path d="M52.7534 0.973145C51.8426 0.973145 50.9897 1.19427 50.1947 1.63125C49.3945 2.0735 48.7153 2.6579 48.1625 3.37918C46.999 4.8744 46.3566 6.84872 46.3566 8.93361C46.3566 9.23897 46.3672 9.54433 46.3988 9.84969H46.2461C45.9986 9.84969 45.7617 9.89707 45.5353 9.99711C45.3037 10.0919 45.1036 10.2235 44.9299 10.3972C44.7561 10.5762 44.6192 10.7763 44.5245 11.0027C44.4297 11.2343 44.3823 11.4713 44.3823 11.7187V24.7756C44.3823 25.0441 44.4771 25.2757 44.6719 25.4653C44.8614 25.6548 45.0931 25.7496 45.3616 25.7548H60.1506C60.4191 25.7496 60.6507 25.6548 60.8403 25.4653C61.0298 25.2757 61.1298 25.0441 61.1298 24.7756V11.724C61.1298 11.4765 61.0824 11.2343 60.9877 11.008C60.8876 10.7816 60.756 10.5762 60.5823 10.4025C60.4085 10.2288 60.2032 10.0919 59.9768 9.99711C59.7504 9.90234 59.5135 9.85496 59.2661 9.85496H59.1134C59.1397 9.54959 59.1555 9.23897 59.1555 8.93887C59.1555 6.84872 58.5132 4.8744 57.3497 3.38445C56.7916 2.66316 56.1177 2.07877 55.3174 1.63652C54.5224 1.19427 53.6643 0.973145 52.7534 0.973145ZM54.7857 17.3258C54.6804 17.7628 54.454 18.1313 54.1118 18.4261C53.8854 18.6157 53.7748 18.8579 53.7748 19.1527V19.1737C53.7801 19.4212 53.7538 19.6739 53.6959 19.9161C53.5432 20.5637 53.1799 20.8743 52.7534 20.8743C52.227 20.8743 51.79 20.3899 51.7426 19.358C51.7426 19.3001 51.7426 19.2369 51.7426 19.1737V19.1527C51.7426 18.8579 51.6268 18.6157 51.4056 18.4261C51.0582 18.1313 50.837 17.768 50.7317 17.3258C50.6844 17.1362 50.6633 16.9467 50.6738 16.7519C50.6896 16.3255 50.8265 15.9359 51.0792 15.5936C51.3372 15.2409 51.6741 14.9935 52.0901 14.8513C52.2638 14.7881 52.4428 14.7565 52.6271 14.7407C53.3852 14.6934 53.9907 14.9777 54.4435 15.5936C54.454 15.6094 54.4645 15.6252 54.4751 15.641C54.7225 15.999 54.8489 16.3939 54.8489 16.8309C54.8436 16.9994 54.8225 17.1626 54.7857 17.3258ZM56.0335 4.4111C56.9706 5.61148 57.4866 7.21726 57.4866 8.93887C57.4866 9.24423 57.4708 9.54959 57.4392 9.85496H48.0677C48.0361 9.54959 48.0203 9.24423 48.0203 8.93887C48.0203 7.21726 48.5363 5.61148 49.4734 4.4111C50.3632 3.27389 51.5267 2.64737 52.7534 2.64737C53.9749 2.64737 55.1437 3.27389 56.0335 4.4111Z" fill="#26FFBE"/>
<path d="M52.896 74.8757C53.1171 75.1495 53.3645 75.3916 53.6436 75.6075C53.9173 75.8286 54.2174 76.0129 54.5333 76.1656C54.8492 76.3182 55.1756 76.4341 55.5179 76.513C55.8601 76.592 56.2076 76.6341 56.5603 76.6394C56.913 76.6447 57.2605 76.6078 57.6027 76.5341C57.945 76.4657 58.2766 76.3551 58.5978 76.213C58.919 76.0655 59.2191 75.8865 59.4981 75.6759C59.7824 75.4653 60.0351 75.2284 60.2615 74.9599C60.4932 74.6914 60.688 74.4018 60.8564 74.0912C61.0196 73.7806 61.1513 73.4594 61.246 73.1172C61.3408 72.7803 61.3987 72.4328 61.4198 72.0853C61.4408 71.7326 61.4198 71.3798 61.3619 71.0376C61.3039 70.6901 61.2144 70.3479 61.0828 70.0215C60.9512 69.6951 60.788 69.3897 60.5879 69.0949C60.3931 68.8053 60.1667 68.5421 59.9088 68.2999C59.6508 68.0577 59.3717 67.8471 59.0716 67.6681C62.6939 62.6454 65.6422 56.8699 67.8482 50.4783C70.7122 42.1862 72.3443 32.7621 72.7076 22.464C72.7445 21.4795 72.5918 20.5266 72.239 19.6052C71.8863 18.6891 71.3651 17.8731 70.6806 17.1676C70.2173 16.6832 69.6961 16.2726 69.117 15.9356C68.5431 15.5934 67.9324 15.3354 67.2848 15.1617C66.6372 14.9932 65.9791 14.909 65.3105 14.9142C64.6419 14.9248 63.9838 15.0195 63.3414 15.2091C62.936 15.3249 62.5201 15.4302 62.1042 15.5197V19.9474C62.9255 19.8 63.7363 19.6105 64.5418 19.3788C66.5056 18.8102 68.4536 20.3002 68.3799 22.3114C68.0745 31.051 66.8478 38.5324 65.0472 44.9239H37.1225V9.45458C37.7806 9.57041 38.3334 9.87577 38.7914 10.3601C40.2235 11.9027 41.7608 13.3242 43.4034 14.6352V11.7237C43.4034 10.9235 43.693 10.239 44.2721 9.68097C43.3087 8.81227 42.5242 8.01201 41.9503 7.40129C41.6081 7.03275 41.229 6.70632 40.8184 6.41676C40.4077 6.12719 39.9707 5.87974 39.5074 5.67968C39.0441 5.47961 38.5703 5.32693 38.0754 5.2269C37.5858 5.1216 37.0856 5.07422 36.5854 5.07422C36.08 5.07422 35.5799 5.1216 35.0902 5.2269C34.5953 5.32693 34.1215 5.47961 33.6582 5.67968C33.1949 5.87974 32.7579 6.12719 32.3472 6.41676C31.9366 6.70632 31.5575 7.03275 31.2153 7.40129C28.7935 9.99159 22.4335 16.0251 15.6629 16.0251C13.6781 16.0304 11.7301 15.7566 9.82418 15.2091C9.18187 15.0248 8.52376 14.9248 7.85512 14.9195C7.18649 14.9142 6.52838 14.9932 5.8808 15.1669C5.23323 15.3407 4.6225 15.5987 4.04863 15.9356C3.4695 16.2778 2.94828 16.6885 2.48497 17.1729C1.80054 17.8783 1.27932 18.6944 0.926574 19.6105C0.573828 20.5318 0.421148 21.4848 0.458001 22.4693C0.821276 32.7674 2.45338 42.1915 5.31746 50.4836C7.7235 57.4543 11.014 63.6931 15.0996 69.0264C18.2743 73.1699 21.9018 76.7447 25.882 79.6509C29.1357 82.0254 31.9103 83.4258 33.6582 84.1839C34.5901 84.5841 35.5693 84.7841 36.5854 84.7841C37.5963 84.7841 38.5756 84.5841 39.5074 84.1839C41.9029 83.1415 47.2152 80.4354 52.896 74.8757ZM56.613 75.3179C56.1496 75.3179 55.7021 75.2284 55.2757 75.0494C54.8492 74.8704 54.4702 74.6177 54.1437 74.2913C53.8173 73.9596 53.5646 73.5805 53.3856 73.1541C53.2066 72.7224 53.1224 72.2748 53.1224 71.8115C53.1224 71.3482 53.2066 70.9007 53.3856 70.4743C53.5646 70.0425 53.8173 69.6635 54.1437 69.3371C54.4702 69.0054 54.8492 68.7527 55.2757 68.5736C55.7074 68.3999 56.1496 68.3104 56.613 68.3104C57.0763 68.3104 57.5238 68.3999 57.9502 68.5736C58.3819 68.7527 58.7558 69.0054 59.0874 69.3371C59.4139 69.6635 59.6666 70.0425 59.8456 70.469C60.0193 70.9007 60.1088 71.3482 60.1088 71.8115C60.1088 72.2748 60.0246 72.7224 59.8456 73.1541C59.6666 73.5858 59.4139 73.9649 59.0874 74.2913C58.761 74.623 58.3819 74.8757 57.9502 75.0547C57.5238 75.2284 57.0763 75.3179 56.613 75.3179ZM36.6434 80.4354C36.2011 80.4459 35.7799 80.3617 35.3745 80.1879C30.8889 78.2505 15.1259 69.8319 8.1131 44.9239H36.6434V80.4354Z" fill="#26FFBE"/>
</svg>
