<svg width="108" height="108" viewBox="0 0 108 108" fill="none" xmlns="http://www.w3.org/2000/svg">
<path d="M82.7549 99.1561L81.2653 96.8228C80.9893 96.9998 80.708 97.1769 80.4268 97.3488L81.8695 99.703C82.1663 99.5259 82.4632 99.3384 82.7549 99.1561Z" fill="#26FFBE"/>
<path d="M80.9896 100.24L79.5885 97.8541C79.3073 98.0208 79.0208 98.1823 78.7344 98.3437L80.0885 100.755C80.3906 100.589 80.6927 100.417 80.9896 100.24Z" fill="#26FFBE"/>
<path d="M77.8486 8.86458C78.1351 9.01562 78.4268 9.17708 78.708 9.33333L80.057 6.91667C79.7601 6.75 79.4528 6.58333 79.1507 6.42188L77.8486 8.86458Z" fill="#26FFBE"/>
<path d="M84.4795 97.9998L82.9014 95.729C82.6357 95.9165 82.3597 96.104 82.0889 96.2811L83.6253 98.5884C83.9066 98.3957 84.193 98.1978 84.4795 97.9998Z" fill="#26FFBE"/>
<path d="M83.5837 9.07275C83.2972 8.88525 83.0055 8.69255 82.7191 8.51025L81.2295 10.8436C81.5055 11.0207 81.7816 11.1978 82.0524 11.38L83.5837 9.07275Z" fill="#26FFBE"/>
<path d="M85.2813 10.2553C85 10.0522 84.7188 9.85429 84.4375 9.65637L82.8594 11.9324C83.1302 12.1147 83.3958 12.3074 83.6615 12.5001L85.2813 10.2553Z" fill="#26FFBE"/>
<path d="M81.8389 7.96338C81.5472 7.78109 81.2503 7.604 80.9535 7.43213L79.5576 9.82275C79.8389 9.98421 80.1201 10.1561 80.3962 10.328L81.8389 7.96338Z" fill="#26FFBE"/>
<path d="M92.3542 91.3125L90.375 89.3854C90.151 89.6198 89.9167 89.8541 89.6875 90.0833L91.6302 92.052C91.8698 91.8073 92.1146 91.5573 92.3542 91.3125Z" fill="#26FFBE"/>
<path d="M103.151 66.5259L105.834 67.2134C105.917 66.88 106 66.5415 106.078 66.2082L103.391 65.5728C103.313 65.8905 103.235 66.2082 103.151 66.5259Z" fill="#26FFBE"/>
<path d="M86.1563 96.7866L84.4896 94.5782C84.2292 94.7762 83.9635 94.9689 83.7031 95.1668L85.3229 97.4064C85.599 97.2032 85.8802 96.9949 86.1563 96.7866Z" fill="#26FFBE"/>
<path d="M106.516 64.1821L103.802 63.6509C103.74 63.9738 103.672 64.2967 103.604 64.6144L106.308 65.203C106.375 64.8644 106.448 64.5207 106.516 64.1821Z" fill="#26FFBE"/>
<path d="M102.63 68.4217L105.281 69.2082C105.38 68.8748 105.474 68.5415 105.562 68.2134L102.901 67.479C102.817 67.7863 102.724 68.104 102.63 68.4217Z" fill="#26FFBE"/>
<path d="M86.9274 11.495C86.6618 11.2866 86.3857 11.0783 86.1097 10.8647L84.4482 13.0783C84.7087 13.2762 84.9691 13.4793 85.2243 13.6772L86.9274 11.495Z" fill="#26FFBE"/>
<path d="M87.7809 95.5106L86.0361 93.3647C85.7861 93.5679 85.5257 93.7762 85.2705 93.9741L86.9736 96.1564C87.2445 95.9429 87.5153 95.7241 87.7809 95.5106Z" fill="#26FFBE"/>
<path d="M90.8854 92.771L88.9792 90.7657C88.7448 90.9897 88.5052 91.2137 88.2656 91.4376L90.1302 93.4793C90.3854 93.2449 90.6406 93.0053 90.8854 92.771Z" fill="#26FFBE"/>
<path d="M89.3597 94.1717L87.5316 92.0884C87.2868 92.3071 87.0368 92.5207 86.792 92.7342L88.5785 94.8436C88.8389 94.6248 89.0993 94.3957 89.3597 94.1717Z" fill="#26FFBE"/>
<path d="M76.9795 8.41146L78.2347 5.94271C77.9326 5.78646 77.6201 5.63542 77.3128 5.48438L76.1045 7.97396C76.3962 8.11458 76.693 8.26042 76.9795 8.41146Z" fill="#26FFBE"/>
<path d="M33.3122 7.17171L32.1976 4.63525C31.8799 4.77588 31.5674 4.92171 31.2549 5.06755L32.4215 7.57796C32.7132 7.43734 33.0153 7.30192 33.3122 7.17171Z" fill="#26FFBE"/>
<path d="M31.5313 8.00012L30.3177 5.51575C30.0104 5.66679 29.6979 5.82304 29.3906 5.97929L30.651 8.44283C30.9427 8.29179 31.2396 8.14596 31.5313 8.00012Z" fill="#26FFBE"/>
<path d="M72.5107 6.39567C72.818 6.52067 73.1253 6.64046 73.4222 6.76546L74.4847 4.20817C74.167 4.07796 73.8441 3.94775 73.5264 3.82275L72.5107 6.39567Z" fill="#26FFBE"/>
<path d="M71.6094 101.656L72.5781 104.25C72.901 104.13 73.224 104.005 73.5469 103.88L72.5313 101.307C72.224 101.427 71.9167 101.547 71.6094 101.656Z" fill="#26FFBE"/>
<path d="M70.6719 5.7135C70.9844 5.82288 71.2917 5.93746 71.5938 6.05204L72.5573 3.45829C72.2344 3.3385 71.9115 3.21871 71.5833 3.10413L70.6719 5.7135Z" fill="#26FFBE"/>
<path d="M33.1455 4.229L34.2132 6.78109C34.5153 6.65609 34.8226 6.53109 35.1247 6.4113L34.109 3.83838C33.7861 3.96338 33.4632 4.09359 33.1455 4.229Z" fill="#26FFBE"/>
<path d="M63.1045 104.016C62.7816 104.073 62.4587 104.13 62.1357 104.182L62.5837 106.917C62.9222 106.859 63.266 106.797 63.6045 106.734L63.1045 104.016Z" fill="#26FFBE"/>
<path d="M64.6143 1.17692C64.2809 1.10921 63.9372 1.0415 63.5986 0.979004L63.0986 3.69775C63.4163 3.76025 63.7393 3.82275 64.057 3.88525L64.6143 1.17692Z" fill="#26FFBE"/>
<path d="M26.6982 100.255C26.9951 100.427 27.2972 100.604 27.5941 100.771L28.943 98.3543C28.6618 98.1929 28.3753 98.0314 28.0941 97.8647L26.6982 100.255Z" fill="#26FFBE"/>
<path d="M30.6768 99.2811C30.3851 99.13 30.0882 98.979 29.807 98.8228L28.5049 101.265C28.807 101.427 29.1143 101.588 29.4215 101.745L30.6768 99.2811Z" fill="#26FFBE"/>
<path d="M102.036 70.2969L104.651 71.1823C104.765 70.8594 104.869 70.526 104.974 70.1979L102.343 69.3594C102.244 69.6719 102.14 69.9844 102.036 70.2969Z" fill="#26FFBE"/>
<path d="M77.0049 99.2762L78.2601 101.74C78.5622 101.583 78.8747 101.422 79.182 101.255L77.8747 98.8179C77.583 98.9741 77.2913 99.1304 77.0049 99.2762Z" fill="#26FFBE"/>
<path d="M74.3232 7.1512C74.6201 7.28141 74.9222 7.41683 75.2191 7.55745L76.3753 5.03662C76.0628 4.896 75.7451 4.75016 75.4326 4.61475L74.3232 7.1512Z" fill="#26FFBE"/>
<path d="M73.4375 100.932L74.5052 103.49C74.8229 103.354 75.1406 103.219 75.4583 103.078L74.3438 100.547C74.0417 100.677 73.7396 100.807 73.4375 100.932Z" fill="#26FFBE"/>
<path d="M85.9844 14.2866C86.2396 14.4949 86.4896 14.7085 86.7396 14.9168L88.526 12.8022C88.2708 12.5835 88 12.3595 87.7344 12.1407L85.9844 14.2866Z" fill="#26FFBE"/>
<path d="M75.2344 100.146L76.401 102.656C76.7135 102.51 77.026 102.359 77.3385 102.208L76.125 99.724C75.8281 99.8594 75.5312 100.005 75.2344 100.146Z" fill="#26FFBE"/>
<path d="M16.0055 87.979L13.9482 89.828C14.1774 90.078 14.4118 90.3384 14.6514 90.5884L16.667 88.703C16.4482 88.4686 16.2243 88.2238 16.0055 87.979Z" fill="#26FFBE"/>
<path d="M19.4531 91.474C19.2135 91.2552 18.974 91.0261 18.7396 90.8021L16.8281 92.8073C17.0833 93.0417 17.3333 93.2813 17.5833 93.5105L19.4531 91.474Z" fill="#26FFBE"/>
<path d="M90.0732 14.1717C89.8232 13.9373 89.5628 13.703 89.3076 13.479L87.4795 15.5571C87.7243 15.7707 87.9691 15.9894 88.2087 16.2082L90.0732 14.1717Z" fill="#26FFBE"/>
<path d="M18.0365 90.1198C17.8021 89.8854 17.5729 89.651 17.3438 89.4166L15.3594 91.3489C15.599 91.5937 15.8438 91.8437 16.0885 92.0833L18.0365 90.1198Z" fill="#26FFBE"/>
<path d="M94.8076 84.1563L97.0264 85.8021C97.2295 85.526 97.4326 85.2448 97.6305 84.9635L95.3805 83.3594C95.193 83.6302 94.9951 83.8958 94.8076 84.1563Z" fill="#26FFBE"/>
<path d="M92.3594 87.2189L94.4531 89.0314C94.6771 88.771 94.901 88.5053 95.125 88.2397L92.9948 86.4689C92.7865 86.7241 92.5729 86.9741 92.3594 87.2189Z" fill="#26FFBE"/>
<path d="M93.6094 85.7136L95.7708 87.4427C95.9844 87.1771 96.1979 86.9011 96.4063 86.6302L94.2135 84.9427C94.0208 85.198 93.8177 85.4584 93.6094 85.7136Z" fill="#26FFBE"/>
<path d="M101.37 72.1406L103.948 73.1302C104.073 72.8125 104.193 72.4896 104.313 72.1615L101.714 71.2188C101.599 71.5313 101.485 71.8385 101.37 72.1406Z" fill="#26FFBE"/>
<path d="M24.9424 99.1771C25.2288 99.3594 25.5257 99.5469 25.8174 99.724L27.2601 97.3646C26.984 97.1927 26.7028 97.0156 26.4268 96.8438L24.9424 99.1771Z" fill="#26FFBE"/>
<path d="M34.234 100.927C33.9372 100.802 33.6351 100.672 33.333 100.542L32.2236 103.073C32.5361 103.213 32.859 103.349 33.1715 103.479L34.234 100.927Z" fill="#26FFBE"/>
<path d="M98.5 29.3593C98.6562 29.6458 98.8125 29.9375 98.9635 30.2239L101.411 28.9375C101.255 28.6354 101.089 28.3281 100.922 28.026L98.5 29.3593Z" fill="#26FFBE"/>
<path d="M99.4111 31.1043C99.557 31.396 99.7028 31.6877 99.8434 31.9897L102.338 30.797C102.187 30.4845 102.036 30.172 101.885 29.8647L99.4111 31.1043Z" fill="#26FFBE"/>
<path d="M96.4736 25.979C96.6559 26.2498 96.833 26.5311 97.0049 26.8071L99.3486 25.3384C99.1663 25.0467 98.9788 24.7498 98.7913 24.4634L96.4736 25.979Z" fill="#26FFBE"/>
<path d="M97.0049 80.9165L99.3538 82.3853C99.5309 82.0936 99.7132 81.7967 99.8903 81.4998L97.5205 80.0728C97.3486 80.3592 97.1768 80.6405 97.0049 80.9165Z" fill="#26FFBE"/>
<path d="M95.9375 82.5573L98.224 84.1145C98.4167 83.8281 98.6094 83.5416 98.7969 83.2552L96.4792 81.7448C96.3021 82.0156 96.1198 82.2864 95.9375 82.5573Z" fill="#26FFBE"/>
<path d="M97.5205 27.6512C97.6872 27.9325 97.8538 28.2189 98.0153 28.5002L100.416 27.12C100.244 26.8231 100.067 26.521 99.8903 26.2241L97.5205 27.6512Z" fill="#26FFBE"/>
<path d="M97.583 22.6929L95.333 24.3022L95.3695 24.3491C95.557 24.62 95.7445 24.8908 95.9268 25.1616L98.2132 23.5991C98.0205 23.3179 97.8226 23.0314 97.6299 22.7502L97.583 22.6929Z" fill="#26FFBE"/>
<path d="M88.9219 16.8803C89.1562 17.1043 89.3958 17.3335 89.625 17.5626L91.5729 15.5991C91.3281 15.3543 91.0781 15.1095 90.8281 14.8751L88.9219 16.8803Z" fill="#26FFBE"/>
<path d="M39.0208 105.531L39.7813 102.87C39.4688 102.781 39.1562 102.688 38.8438 102.594L38.0312 105.24C38.3594 105.339 38.6927 105.438 39.0208 105.531Z" fill="#26FFBE"/>
<path d="M36.0674 104.588C36.3903 104.703 36.7184 104.818 37.0465 104.927L37.9059 102.297C37.5986 102.193 37.2861 102.088 36.9788 101.979L36.0674 104.588Z" fill="#26FFBE"/>
<path d="M36.9639 5.71875L36.0472 3.10938C35.7243 3.22396 35.3962 3.34375 35.0732 3.46354L36.042 6.05729C36.3493 5.94271 36.6566 5.82813 36.9639 5.71875Z" fill="#26FFBE"/>
<path d="M38.8281 5.10421L38.0156 2.45837C37.6875 2.56254 37.3542 2.66671 37.0312 2.77608L37.8958 5.40108C38.2031 5.30212 38.5208 5.19796 38.8281 5.10421Z" fill="#26FFBE"/>
<path d="M36.057 101.646C35.7497 101.531 35.4424 101.411 35.1403 101.297L34.1299 103.87C34.4476 103.995 34.7705 104.12 35.0934 104.24L36.057 101.646Z" fill="#26FFBE"/>
<path d="M94.167 22.7188C94.3649 22.9792 94.5628 23.2396 94.7555 23.5052L96.9743 21.8594C96.7712 21.5833 96.5628 21.3021 96.3545 21.0312L94.167 22.7188Z" fill="#26FFBE"/>
<path d="M90.3174 18.2658C90.5465 18.5002 90.7705 18.7397 90.9945 18.9793L93.0101 17.0887C92.7757 16.8387 92.5361 16.5835 92.2965 16.3335L90.3174 18.2658Z" fill="#26FFBE"/>
<path d="M91.6562 19.698C91.875 19.9375 92.0938 20.1875 92.3073 20.4375L94.401 18.625C94.1719 18.3646 93.9427 18.1042 93.7135 17.849L91.6562 19.698Z" fill="#26FFBE"/>
<path d="M91.0518 88.6719L93.0674 90.5677C93.3018 90.3125 93.5361 90.0625 93.7653 89.8073L91.7132 87.9531C91.4945 88.1927 91.2757 88.4375 91.0518 88.6719Z" fill="#26FFBE"/>
<path d="M106.87 62.1405L104.141 61.7134C104.094 62.0363 104.037 62.3644 103.979 62.6821L106.703 63.1613C106.761 62.8228 106.818 62.479 106.87 62.1405Z" fill="#26FFBE"/>
<path d="M107.151 60.0887L104.406 59.7657C104.37 60.0887 104.328 60.4168 104.281 60.7397L107.021 61.1147C107.068 60.7762 107.115 60.4324 107.151 60.0887Z" fill="#26FFBE"/>
<path d="M32.4375 100.136C32.1406 100 31.8438 99.8595 31.5521 99.7189L30.3438 102.208C30.651 102.354 30.9688 102.505 31.2813 102.651L32.4375 100.136Z" fill="#26FFBE"/>
<path d="M107.516 53.8804H104.756C104.756 54.2085 104.756 54.5418 104.745 54.8647L107.506 54.922C107.516 54.5783 107.516 54.2293 107.516 53.8804Z" fill="#26FFBE"/>
<path d="M107.354 58.026L104.599 57.8073C104.573 58.1354 104.542 58.4635 104.516 58.7864L107.266 59.0573C107.297 58.7187 107.328 58.3645 107.354 58.026Z" fill="#26FFBE"/>
<path d="M107.474 55.9531L104.713 55.8438C104.698 56.1719 104.682 56.5052 104.661 56.8281L107.422 56.9896C107.442 56.6458 107.463 56.3021 107.474 55.9531Z" fill="#26FFBE"/>
<path d="M98.0107 79.2344L100.412 80.6094C100.578 80.3073 100.75 80.0052 100.917 79.7031L98.4899 78.375C98.3389 78.6615 98.1774 78.9479 98.0107 79.2344Z" fill="#26FFBE"/>
<path d="M99.8281 75.7501L102.323 76.9376C102.469 76.6303 102.615 76.3126 102.76 76.0001L100.24 74.8595C100.104 75.1616 99.9688 75.4585 99.8281 75.7501Z" fill="#26FFBE"/>
<path d="M100.636 73.9634L103.172 75.0519C103.308 74.7394 103.443 74.4165 103.573 74.0988L101.011 73.0571C100.891 73.3592 100.761 73.6665 100.636 73.9634Z" fill="#26FFBE"/>
<path d="M98.9531 77.5104L101.401 78.7916C101.563 78.4895 101.719 78.177 101.875 77.8698L99.401 76.6354C99.2552 76.927 99.1042 77.2239 98.9531 77.5104Z" fill="#26FFBE"/>
<path d="M101.031 34.6875C101.156 34.9948 101.276 35.3021 101.391 35.6042L103.974 34.6094C103.849 34.2917 103.724 33.9688 103.594 33.6459L101.031 34.6875Z" fill="#26FFBE"/>
<path d="M102.927 40.2762C103.01 40.5887 103.099 40.9116 103.177 41.2241L105.859 40.5418C105.776 40.2033 105.687 39.87 105.593 39.5366L102.927 40.2762Z" fill="#26FFBE"/>
<path d="M102.37 38.3906C102.469 38.6979 102.563 39.0156 102.657 39.3281L105.308 38.5417C105.209 38.2031 105.104 37.875 105 37.5469L102.37 38.3906Z" fill="#26FFBE"/>
<path d="M103.411 42.1823C103.484 42.4948 103.557 42.8177 103.63 43.1406L106.328 42.5625C106.26 42.224 106.182 41.8802 106.104 41.5469L103.411 42.1823Z" fill="#26FFBE"/>
<path d="M101.734 36.5261C101.849 36.8282 101.953 37.1407 102.063 37.4532L104.677 36.5625C104.568 36.2344 104.453 35.9063 104.333 35.5834L101.734 36.5261Z" fill="#26FFBE"/>
<path d="M104.719 51.9116C104.729 52.2397 104.74 52.573 104.745 52.896L107.51 52.8491C107.505 52.5053 107.495 52.1564 107.479 51.8126L104.719 51.9116Z" fill="#26FFBE"/>
<path d="M100.255 32.8804C100.39 33.1772 100.526 33.4793 100.651 33.7814L103.192 32.6877C103.057 32.37 102.916 32.0522 102.776 31.7397L100.255 32.8804Z" fill="#26FFBE"/>
<path d="M104.422 47.9896C104.458 48.3177 104.495 48.6459 104.526 48.9688L107.276 48.7084C107.245 48.3646 107.208 48.0157 107.167 47.6771L104.422 47.9896Z" fill="#26FFBE"/>
<path d="M104.609 49.948C104.635 50.2761 104.656 50.6042 104.672 50.9323L107.438 50.7761C107.417 50.4323 107.396 50.0834 107.37 49.7396L104.609 49.948Z" fill="#26FFBE"/>
<path d="M104.156 46.0416C104.208 46.3645 104.255 46.6927 104.297 47.0156L107.036 46.6458C106.99 46.3073 106.943 45.9583 106.891 45.6198L104.156 46.0416Z" fill="#26FFBE"/>
<path d="M103.823 44.1042C103.886 44.4271 103.943 44.75 104 45.0729L106.724 44.599C106.662 44.2604 106.599 43.9167 106.537 43.5781L103.823 44.1042Z" fill="#26FFBE"/>
<path d="M92.9424 21.1873C93.1455 21.4373 93.359 21.6873 93.5622 21.9478L95.7184 20.2186C95.4997 19.9478 95.2809 19.6769 95.0622 19.4165L92.9424 21.1873Z" fill="#26FFBE"/>
<path d="M4.77083 40.2552L2.10938 39.5209C2.01563 39.8542 1.92708 40.1875 1.84375 40.5209L4.52604 41.2084C4.60417 40.8907 4.6875 40.5677 4.77083 40.2552Z" fill="#26FFBE"/>
<path d="M39.7712 4.82275C40.0837 4.73421 40.4014 4.64567 40.7191 4.56234L40.0055 1.88525C39.6722 1.9738 39.3389 2.06754 39.0107 2.1613L39.7712 4.82275Z" fill="#26FFBE"/>
<path d="M62.1299 3.53125L62.5778 0.802083C62.2445 0.744793 61.8955 0.687501 61.557 0.640625L61.1611 3.38021C61.484 3.42708 61.807 3.47917 62.1299 3.53125Z" fill="#26FFBE"/>
<path d="M1.37012 42.5363L4.07324 43.1196C4.14095 42.8019 4.21387 42.479 4.28678 42.1613L1.59928 41.5259C1.52116 41.8592 1.44303 42.203 1.37012 42.5363Z" fill="#26FFBE"/>
<path d="M5.33301 38.3698L2.69759 37.5312C2.59343 37.8594 2.48926 38.1927 2.39551 38.526L5.04134 39.3125C5.13509 39 5.23405 38.6823 5.33301 38.3698Z" fill="#26FFBE"/>
<path d="M46.0882 0.635254C45.7549 0.682129 45.4059 0.73942 45.0674 0.791504L45.5153 3.52588C45.8382 3.47379 46.1663 3.42171 46.484 3.37484L46.0882 0.635254Z" fill="#26FFBE"/>
<path d="M61.1663 104.333C60.8434 104.38 60.5153 104.427 60.1924 104.464L60.5361 107.214C60.8747 107.172 61.2236 107.125 61.5622 107.073L61.1663 104.333Z" fill="#26FFBE"/>
<path d="M46.0938 107.057C46.4323 107.109 46.776 107.156 47.1198 107.198L47.4635 104.453C47.1406 104.411 46.8125 104.37 46.4948 104.318L46.0938 107.057Z" fill="#26FFBE"/>
<path d="M59.2184 104.578C58.8955 104.609 58.5674 104.641 58.2393 104.672L58.4788 107.427C58.8174 107.401 59.1663 107.365 59.5101 107.328L59.2184 104.578Z" fill="#26FFBE"/>
<path d="M60.1878 3.24984L60.5316 0.505046C60.1982 0.463379 59.8493 0.421713 59.5055 0.385254L59.2139 3.13525C59.5368 3.1665 59.8649 3.20817 60.1878 3.24984Z" fill="#26FFBE"/>
<path d="M5.95801 36.5103L3.36426 35.5728C3.24968 35.8957 3.13509 36.2238 3.02051 36.5519L5.6403 37.4373C5.73926 37.13 5.84863 36.8175 5.95801 36.5103Z" fill="#26FFBE"/>
<path d="M0.254883 50.745L3.0153 50.9064C3.03613 50.5835 3.05697 50.2502 3.08301 49.9272L0.327799 49.7085C0.301758 50.0522 0.275716 50.4012 0.254883 50.745Z" fill="#26FFBE"/>
<path d="M0.416992 48.6772L3.16699 48.9429C3.19824 48.62 3.2347 48.2918 3.27116 47.9689L0.526367 47.646C0.489909 47.9897 0.453451 48.3335 0.416992 48.6772Z" fill="#26FFBE"/>
<path d="M3.01042 56.802C2.99479 56.4791 2.97917 56.1458 2.96354 55.8229L0.203125 55.927C0.213541 56.2708 0.229167 56.6145 0.25 56.9583L3.01042 56.802Z" fill="#26FFBE"/>
<path d="M0.166992 53.8957C0.166992 54.229 0.166993 54.5623 0.172201 54.8905L2.93783 54.8384C2.93262 54.5259 2.92741 54.2082 2.92741 53.8957V53.854H0.166992V53.8957Z" fill="#26FFBE"/>
<path d="M0.176758 52.8177L2.93717 52.8698C2.94759 52.5469 2.95801 52.2135 2.96842 51.8854L0.202799 51.7812C0.192382 52.125 0.181966 52.474 0.176758 52.8177Z" fill="#26FFBE"/>
<path d="M3.69759 45.047C3.75488 44.7293 3.81217 44.4012 3.87467 44.0835L1.16113 43.5522C1.09863 43.8856 1.03613 44.2293 0.973633 44.5731L3.69759 45.047Z" fill="#26FFBE"/>
<path d="M6.66113 34.6771L4.09863 33.6406C3.96842 33.9583 3.84342 34.2813 3.72363 34.599L6.30176 35.5885C6.41634 35.2865 6.54134 34.9792 6.66113 34.6771Z" fill="#26FFBE"/>
<path d="M7.43262 32.8698L4.91178 31.7344C4.77116 32.0469 4.63053 32.3646 4.49512 32.6823L7.03678 33.7708C7.16699 33.4687 7.2972 33.1667 7.43262 32.8698Z" fill="#26FFBE"/>
<path d="M8.27083 31.0938L5.79688 29.8646C5.64063 30.1719 5.48958 30.4844 5.34375 30.7969L7.84375 31.9792C7.98437 31.6823 8.125 31.3855 8.27083 31.0938Z" fill="#26FFBE"/>
<path d="M9.17741 29.354L6.75033 28.0259C6.57845 28.328 6.4222 28.6353 6.26074 28.9425L8.71387 30.2186C8.86491 29.9321 9.02116 29.6405 9.17741 29.354Z" fill="#26FFBE"/>
<path d="M0.65625 46.6198L3.39583 46.9948C3.4375 46.6719 3.48437 46.3438 3.53646 46.0209L0.807292 45.599C0.755208 45.9323 0.703126 46.2761 0.65625 46.6198Z" fill="#26FFBE"/>
<path d="M70.6042 2.77087C70.2812 2.6615 69.9479 2.55733 69.6198 2.45837L68.8125 5.10421C69.1198 5.19796 69.4375 5.29692 69.7448 5.40108L70.6042 2.77087Z" fill="#26FFBE"/>
<path d="M42.6253 4.08854L42.016 1.39062C41.6826 1.46354 41.3493 1.54167 41.0107 1.625L41.6722 4.3125C41.9847 4.23437 42.3076 4.16146 42.6253 4.08854Z" fill="#26FFBE"/>
<path d="M41.0208 106.068L41.6771 103.38C41.3594 103.302 41.0417 103.224 40.7292 103.135L40.0156 105.812C40.349 105.896 40.6823 105.984 41.0208 106.068Z" fill="#26FFBE"/>
<path d="M44.0469 0.973999C43.7083 1.0365 43.3646 1.10421 43.0312 1.17192L43.5833 3.88546C43.901 3.81775 44.2292 3.75525 44.5469 3.69275L44.0469 0.973999Z" fill="#26FFBE"/>
<path d="M43.0368 106.521L43.5941 103.807C43.2764 103.745 42.9535 103.672 42.6357 103.599L42.0264 106.302C42.3597 106.38 42.7035 106.453 43.0368 106.521Z" fill="#26FFBE"/>
<path d="M68.6302 2.16142C68.3021 2.06767 67.9635 1.97392 67.6354 1.88538L66.9219 4.56246C67.2396 4.64579 67.5573 4.72913 67.8698 4.82288L68.6302 2.16142Z" fill="#26FFBE"/>
<path d="M66.6406 106.083C66.9792 106 67.3125 105.917 67.6458 105.828L66.9375 103.151C66.625 103.234 66.3021 103.318 65.9844 103.396L66.6406 106.083Z" fill="#26FFBE"/>
<path d="M65.6247 1.396L65.0205 4.09391C65.3382 4.16683 65.6559 4.23975 65.9736 4.31787L66.6299 1.63558C66.2965 1.54704 65.958 1.46891 65.6247 1.396Z" fill="#26FFBE"/>
<path d="M68.6455 105.552C68.9788 105.453 69.307 105.354 69.6351 105.255L68.8226 102.609C68.5101 102.703 68.1976 102.802 67.8799 102.891L68.6455 105.552Z" fill="#26FFBE"/>
<path d="M45.5205 104.172C45.2028 104.12 44.8747 104.063 44.557 104.005L44.0518 106.724C44.3903 106.787 44.734 106.849 45.0726 106.906L45.5205 104.172Z" fill="#26FFBE"/>
<path d="M53.3337 2.84896C53.6618 2.84896 53.9847 2.84896 54.3128 2.84896L54.3441 0.078125C53.9951 0.078125 53.6514 0.078125 53.3076 0.078125L53.3337 2.84896Z" fill="#26FFBE"/>
<path d="M50.3955 104.74L50.208 107.5C50.5518 107.521 50.9007 107.542 51.2393 107.563L51.3747 104.792C51.0518 104.781 50.7236 104.761 50.3955 104.74Z" fill="#26FFBE"/>
<path d="M65.0257 103.62C64.708 103.693 64.3851 103.76 64.0674 103.828L64.6195 106.542C64.958 106.469 65.2965 106.396 65.6351 106.323L65.0257 103.62Z" fill="#26FFBE"/>
<path d="M52.359 104.833L52.2705 107.604C52.6143 107.615 52.9632 107.62 53.307 107.625L53.3382 104.854C53.0101 104.849 52.682 104.844 52.359 104.833Z" fill="#26FFBE"/>
<path d="M49.4115 3.03642C49.7344 3.01038 50.0625 2.98433 50.3906 2.95829L50.2031 0.197876C49.8646 0.218709 49.5156 0.24996 49.1719 0.276001L49.4115 3.03642Z" fill="#26FFBE"/>
<path d="M57.2653 104.745C56.9372 104.765 56.609 104.786 56.2861 104.802L56.4111 107.568C56.7549 107.552 57.1038 107.531 57.4476 107.51L57.2653 104.745Z" fill="#26FFBE"/>
<path d="M48.4424 104.568L48.1455 107.318C48.4893 107.354 48.833 107.391 49.1768 107.417L49.4163 104.662C49.0934 104.63 48.7653 104.599 48.4424 104.568Z" fill="#26FFBE"/>
<path d="M47.1143 0.494792L47.458 3.24479C47.7809 3.20313 48.109 3.16146 48.432 3.13021L48.1403 0.375C47.8018 0.411459 47.4528 0.453125 47.1143 0.494792Z" fill="#26FFBE"/>
<path d="M58.234 3.0415L58.4736 0.281087C58.1351 0.249838 57.7861 0.223795 57.4424 0.197754L57.2549 2.96338C57.583 2.98421 57.9111 3.01025 58.234 3.0415Z" fill="#26FFBE"/>
<path d="M56.2764 2.90641L56.4118 0.140788C56.068 0.119956 55.7191 0.109538 55.3753 0.0991211L55.292 2.86475C55.6201 2.88037 55.9535 2.89079 56.2764 2.90641Z" fill="#26FFBE"/>
<path d="M55.3024 104.838C54.9743 104.849 54.6462 104.854 54.3232 104.854L54.3441 107.625C54.6878 107.625 55.0368 107.614 55.3805 107.604L55.3024 104.838Z" fill="#26FFBE"/>
<path d="M51.3695 2.90641C51.6976 2.89079 52.0257 2.87516 52.3486 2.86475L52.2705 0.0991211C51.932 0.109538 51.583 0.119956 51.2393 0.140788L51.3695 2.90641Z" fill="#26FFBE"/>
<path d="M13.8962 17.9219C13.667 18.1771 13.4378 18.4375 13.2139 18.6979L15.3076 20.5104C15.516 20.2656 15.7347 20.0156 15.9535 19.776L13.8962 17.9219Z" fill="#26FFBE"/>
<path d="M18.6823 16.9585L16.776 14.9532C16.5208 15.1928 16.2708 15.4376 16.0312 15.6772L17.974 17.646C18.2083 17.4168 18.4427 17.1876 18.6823 16.9585Z" fill="#26FFBE"/>
<path d="M17.2865 18.3438L15.3021 16.4115C15.0625 16.6615 14.8281 16.9115 14.5938 17.1615L16.6094 19.0521C16.8333 18.8125 17.0573 18.5782 17.2865 18.3438Z" fill="#26FFBE"/>
<path d="M28.0677 9.86454L26.6667 7.47913C26.3698 7.65621 26.0729 7.83329 25.7812 8.01558L27.2292 10.375C27.5052 10.2031 27.7865 10.0312 28.0677 9.86454Z" fill="#26FFBE"/>
<path d="M20.125 15.6302L18.2969 13.5573C18.0417 13.7812 17.7813 14.0156 17.5312 14.25L19.3958 16.2864C19.6354 16.0677 19.8802 15.8489 20.125 15.6302Z" fill="#26FFBE"/>
<path d="M3.16178 58.7658C3.13053 58.4377 3.09928 58.1095 3.07845 57.7866L0.323242 57.995C0.349285 58.3387 0.380533 58.6877 0.411784 59.0262L3.16178 58.7658Z" fill="#26FFBE"/>
<path d="M11.7705 82.5677C11.5882 82.2969 11.4007 82.0208 11.2236 81.75L8.91113 83.2656C9.09863 83.5521 9.29134 83.8437 9.48405 84.1302L11.7705 82.5677Z" fill="#26FFBE"/>
<path d="M12.9063 84.1771C12.7135 83.9115 12.5208 83.6459 12.3333 83.3802L10.0781 84.9792C10.276 85.2605 10.4792 85.5417 10.6875 85.8177L12.9063 84.1771Z" fill="#26FFBE"/>
<path d="M14.1045 85.7345C13.9014 85.4793 13.693 85.2137 13.5003 84.9585L11.3076 86.646C11.516 86.9168 11.7295 87.1929 11.943 87.4585L14.1045 85.7345Z" fill="#26FFBE"/>
<path d="M29.7809 8.9012L28.4736 6.4585C28.1715 6.63037 27.8643 6.79704 27.5674 6.9637L28.9215 9.37516C29.2028 9.2137 29.4945 9.05225 29.7809 8.9012Z" fill="#26FFBE"/>
<path d="M23.2188 98.0313C23.5052 98.224 23.7917 98.4219 24.0729 98.6094L25.6042 96.3073C25.3385 96.125 25.0625 95.9427 24.7969 95.7552L23.2188 98.0313Z" fill="#26FFBE"/>
<path d="M70.6878 101.99C70.3805 102.099 70.068 102.203 69.7607 102.307L70.6253 104.938C70.9482 104.828 71.2764 104.719 71.6045 104.599L70.6878 101.99Z" fill="#26FFBE"/>
<path d="M19.9219 95.5418C20.1875 95.7553 20.4583 95.9741 20.7292 96.1876L22.4323 94.0053C22.1823 93.8022 21.9219 93.5991 21.6719 93.3907L19.9219 95.5418Z" fill="#26FFBE"/>
<path d="M21.5469 96.8177C21.8229 97.026 22.099 97.2291 22.3802 97.4323L24 95.1875C23.7344 95 23.4688 94.802 23.2083 94.6041L21.5469 96.8177Z" fill="#26FFBE"/>
<path d="M10.1774 80.0781L7.80762 81.5052C7.98991 81.8021 8.1722 82.099 8.35449 82.3906L10.6982 80.9219C10.5212 80.6406 10.3441 80.3594 10.1774 80.0781Z" fill="#26FFBE"/>
<path d="M19.8747 12.2134C19.609 12.4321 19.3434 12.6561 19.083 12.88L20.8695 14.9894C21.1195 14.7759 21.3695 14.5675 21.6247 14.3592L19.8747 12.2134Z" fill="#26FFBE"/>
<path d="M23.1667 13.1512L21.5052 10.9376C21.2344 11.146 20.9583 11.3543 20.6875 11.5678L22.3958 13.7501C22.6458 13.547 22.9062 13.3439 23.1667 13.1512Z" fill="#26FFBE"/>
<path d="M18.3486 94.2033C18.609 94.4325 18.8695 94.6564 19.1299 94.8804L20.9163 92.771C20.6663 92.5575 20.4215 92.3439 20.1768 92.1304L18.3486 94.2033Z" fill="#26FFBE"/>
<path d="M24.391 12.25C24.516 12.1615 24.6357 12.0781 24.7607 11.9948L23.1826 9.71875C23.0524 9.8125 22.9274 9.90104 22.7972 9.98958C22.641 10.1042 22.4899 10.2135 22.3389 10.3229L23.9587 12.5625C24.1045 12.4583 24.2503 12.3542 24.391 12.25Z" fill="#26FFBE"/>
<path d="M26.3955 10.896L24.9007 8.56787C24.6143 8.75016 24.3226 8.94287 24.0361 9.13558L25.5726 11.4377C25.8434 11.2554 26.1195 11.0731 26.3955 10.896Z" fill="#26FFBE"/>
<path d="M15.359 87.2446C15.1455 86.9998 14.932 86.7394 14.7236 86.4946L12.5986 88.2655C12.8174 88.5311 13.0413 88.7967 13.2653 89.0571L15.359 87.2446Z" fill="#26FFBE"/>
<path d="M7.04199 73.9531C6.91178 73.651 6.78678 73.3437 6.66178 73.0469L4.10449 74.0885C4.2347 74.4062 4.36491 74.7292 4.50553 75.0469L7.04199 73.9531Z" fill="#26FFBE"/>
<path d="M6.30208 72.1302C6.18229 71.823 6.06771 71.5157 5.95833 71.2084L3.35938 72.1511C3.47917 72.474 3.59896 72.8021 3.72396 73.1198L6.30208 72.1302Z" fill="#26FFBE"/>
<path d="M5.62988 70.2813C5.52572 69.9688 5.42155 69.6563 5.32259 69.3438L2.69238 70.1823C2.79655 70.5104 2.90592 70.8437 3.0153 71.1719L5.62988 70.2813Z" fill="#26FFBE"/>
<path d="M8.73438 77.5052C8.58333 77.2188 8.43229 76.9167 8.28125 76.6302L5.8125 77.8698C5.96875 78.1771 6.125 78.4896 6.28646 78.7917L8.73438 77.5052Z" fill="#26FFBE"/>
<path d="M7.85417 75.7448C7.71354 75.4479 7.57292 75.1458 7.4375 74.8541L4.92188 75.9948C5.0625 76.3072 5.20833 76.625 5.35938 76.9375L7.85417 75.7448Z" fill="#26FFBE"/>
<path d="M4.06283 64.5939C3.99512 64.2762 3.92741 63.9481 3.86491 63.6304L1.15137 64.1564C1.21908 64.495 1.28678 64.8387 1.3597 65.1772L4.06283 64.5939Z" fill="#26FFBE"/>
<path d="M3.38509 60.7137C3.34342 60.3908 3.30176 60.0627 3.2653 59.7397L0.520508 60.0575C0.556966 60.4012 0.603841 60.745 0.645508 61.0887L3.38509 60.7137Z" fill="#26FFBE"/>
<path d="M3.6875 62.6615C3.63021 62.3386 3.57813 62.0157 3.52604 61.6927L0.796875 62.1094C0.848959 62.448 0.90625 62.7969 0.963542 63.1355L3.6875 62.6615Z" fill="#26FFBE"/>
<path d="M5.03613 68.4064C4.94238 68.0939 4.84863 67.771 4.7653 67.4585L2.09863 68.1981C2.19238 68.5314 2.28613 68.87 2.38509 69.1929L5.03613 68.4064Z" fill="#26FFBE"/>
<path d="M9.67741 79.2292C9.51595 78.9479 9.35449 78.6615 9.19824 78.375L6.77637 79.7083C6.94303 80.0104 7.1097 80.3125 7.28678 80.6146L9.67741 79.2292Z" fill="#26FFBE"/>
<path d="M4.51009 66.5106C4.42676 66.1929 4.34863 65.87 4.27572 65.5522L1.58301 66.1877C1.66113 66.521 1.74447 66.8595 1.83301 67.1929L4.51009 66.5106Z" fill="#26FFBE"/>
<path d="M7.77572 26.229C7.59863 26.5259 7.42155 26.828 7.25488 27.1248L9.65592 28.4998C9.81218 28.2186 9.97884 27.9373 10.1455 27.6561L7.77572 26.229Z" fill="#26FFBE"/>
<path d="M13.4482 22.7866L11.2555 21.0991C11.0472 21.3752 10.8389 21.6512 10.6357 21.9272L12.8597 23.5731C13.0524 23.3075 13.2503 23.047 13.4482 22.7866Z" fill="#26FFBE"/>
<path d="M14.6715 21.2552L12.5465 19.4844C12.3278 19.75 12.109 20.0208 11.8955 20.2865L14.0518 22.0156C14.2549 21.7604 14.4632 21.5052 14.6715 21.2552Z" fill="#26FFBE"/>
<path d="M12.2868 24.3646L10.0368 22.7656C9.83887 23.0469 9.64095 23.3281 9.44824 23.6146L11.7347 25.1719C11.9118 24.901 12.0993 24.6302 12.2868 24.3646Z" fill="#26FFBE"/>
<path d="M11.1872 25.9845L8.86947 24.4741C8.68197 24.7606 8.49447 25.0575 8.31738 25.3491L10.6611 26.8127C10.833 26.5418 11.0101 26.2606 11.1872 25.9845Z" fill="#26FFBE"/>
</svg>
