<svg width="136" height="138" viewBox="0 0 136 138" fill="none" xmlns="http://www.w3.org/2000/svg">
<path d="M28.4583 13.2709C23.5833 16.724 19.2396 20.7552 15.4271 25.3646C11.6198 29.9688 8.46875 34.9948 5.98438 40.4323L8.5 41.5886C10.8854 36.3698 13.9062 31.5521 17.5625 27.1355C21.2188 22.7188 25.3854 18.849 30.0573 15.5261L28.4583 13.2709Z" fill="#26FFBE"/>
<path d="M123.344 29.427L123.318 29.3854L121.062 30.9895L121.089 31.026C124.401 35.7031 127.057 40.7343 129.052 46.1145C131.047 51.4948 132.307 57.0468 132.844 62.7604L135.594 62.5052C135.047 56.5468 133.729 50.7656 131.651 45.1562C129.573 39.5468 126.807 34.3073 123.344 29.4323V29.427Z" fill="#26FFBE"/>
<path d="M12.3441 108.281L12.3545 108.297L14.6149 106.703L14.5993 106.682C11.2868 102.005 8.63053 96.9793 6.64095 91.6043C4.64616 86.2241 3.38053 80.6825 2.84408 74.9741L0.0888672 75.2241C0.640951 81.1772 1.95345 86.9585 4.03158 92.5627C6.1097 98.1668 8.88053 103.406 12.3389 108.281H12.3441Z" fill="#26FFBE"/>
<path d="M105.609 122.193L107.208 124.448C112.083 120.995 116.427 116.964 120.24 112.359C124.052 107.755 127.203 102.729 129.688 97.2918L127.177 96.1407C124.786 101.354 121.76 106.172 118.104 110.589C114.448 115.005 110.281 118.875 105.609 122.193Z" fill="#26FFBE"/>
<path d="M73.9326 133.969C71.9378 134.156 69.9066 134.25 67.9014 134.25C58.3753 134.24 49.2816 132.255 40.6149 128.297L39.4639 130.818C48.4951 134.953 57.9691 137.021 67.8962 137.021C69.9899 137.021 72.1097 136.922 74.1878 136.729L73.9326 133.969Z" fill="#26FFBE"/>
<path d="M61.7292 3.73971C63.7292 3.55221 65.7708 3.45846 67.7865 3.45846C77.2969 3.46887 86.3854 5.44804 95.0469 9.39596L96.1927 6.88033C87.1719 2.75012 77.7031 0.687622 67.7813 0.687622C65.6823 0.687622 63.5573 0.781371 61.4688 0.979289L61.7292 3.73971Z" fill="#26FFBE"/>
</svg>
