<svg width="63" height="84" viewBox="0 0 63 84" fill="none" xmlns="http://www.w3.org/2000/svg">
<path d="M21.3698 21.6875C20.5938 21.1875 19.8854 20.6041 19.2448 19.9479C19 20.1145 18.7552 20.2864 18.5156 20.4687C18.375 20.5729 18.2396 20.677 18.099 20.7916C18.0156 20.8541 17.9323 20.9218 17.849 20.9895C17.8281 21 17.8125 21.0156 17.7969 21.0312C17.7031 21.0989 17.6146 21.177 17.526 21.25C17.5 21.2708 17.4792 21.2864 17.4583 21.3072C17.3906 21.3645 17.3177 21.4218 17.25 21.4843C17.2031 21.526 17.1562 21.5677 17.1042 21.6093C16.8229 21.8593 16.5469 22.1093 16.2813 22.3645C16.224 22.4218 16.1667 22.4739 16.1146 22.5364C16.0625 22.5937 15.9896 22.6562 15.9323 22.7135L15.8646 22.7812C15.7708 22.875 15.6771 22.9739 15.5833 23.0729C15.4896 23.1718 15.3854 23.2812 15.2865 23.3906C15.1927 23.4895 15.1042 23.5937 15.0104 23.6927C14.9896 23.7187 14.9688 23.7447 14.9479 23.7708C14.875 23.8541 14.8073 23.9322 14.7344 24.0104C14.7135 24.0364 14.6927 24.0625 14.6719 24.0885C14.599 24.1718 14.5208 24.2604 14.4479 24.3489C14.4375 24.3645 14.4219 24.3802 14.4115 24.3958C14.3229 24.5052 14.2396 24.6093 14.151 24.7187C14.0625 24.8333 13.974 24.9479 13.8854 25.0625C13.7708 25.2083 13.6667 25.3489 13.5625 25.4947C13.5104 25.5625 13.4635 25.6354 13.4115 25.7031L13.2865 25.8854C13.2448 25.9427 13.2031 26 13.1667 26.052C13.1354 26.0937 13.1094 26.1354 13.0833 26.177C13.0417 26.2395 13 26.302 12.9583 26.3645C12.9167 26.4218 12.875 26.4895 12.8281 26.5572C12.6615 26.8072 12.5 27.0677 12.3438 27.3333C12.2969 27.4114 12.25 27.4895 12.2083 27.5677L12.1302 27.6927C12.0729 27.7916 12.0208 27.8906 11.9635 27.9895L11.9479 28.0156C11.8802 28.1458 11.8125 28.2708 11.7448 28.401C11.6771 28.5312 11.6042 28.6562 11.5365 28.7916C11.474 28.9166 11.4115 29.0468 11.3438 29.1718C11.3333 29.1927 11.3281 29.2187 11.3177 29.2343C11.2812 29.3072 11.2448 29.3802 11.2135 29.4531C9.70313 27.0781 8.91667 24.4635 8.91667 21.7916C8.91667 20.1041 9.21875 18.4739 9.81771 16.901C9.88542 16.7343 9.91667 16.5625 9.91146 16.3854C9.91146 16.2083 9.86979 16.0364 9.80208 15.875C9.72917 15.7135 9.63021 15.5677 9.5 15.4479C9.36979 15.3229 9.22396 15.2291 9.05729 15.1666C8.89063 15.1041 8.71875 15.0781 8.54167 15.0833C8.36458 15.0885 8.19792 15.1302 8.03646 15.2031C7.875 15.276 7.73438 15.3802 7.61458 15.5104C7.49479 15.6406 7.40104 15.7916 7.34375 15.9583C6.625 17.8385 6.26563 19.7812 6.26563 21.7916C6.26563 25.5625 7.56771 29.2083 10.0365 32.3854C9.29167 34.625 8.86458 36.9218 8.75521 39.276H1.51563C1.33333 39.2708 1.16146 39.302 0.994792 39.3697C0.828125 39.4322 0.682291 39.526 0.552083 39.651C0.427083 39.776 0.328125 39.9218 0.260417 40.0885C0.187499 40.2552 0.15625 40.427 0.15625 40.6041C0.15625 40.7812 0.187499 40.9531 0.260417 41.1197C0.328125 41.2864 0.427083 41.4322 0.552083 41.5572C0.682291 41.677 0.828125 41.776 0.994792 41.8385C1.16146 41.9062 1.33333 41.9375 1.51563 41.9322H8.75521C8.86458 44.2864 9.29167 46.5833 10.0365 48.8229C7.5625 52 6.26563 55.6458 6.26563 59.4166C6.27083 61.427 6.625 63.3697 7.34375 65.25C7.40104 65.4166 7.49479 65.5625 7.61458 65.6979C7.73438 65.8281 7.875 65.927 8.03646 66.0052C8.19792 66.0781 8.36458 66.1197 8.54167 66.125C8.71875 66.1302 8.89063 66.0989 9.05729 66.0364C9.22396 65.9739 9.36979 65.8802 9.5 65.7604C9.63021 65.6354 9.72917 65.4947 9.80208 65.3333C9.86979 65.1718 9.91146 65 9.91146 64.8229C9.91667 64.6458 9.88542 64.4739 9.81771 64.3072C9.21875 62.7343 8.91667 61.1041 8.91667 59.4166C8.91667 56.7291 9.71354 54.1041 11.2344 51.7187C13 55.1718 15.9115 58.4895 19.6094 61.2343C21.3438 62.526 23.1979 63.6197 25.1667 64.5104C24.9844 64.2447 24.8229 63.9635 24.6771 63.6718L22.9844 60.3385C18.6406 57.5729 14.474 53.2708 12.7813 48.6614L12.7708 48.625C11.8333 46.0312 11.3698 43.3593 11.3698 40.5989C11.3698 37.8437 11.8333 35.1666 12.7708 32.5729C14.4792 27.875 17.5417 24.0989 21.3698 21.6875Z" fill="#26FFBE"/>
<path d="M33.417 36.6823L33.8545 24.3594C33.0993 24.4375 32.3389 24.4792 31.5785 24.4792C30.8962 24.4792 30.2243 24.4479 29.5576 24.3854L30.6253 54.6667C30.9535 55.2292 31.4378 55.5417 32.0889 55.599L32.7399 55.6667L33.2503 41.3125L32.1618 39.724C32.068 39.5885 31.9951 39.4479 31.9378 39.2917C31.8805 39.1406 31.8441 38.9792 31.8285 38.8177C31.8128 38.6563 31.8128 38.4948 31.8389 38.3333C31.8597 38.1719 31.9066 38.0156 31.9691 37.8646C32.0316 37.7135 32.1097 37.5677 32.2087 37.4375C32.3024 37.3073 32.417 37.1927 32.542 37.0885C32.667 36.9844 32.8076 36.8958 32.9535 36.8281C33.1045 36.7604 33.2555 36.7083 33.417 36.6771V36.6823Z" fill="#26FFBE"/>
<path d="M54.1038 66.0207C54.2705 66.0832 54.4424 66.1144 54.6143 66.1092C54.7913 66.104 54.958 66.0624 55.1195 65.9947C55.2809 65.9217 55.4215 65.8176 55.5413 65.6926C55.6611 65.5624 55.7497 65.4165 55.8122 65.2499C56.5309 63.3749 56.8903 61.4321 56.8903 59.4217C56.8903 55.6509 55.5882 51.9999 53.1195 48.828C53.8643 46.5884 54.2913 44.2915 54.4007 41.9322H61.6455C61.8226 41.9374 61.9945 41.9061 62.1611 41.8436C62.3278 41.7759 62.4736 41.6822 62.6038 41.5572C62.7288 41.4322 62.8278 41.2863 62.8955 41.1249C62.9684 40.9582 62.9997 40.7863 62.9997 40.6092C62.9997 40.4269 62.9684 40.2551 62.8955 40.0936C62.8278 39.9269 62.7288 39.7811 62.6038 39.6561C62.4736 39.5311 62.3278 39.4374 62.1611 39.3696C61.9945 39.3071 61.8226 39.2759 61.6455 39.2811H54.4007C54.2913 36.9217 53.8643 34.6249 53.1195 32.3853C55.5934 29.2134 56.8903 25.5624 56.8903 21.7967C56.8903 19.7863 56.5309 17.8384 55.8122 15.9582C55.7549 15.7915 55.6611 15.6457 55.5413 15.5155C55.4215 15.3853 55.2809 15.2811 55.1195 15.2082C54.958 15.1301 54.7913 15.0936 54.6143 15.0884C54.4372 15.078 54.2653 15.1092 54.0986 15.1717C53.932 15.2342 53.7861 15.328 53.6559 15.4478C53.5257 15.5728 53.4268 15.7134 53.3538 15.8749C53.2861 16.0415 53.2497 16.2082 53.2445 16.3853C53.2393 16.5676 53.2705 16.7342 53.3382 16.9009C53.9372 18.479 54.2393 20.1092 54.2393 21.7967C54.2393 24.4686 53.4528 27.0832 51.9424 29.453C51.9111 29.3853 51.8747 29.3124 51.8382 29.2394C51.833 29.2186 51.8226 29.1978 51.8122 29.1769C51.7497 29.0467 51.682 28.9217 51.6195 28.7915C51.5518 28.6613 51.484 28.5311 51.4111 28.4009C51.3434 28.2759 51.2757 28.1509 51.208 28.0207L51.1924 27.9946C51.1351 27.8957 51.083 27.7967 51.0257 27.6978L50.9528 27.5676C50.9059 27.4894 50.859 27.4113 50.8122 27.3332C50.6559 27.0728 50.4945 26.8124 50.3278 26.5571C50.2861 26.4947 50.2445 26.4269 50.1976 26.3644C50.1559 26.3019 50.1143 26.2394 50.0726 26.1769C50.0466 26.1405 50.0205 26.0936 49.9893 26.0571C49.9528 25.9999 49.9111 25.9426 49.8695 25.8853L49.7445 25.7082C49.6976 25.6353 49.6455 25.5676 49.5934 25.4999C49.4893 25.354 49.3799 25.2082 49.2705 25.0676C49.1872 24.953 49.0934 24.8384 49.0049 24.7238C48.9163 24.6092 48.833 24.5051 48.7445 24.4009C48.734 24.3853 48.7184 24.3696 48.708 24.354C48.6351 24.2655 48.5622 24.1769 48.484 24.0884C48.4632 24.0676 48.4424 24.0415 48.4215 24.0155C48.3538 23.9321 48.2809 23.8488 48.208 23.7707C48.1872 23.7446 48.1663 23.7238 48.1455 23.6978C48.0518 23.5936 47.9632 23.4947 47.8695 23.3905C47.7705 23.2863 47.6715 23.1821 47.5726 23.0728C47.4788 22.979 47.3851 22.8801 47.2913 22.7811L47.2236 22.7186C47.1663 22.6561 47.1038 22.5988 47.0413 22.5363C46.9788 22.479 46.932 22.4269 46.8747 22.3696C46.609 22.1092 46.333 21.8592 46.0518 21.6144C46.0049 21.5728 45.9528 21.5311 45.9059 21.4894C45.8382 21.4269 45.7653 21.3696 45.6976 21.3124C45.6768 21.2915 45.6559 21.2707 45.6299 21.2551C45.5413 21.1821 45.4528 21.104 45.359 21.0311C45.3434 21.0155 45.3278 21.0051 45.307 20.9894C45.2236 20.9217 45.1403 20.8592 45.057 20.7915C44.9215 20.6821 44.7809 20.578 44.6403 20.4686C44.4007 20.2915 44.1559 20.1144 43.9111 19.9478C43.2705 20.6092 42.5622 21.1926 41.7861 21.6926C45.6143 24.1092 48.6768 27.8801 50.3903 32.5884C51.3226 35.1821 51.7913 37.8592 51.7913 40.6144C51.7913 43.3697 51.3226 46.0467 50.3903 48.6405L50.3747 48.6769C50.2861 48.9269 50.1872 49.1769 50.0778 49.4269C50.7445 50.5936 51.083 51.854 51.0986 53.203C51.3955 52.7134 51.6715 52.2186 51.9268 51.7238C53.4528 54.1144 54.2497 56.7394 54.2497 59.4269C54.2445 61.1144 53.9424 62.7447 53.3434 64.3176C53.2184 64.6561 53.2288 64.9947 53.3747 65.328C53.5257 65.6613 53.7653 65.8905 54.1038 66.0207Z" fill="#26FFBE"/>
<path d="M44.9893 14.349C44.9893 11.5833 43.0413 9.11458 39.9997 7.5C40.083 7.09375 40.1299 6.67708 40.1299 6.25521C40.1299 3.66146 38.4841 1.46354 36.2132 0.71875C36.833 1.69271 37.1455 2.76042 37.1403 3.91667C37.1403 4.31771 37.0986 4.71354 37.0205 5.10417C35.6924 3.69271 33.7445 2.80208 31.5726 2.80208C29.4059 2.80208 27.458 3.69271 26.1247 5.10417C26.0465 4.71354 26.0101 4.31771 26.0101 3.91667C26.0049 2.76042 26.3174 1.69271 26.9372 0.71875C24.6663 1.46354 23.0205 3.66146 23.0205 6.25521C23.0205 6.67708 23.0622 7.09375 23.1507 7.5C20.109 9.11458 18.1611 11.5833 18.1611 14.349C18.1611 19.2083 24.1663 23.151 31.5726 23.151C38.9841 23.151 44.9893 19.2083 44.9893 14.349Z" fill="#26FFBE"/>
<path d="M52.3699 82.2292C52.7344 82.0157 53.073 81.7709 53.3855 81.4896C53.698 81.2084 53.9792 80.9011 54.2292 80.5625C54.4844 80.224 54.698 79.8646 54.8751 79.4792C55.0521 79.099 55.1928 78.7032 55.2917 78.2969C55.3855 77.8855 55.4428 77.4688 55.4584 77.0469C55.474 76.6303 55.448 76.2084 55.3751 75.7969C55.3074 75.3803 55.198 74.974 55.0469 74.5834C54.8959 74.1875 54.7084 73.8177 54.4792 73.4584L46.6042 61.1042L46.9063 60.5052L49.0834 56.1771C49.6042 55.1407 49.8282 54.0417 49.7605 52.8802C49.6876 51.7188 49.3282 50.6563 48.6824 49.6875L43.4324 41.823C41.9428 39.5886 33.7761 37.974 33.7761 37.974C33.5209 37.974 33.3334 38.0886 33.2136 38.3177C33.0938 38.5469 33.1094 38.7657 33.2553 38.9792L40.0365 48.8698C40.3542 49.3282 40.5417 49.8386 40.5938 50.4011C40.6459 50.9584 40.5574 51.4948 40.3334 52.0105L39.6251 53.6198C39.3751 54.1875 39.0469 54.698 38.6407 55.1615C38.2292 55.6198 37.7553 56.0052 37.224 56.3177C36.6928 56.6302 36.1303 56.8542 35.5261 56.9844C34.9271 57.1146 34.3178 57.1511 33.7032 57.0938L31.9532 56.9271C31.3959 56.8698 30.8855 56.6875 30.4271 56.3646C29.9636 56.0469 29.6094 55.6355 29.3646 55.1302L24.0782 44.3646C23.9636 44.1355 23.7813 44.0157 23.5261 44.0105C23.2709 44 23.0782 44.1094 22.948 44.3282C22.948 44.3282 20.3646 52.25 21.5782 54.6459L25.8542 63.0834C26.3803 64.1198 27.1303 64.9532 28.1042 65.5834C29.0782 66.2136 30.1459 66.5573 31.3074 66.6094L36.1355 66.823L36.8074 66.8542L43.7084 79.7865C43.9063 80.1563 44.1407 80.5052 44.4063 80.8282C44.6771 81.1511 44.974 81.448 45.3021 81.7084C45.6303 81.974 45.9792 82.2032 46.3542 82.3959C46.7292 82.5886 47.1146 82.7396 47.5209 82.8542C47.9271 82.9688 48.3386 83.0417 48.7553 83.073C49.1771 83.1042 49.5938 83.0938 50.0105 83.0365C50.4271 82.9844 50.8334 82.8907 51.2292 82.7553C51.6303 82.6198 52.0105 82.4428 52.3699 82.2292Z" fill="#26FFBE"/>
</svg>
