<svg width="185" height="185" viewBox="0 0 185 185" fill="none" xmlns="http://www.w3.org/2000/svg">
<path d="M176.578 62.25C176.693 62.5573 176.807 62.875 176.917 63.1875L179.521 62.2605C179.406 61.9427 179.292 61.6146 179.177 61.3021L176.578 62.25Z" fill="#26FFBE"/>
<path d="M175.136 58.5522C175.266 58.8543 175.391 59.1668 175.516 59.4741L178.078 58.4325C177.948 58.12 177.818 57.8022 177.688 57.4897L175.136 58.5522Z" fill="#26FFBE"/>
<path d="M117.052 181.667C117.38 181.578 117.714 181.484 118.036 181.391L117.281 178.729C116.969 178.823 116.646 178.911 116.328 178.995L117.052 181.667Z" fill="#26FFBE"/>
<path d="M100.959 1.1665L100.714 3.92171C101.042 3.95296 101.37 3.98421 101.698 4.01546L101.974 1.26025C101.636 1.229 101.297 1.19775 100.959 1.1665Z" fill="#26FFBE"/>
<path d="M173.531 54.9218C173.672 55.2239 173.813 55.526 173.948 55.8229L176.458 54.6718C176.323 54.3645 176.177 54.052 176.031 53.7448L173.531 54.9218Z" fill="#26FFBE"/>
<path d="M172.667 53.1356C172.813 53.4325 172.959 53.7293 173.104 54.0262L175.589 52.8179C175.443 52.5158 175.292 52.2085 175.141 51.896L172.667 53.1356Z" fill="#26FFBE"/>
<path d="M174.354 56.7292C174.49 57.0312 174.62 57.3333 174.75 57.6406L177.287 56.5469C177.157 56.2396 177.016 55.9219 176.881 55.6094L174.354 56.7292Z" fill="#26FFBE"/>
<path d="M120.969 180.505C121.292 180.396 121.615 180.292 121.938 180.182L121.063 177.557C120.75 177.661 120.433 177.765 120.12 177.864L120.969 180.505Z" fill="#26FFBE"/>
<path d="M104 1.48942C103.667 1.44775 103.323 1.40609 102.99 1.36963L102.683 4.11963C103.011 4.15609 103.339 4.19775 103.662 4.23421L104 1.48942Z" fill="#26FFBE"/>
<path d="M175.88 60.396C176 60.7033 176.119 61.0158 176.234 61.3179L178.823 60.3387C178.703 60.021 178.578 59.7033 178.453 59.3804L175.88 60.396Z" fill="#26FFBE"/>
<path d="M147.933 19.1616L146.276 21.3752C146.537 21.5731 146.797 21.771 147.063 21.9741L148.74 19.7762C148.479 19.5731 148.203 19.3647 147.933 19.1616Z" fill="#26FFBE"/>
<path d="M97.9063 0.94283C97.5677 0.927205 97.224 0.906372 96.8854 0.890747L96.7656 3.66158C97.0938 3.6772 97.4271 3.69283 97.7552 3.70846L97.9063 0.94283Z" fill="#26FFBE"/>
<path d="M156.641 30.5052C156.87 30.7448 157.099 30.9791 157.323 31.2187L159.328 29.3125C159.094 29.0677 158.854 28.8177 158.62 28.5729L156.641 30.5052Z" fill="#26FFBE"/>
<path d="M94.8438 0.822876L94.7812 3.59371C95.1146 3.59892 95.4479 3.60933 95.7708 3.61975L95.8646 0.854126C95.5313 0.843709 95.1875 0.833293 94.8438 0.822876Z" fill="#26FFBE"/>
<path d="M105.052 184.099C105.385 184.052 105.729 184.005 106.063 183.958L105.667 181.219C105.339 181.266 105.01 181.307 104.688 181.354L105.052 184.099Z" fill="#26FFBE"/>
<path d="M98.9215 1.00537L98.7393 3.771C99.0674 3.79183 99.3955 3.81787 99.7236 3.8387L99.9424 1.0835C99.6038 1.05745 99.2601 1.03141 98.9215 1.00537Z" fill="#26FFBE"/>
<path d="M113.089 182.656C113.417 182.583 113.756 182.505 114.084 182.427L113.448 179.734C113.125 179.807 112.802 179.885 112.479 179.958L113.089 182.656Z" fill="#26FFBE"/>
<path d="M115.078 182.182C115.401 182.099 115.734 182.016 116.068 181.932L115.37 179.255C115.047 179.339 114.724 179.422 114.406 179.5L115.078 182.182Z" fill="#26FFBE"/>
<path d="M144.683 20.2085C144.953 20.4012 145.219 20.5939 145.485 20.7866L147.115 18.5522C146.844 18.3543 146.568 18.1564 146.292 17.9585L144.683 20.2085Z" fill="#26FFBE"/>
<path d="M107.073 183.807C107.406 183.75 107.74 183.698 108.078 183.641L107.62 180.911C107.297 180.964 106.969 181.021 106.641 181.068L107.073 183.807Z" fill="#26FFBE"/>
<path d="M131.089 12.1978C131.386 12.3384 131.683 12.4842 131.979 12.63L133.193 10.1405C132.891 9.98942 132.578 9.84359 132.271 9.69775L131.089 12.1978Z" fill="#26FFBE"/>
<path d="M143.067 19.078C143.338 19.2603 143.609 19.453 143.88 19.6405L145.463 17.3696C145.182 17.1769 144.901 16.979 144.625 16.7915L143.067 19.078Z" fill="#26FFBE"/>
<path d="M141.422 17.9792C141.698 18.1615 141.974 18.3438 142.25 18.5261L143.781 16.2188C143.495 16.0313 143.214 15.8438 142.927 15.6615L141.422 17.9792Z" fill="#26FFBE"/>
<path d="M139.755 16.922C140.036 17.0939 140.317 17.271 140.593 17.4481L142.067 15.1095C141.781 14.9272 141.494 14.745 141.208 14.5679L139.755 16.922Z" fill="#26FFBE"/>
<path d="M158.005 31.9375C158.224 32.1771 158.448 32.4219 158.672 32.6667L160.713 30.8021C160.484 30.5521 160.255 30.3021 160.026 30.0469L158.005 31.9375Z" fill="#26FFBE"/>
<path d="M184.692 90.3177C184.682 89.9844 184.672 89.6354 184.661 89.2969L181.896 89.401C181.906 89.7292 181.922 90.0625 181.927 90.3958L184.692 90.3177Z" fill="#26FFBE"/>
<path d="M177.239 64.1248C177.343 64.4321 177.448 64.7498 177.552 65.0675L180.177 64.203C180.073 63.8748 179.963 63.5519 179.854 63.229L177.239 64.1248Z" fill="#26FFBE"/>
<path d="M138.067 15.9009C138.349 16.0675 138.635 16.2342 138.916 16.4061L140.338 14.0311C140.047 13.8592 139.75 13.6821 139.463 13.5103L138.067 15.9009Z" fill="#26FFBE"/>
<path d="M134.614 13.9738C134.906 14.1248 135.198 14.2811 135.489 14.4425L136.807 12.005C136.51 11.8488 136.208 11.6821 135.911 11.5259L134.614 13.9738Z" fill="#26FFBE"/>
<path d="M132.864 13.0677C133.156 13.2135 133.448 13.3646 133.744 13.5156L135.01 11.0521C134.708 10.901 134.406 10.7448 134.099 10.5938L132.864 13.0677Z" fill="#26FFBE"/>
<path d="M109.042 2.25L108.558 4.97396C108.881 5.03646 109.203 5.09375 109.526 5.15625L110.047 2.4375C109.714 2.36979 109.375 2.3125 109.042 2.25Z" fill="#26FFBE"/>
<path d="M136.354 14.9167C136.641 15.0781 136.927 15.2396 137.214 15.4063L138.589 13.0052C138.292 12.8333 137.995 12.6667 137.698 12.5L136.354 14.9167Z" fill="#26FFBE"/>
<path d="M181.661 85.4373C181.687 85.7707 181.713 86.0988 181.739 86.4269L184.494 86.2342C184.468 85.8957 184.442 85.5519 184.416 85.2134L181.661 85.4373Z" fill="#26FFBE"/>
<path d="M181.802 87.4167C181.823 87.75 181.838 88.0781 181.854 88.4063L184.619 88.2708C184.604 87.9375 184.583 87.5937 184.562 87.25L181.802 87.4167Z" fill="#26FFBE"/>
<path d="M179.453 71.7448C179.531 72.0677 179.604 72.3854 179.682 72.7083L182.375 72.0833C182.297 71.7552 182.219 71.4218 182.141 71.0885L179.453 71.7448Z" fill="#26FFBE"/>
<path d="M178.964 69.8229C179.047 70.1406 179.131 70.4635 179.214 70.7813L181.896 70.099C181.813 69.7708 181.729 69.4375 181.636 69.1094L178.964 69.8229Z" fill="#26FFBE"/>
<path d="M181.479 83.4637C181.511 83.7918 181.542 84.12 181.573 84.4533L184.328 84.1929C184.297 83.8595 184.261 83.5106 184.224 83.1772L181.479 83.4637Z" fill="#26FFBE"/>
<path d="M179.901 73.6772C179.969 74.0002 180.037 74.3231 180.104 74.646L182.813 74.0835C182.74 73.7502 182.672 73.4116 182.599 73.0835L179.901 73.6772Z" fill="#26FFBE"/>
<path d="M177.859 66.0105C177.958 66.3282 178.057 66.6459 178.151 66.9584L180.792 66.1563C180.698 65.8334 180.594 65.5052 180.495 65.1771L177.859 66.0105Z" fill="#26FFBE"/>
<path d="M178.433 67.9113C178.526 68.229 178.615 68.5467 178.703 68.8644L181.365 68.1196C181.271 67.7915 181.177 67.4634 181.084 67.1353L178.433 67.9113Z" fill="#26FFBE"/>
<path d="M181.25 81.4948C181.292 81.823 181.333 82.1511 181.37 82.4792L184.115 82.1615C184.073 81.823 184.031 81.4792 183.99 81.1459L181.25 81.4948Z" fill="#26FFBE"/>
<path d="M180.302 75.62C180.364 75.9429 180.427 76.271 180.484 76.5939L183.203 76.0939C183.14 75.7554 183.078 75.422 183.015 75.0835L180.302 75.62Z" fill="#26FFBE"/>
<path d="M180.979 79.5311C181.026 79.8592 181.073 80.1873 181.12 80.5103L183.854 80.13C183.808 79.7967 183.761 79.4582 183.709 79.1196L180.979 79.5311Z" fill="#26FFBE"/>
<path d="M180.661 77.5679C180.718 77.8908 180.771 78.2241 180.823 78.547L183.552 78.1043C183.5 77.771 183.442 77.4325 183.385 77.0991L180.661 77.5679Z" fill="#26FFBE"/>
<path d="M91.7865 0.807251C91.4427 0.807251 91.099 0.817668 90.7656 0.822876L90.8229 3.59371C91.1563 3.5885 91.4844 3.58329 91.8125 3.57808L91.7865 0.807251Z" fill="#26FFBE"/>
<path d="M79.6247 183.943L80.0205 181.203C79.6924 181.156 79.3695 181.104 79.0413 181.052L78.6143 183.792C78.9476 183.839 79.2861 183.891 79.6247 183.943Z" fill="#26FFBE"/>
<path d="M91.8542 182.125C91.5208 182.125 91.1875 182.12 90.8646 182.109L90.7969 184.88C91.1354 184.886 91.4792 184.891 91.8177 184.896L91.8542 182.125Z" fill="#26FFBE"/>
<path d="M73.5524 2.8335C73.2243 2.90641 72.8857 2.97933 72.5576 3.05745L73.167 5.75537C73.4899 5.68245 73.8128 5.60954 74.1305 5.54183L73.5524 2.8335Z" fill="#26FFBE"/>
<path d="M83.6719 184.438L83.9479 181.682C83.6198 181.651 83.2917 181.615 82.9635 181.578L82.6562 184.328C82.9948 184.365 83.3333 184.401 83.6719 184.438Z" fill="#26FFBE"/>
<path d="M81.6455 184.208L81.9788 181.464C81.6507 181.422 81.3226 181.38 80.9997 181.333L80.6299 184.078C80.9684 184.125 81.307 184.167 81.6455 184.208Z" fill="#26FFBE"/>
<path d="M87.7396 184.755L87.8958 181.995C87.5625 181.974 87.2344 181.953 86.9063 181.932L86.7188 184.698C87.0521 184.719 87.401 184.74 87.7396 184.755Z" fill="#26FFBE"/>
<path d="M96.9167 184.818C97.2604 184.802 97.6042 184.787 97.9375 184.766L97.7865 182C97.4583 182.016 97.1302 182.031 96.7969 182.047L96.9167 184.818Z" fill="#26FFBE"/>
<path d="M108.037 2.07829C107.703 2.021 107.37 1.9637 107.032 1.91162L106.604 4.646C106.933 4.69808 107.256 4.75016 107.584 4.80745L108.037 2.07829Z" fill="#26FFBE"/>
<path d="M89.7764 184.849L89.8701 182.078C89.542 182.068 89.2087 182.057 88.8857 182.042L88.7607 184.807C89.0941 184.823 89.4378 184.838 89.7764 184.849Z" fill="#26FFBE"/>
<path d="M75.557 2.42725C75.2184 2.49496 74.8851 2.56266 74.5518 2.62516L75.0986 5.3387C75.4215 5.2762 75.7445 5.2085 76.0726 5.1512L75.557 2.42725Z" fill="#26FFBE"/>
<path d="M92.8441 182.136L92.8389 184.901H92.9222C93.2347 184.901 93.5524 184.901 93.8649 184.896L93.8337 182.13C93.5316 182.13 93.2243 182.13 92.9222 182.13L92.8441 182.136Z" fill="#26FFBE"/>
<path d="M159.333 33.401C159.552 33.651 159.771 33.8958 159.989 34.1458L162.073 32.3281C161.849 32.0781 161.625 31.8177 161.401 31.5625L159.333 33.401Z" fill="#26FFBE"/>
<path d="M76.6045 183.448C76.9378 183.505 77.2712 183.568 77.6097 183.62L78.0628 180.891C77.7399 180.833 77.417 180.781 77.0889 180.724L76.6045 183.448Z" fill="#26FFBE"/>
<path d="M72.6045 182.635C72.9378 182.708 73.2712 182.786 73.5993 182.854L74.1774 180.146C73.8545 180.078 73.5368 180.01 73.2139 179.938L72.6045 182.635Z" fill="#26FFBE"/>
<path d="M85.9219 181.859C85.5885 181.833 85.2604 181.807 84.9323 181.776L84.6875 184.531C85.026 184.562 85.3646 184.594 85.7031 184.62L85.9219 181.859Z" fill="#26FFBE"/>
<path d="M76.1195 180.542C75.7913 180.479 75.4684 180.417 75.1455 180.349L74.5986 183.063C74.932 183.13 75.2705 183.198 75.6038 183.261L76.1195 180.542Z" fill="#26FFBE"/>
<path d="M65.7132 180.797L66.5257 178.151C66.2132 178.052 65.8955 177.953 65.583 177.854L64.7393 180.489C65.0622 180.594 65.3851 180.698 65.7132 180.797Z" fill="#26FFBE"/>
<path d="M71.6097 182.406L72.2503 179.713C71.9274 179.635 71.6097 179.557 71.2868 179.479L70.6201 182.161C70.9535 182.245 71.2816 182.328 71.6097 182.406Z" fill="#26FFBE"/>
<path d="M63.708 5.53125C63.3851 5.64062 63.057 5.75 62.7393 5.86458L63.6455 8.47917C63.958 8.36979 64.2705 8.26042 64.583 8.15625L63.708 5.53125Z" fill="#26FFBE"/>
<path d="M69.5781 3.78137C69.2552 3.86471 68.9219 3.95846 68.5938 4.047L69.3229 6.71887C69.6406 6.63554 69.9635 6.54179 70.2813 6.45846L69.5781 3.78137Z" fill="#26FFBE"/>
<path d="M67.609 4.32275C67.2809 4.4165 66.9528 4.51025 66.6299 4.60921L67.4163 7.26025C67.7288 7.1665 68.0518 7.07275 68.3695 6.98421L67.609 4.32275Z" fill="#26FFBE"/>
<path d="M65.6507 4.90625C65.3278 5.00521 64.9997 5.10938 64.6768 5.21354L65.5257 7.84896C65.8382 7.75 66.1559 7.64583 66.4684 7.55208L65.6507 4.90625Z" fill="#26FFBE"/>
<path d="M98.9587 184.703C99.292 184.682 99.6357 184.656 99.9743 184.63L99.766 181.87C99.4378 181.896 99.1045 181.922 98.7764 181.943L98.9587 184.703Z" fill="#26FFBE"/>
<path d="M167.755 44.5054C167.937 44.7866 168.114 45.0627 168.291 45.3439L170.63 43.87C170.453 43.5835 170.265 43.2918 170.078 43.0054L167.755 44.5054Z" fill="#26FFBE"/>
<path d="M167.739 39.5469L165.489 41.151L165.531 41.2083C165.724 41.4792 165.911 41.7552 166.104 42.026L168.375 40.4479C168.182 40.1667 167.984 39.8906 167.786 39.6094L167.739 39.5469Z" fill="#26FFBE"/>
<path d="M166.661 42.8436C166.849 43.1196 167.031 43.3957 167.213 43.6717L169.521 42.1457C169.333 41.8644 169.146 41.578 168.953 41.2915L166.661 42.8436Z" fill="#26FFBE"/>
<path d="M169.833 47.8905C170.005 48.1769 170.172 48.4634 170.333 48.755L172.734 47.38C172.567 47.0884 172.39 46.7863 172.224 46.4946L169.833 47.8905Z" fill="#26FFBE"/>
<path d="M168.817 46.1875C168.989 46.4687 169.161 46.75 169.328 47.0365L171.703 45.6094C171.526 45.3229 171.349 45.0208 171.172 44.7344L168.817 46.1875Z" fill="#26FFBE"/>
<path d="M160.636 34.896C160.849 35.1512 161.063 35.4012 161.271 35.6512L163.396 33.8804C163.177 33.62 162.953 33.3543 162.74 33.0991L160.636 34.896Z" fill="#26FFBE"/>
<path d="M161.901 36.4219C162.11 36.6771 162.318 36.9375 162.521 37.1927L164.677 35.4688C164.469 35.2083 164.256 34.9375 164.042 34.6719L161.901 36.4219Z" fill="#26FFBE"/>
<path d="M164.328 39.5469C164.521 39.8125 164.719 40.0782 164.911 40.3438L167.151 38.7188C166.953 38.4427 166.75 38.1667 166.547 37.8959L164.328 39.5469Z" fill="#26FFBE"/>
<path d="M173.234 48.2759L170.817 49.6196C170.979 49.9061 171.135 50.1978 171.291 50.4894L173.724 49.1717C173.562 48.8748 173.396 48.5728 173.234 48.2759Z" fill="#26FFBE"/>
<path d="M163.13 37.9741C163.333 38.2293 163.536 38.4897 163.734 38.7554L165.932 37.0783C165.729 36.8075 165.521 36.5366 165.312 36.271L163.13 37.9741Z" fill="#26FFBE"/>
<path d="M114.032 3.2863C113.703 3.21338 113.37 3.13525 113.042 3.05713L112.433 5.76025C112.756 5.83317 113.078 5.90609 113.396 5.98421L114.032 3.2863Z" fill="#26FFBE"/>
<path d="M81.609 1.479C81.2757 1.52067 80.932 1.56234 80.5986 1.60921L80.9632 4.354C81.2861 4.31234 81.6195 4.27067 81.9476 4.229L81.609 1.479Z" fill="#26FFBE"/>
<path d="M83.6357 1.25537C83.3024 1.28662 82.9587 1.32308 82.6201 1.36475L82.9274 4.11475C83.2503 4.07829 83.5837 4.04183 83.9118 4.01058L83.6357 1.25537Z" fill="#26FFBE"/>
<path d="M85.6722 1.07275C85.3337 1.0988 84.9899 1.13004 84.6514 1.1613L84.8962 3.9165C85.2243 3.88525 85.5524 3.85921 85.8805 3.83317L85.6722 1.07275Z" fill="#26FFBE"/>
<path d="M117 4.0415L116.271 6.71338C116.588 6.79671 116.911 6.89046 117.224 6.979L117.979 4.31755C117.656 4.22379 117.323 4.13525 117 4.0415Z" fill="#26FFBE"/>
<path d="M118.958 4.599L118.172 7.25525C118.49 7.349 118.802 7.44275 119.12 7.54171L119.932 4.89587C119.609 4.79692 119.281 4.69796 118.958 4.599Z" fill="#26FFBE"/>
<path d="M93.8232 0.807454C93.4899 0.807454 93.1462 0.802246 92.8076 0.802246V3.57308C93.1357 3.57308 93.4639 3.57308 93.7972 3.57829L93.8232 0.807454Z" fill="#26FFBE"/>
<path d="M66.6875 181.089C67.0104 181.188 67.3385 181.281 67.6667 181.375L68.4219 178.714C68.1042 178.62 67.7865 178.531 67.4688 178.438L66.6875 181.089Z" fill="#26FFBE"/>
<path d="M116.011 3.78125C115.683 3.69792 115.349 3.61458 115.026 3.53125L114.354 6.21354C114.672 6.29167 114.995 6.375 115.313 6.45833L116.011 3.78125Z" fill="#26FFBE"/>
<path d="M88.7295 0.890462L88.8493 3.6613C89.1774 3.64567 89.5107 3.63525 89.8389 3.61963L89.7503 0.854004C89.4066 0.859212 89.0628 0.874838 88.7295 0.890462Z" fill="#26FFBE"/>
<path d="M87.7083 0.937622C87.3698 0.958455 87.026 0.979289 86.6875 1.00012L86.8698 3.76575C87.1979 3.74492 87.526 3.72408 87.8594 3.70325L87.7083 0.937622Z" fill="#26FFBE"/>
<path d="M12.599 131.708C12.4531 131.412 12.3073 131.109 12.1667 130.813L9.67188 131.995C9.8125 132.302 9.96354 132.615 10.1094 132.917L12.599 131.708Z" fill="#26FFBE"/>
<path d="M136.906 173.63L135.578 171.203C135.286 171.359 134.995 171.521 134.703 171.672L136.005 174.115C136.302 173.958 136.609 173.792 136.906 173.63Z" fill="#26FFBE"/>
<path d="M135.099 174.594L133.828 172.135C133.531 172.292 133.239 172.443 132.942 172.588L134.192 175.062C134.494 174.906 134.797 174.75 135.099 174.594Z" fill="#26FFBE"/>
<path d="M133.276 175.516L132.058 173.037C131.761 173.182 131.459 173.328 131.167 173.469L132.354 175.964C132.662 175.818 132.969 175.667 133.276 175.516Z" fill="#26FFBE"/>
<path d="M138.687 172.625L137.307 170.229C137.015 170.396 136.729 170.557 136.442 170.719L137.797 173.13C138.093 172.969 138.39 172.797 138.687 172.625Z" fill="#26FFBE"/>
<path d="M140.448 171.583L139.01 169.213C138.734 169.38 138.448 169.557 138.161 169.724L139.567 172.109C139.864 171.932 140.156 171.755 140.448 171.583Z" fill="#26FFBE"/>
<path d="M142.182 170.5L140.698 168.161C140.417 168.344 140.141 168.521 139.859 168.693L141.323 171.042C141.609 170.859 141.896 170.682 142.182 170.5Z" fill="#26FFBE"/>
<path d="M143.896 169.375L142.359 167.078C142.083 167.266 141.807 167.448 141.531 167.63L143.042 169.948C143.323 169.755 143.615 169.568 143.896 169.375Z" fill="#26FFBE"/>
<path d="M125.786 178.797L124.791 176.213C124.484 176.333 124.172 176.453 123.864 176.568L124.828 179.161C125.146 179.042 125.468 178.922 125.786 178.797Z" fill="#26FFBE"/>
<path d="M123.87 179.511L122.938 176.906C122.625 177.021 122.313 177.13 122 177.234L122.906 179.854C123.229 179.74 123.552 179.625 123.87 179.511Z" fill="#26FFBE"/>
<path d="M129.567 177.24L128.458 174.708C128.161 174.839 127.854 174.969 127.552 175.099L128.63 177.646C128.942 177.516 129.255 177.38 129.567 177.24Z" fill="#26FFBE"/>
<path d="M127.688 178.042L126.636 175.479C126.328 175.604 126.021 175.729 125.714 175.854L126.735 178.427C127.058 178.297 127.375 178.172 127.688 178.042Z" fill="#26FFBE"/>
<path d="M131.433 176.401L130.271 173.891C129.974 174.031 129.672 174.167 129.37 174.302L130.506 176.828C130.813 176.687 131.125 176.542 131.433 176.401Z" fill="#26FFBE"/>
<path d="M119.995 180.807L119.177 178.167C118.865 178.26 118.547 178.359 118.229 178.453L119.016 181.104C119.344 181.01 119.672 180.911 119.995 180.807Z" fill="#26FFBE"/>
<path d="M158.052 157.714L156.094 155.76C155.859 155.995 155.625 156.224 155.391 156.458L157.328 158.432C157.573 158.193 157.818 157.948 158.052 157.714Z" fill="#26FFBE"/>
<path d="M156.599 159.146L154.683 157.146C154.443 157.375 154.203 157.604 153.964 157.833L155.86 159.849C156.104 159.615 156.354 159.38 156.599 159.146Z" fill="#26FFBE"/>
<path d="M160.859 154.755L158.817 152.896C158.593 153.136 158.369 153.38 158.146 153.62L160.172 155.505C160.401 155.255 160.635 155.005 160.859 154.755Z" fill="#26FFBE"/>
<path d="M155.11 160.542L153.24 158.505C153 158.729 152.756 158.953 152.511 159.172L154.36 161.229C154.61 161.005 154.86 160.776 155.11 160.542Z" fill="#26FFBE"/>
<path d="M159.474 156.245L157.474 154.338C157.244 154.578 157.015 154.818 156.786 155.052L158.771 156.984C159.005 156.739 159.244 156.489 159.474 156.245Z" fill="#26FFBE"/>
<path d="M145.589 168.219L144 165.953C143.729 166.146 143.459 166.333 143.183 166.521L144.745 168.802C145.026 168.609 145.308 168.417 145.589 168.219Z" fill="#26FFBE"/>
<path d="M148.87 165.802L147.183 163.609C146.927 163.807 146.662 164.005 146.401 164.203L148.058 166.417C148.328 166.214 148.599 166.01 148.87 165.802Z" fill="#26FFBE"/>
<path d="M147.24 167.026L145.604 164.797C145.339 164.99 145.073 165.182 144.808 165.375L146.417 167.625C146.693 167.427 146.969 167.229 147.24 167.026Z" fill="#26FFBE"/>
<path d="M162.208 153.24L160.125 151.422C159.911 151.667 159.692 151.917 159.474 152.161L161.541 154C161.765 153.745 161.989 153.495 162.208 153.24Z" fill="#26FFBE"/>
<path d="M150.474 164.542L148.74 162.38C148.485 162.589 148.224 162.797 147.964 163L149.672 165.177C149.943 164.964 150.209 164.755 150.474 164.542Z" fill="#26FFBE"/>
<path d="M153.593 161.912L151.771 159.833C151.515 160.052 151.265 160.266 151.021 160.479L152.823 162.578C153.078 162.36 153.338 162.136 153.593 161.912Z" fill="#26FFBE"/>
<path d="M152.047 163.245L150.271 161.125C150.016 161.339 149.766 161.547 149.511 161.755L151.266 163.896C151.526 163.677 151.792 163.458 152.047 163.245Z" fill="#26FFBE"/>
<path d="M34.0208 159.948C33.776 159.734 33.5312 159.516 33.2865 159.292L31.4375 161.349C31.6875 161.578 31.9427 161.807 32.1979 162.026L34.0208 159.948Z" fill="#26FFBE"/>
<path d="M35.5153 161.234C35.2653 161.021 35.0153 160.807 34.7601 160.594L32.958 162.688C33.2132 162.911 33.4788 163.135 33.734 163.349L35.5153 161.234Z" fill="#26FFBE"/>
<path d="M32.557 158.625C32.3174 158.401 32.0726 158.177 31.833 157.953L29.9424 159.964C30.1924 160.198 30.4372 160.432 30.6872 160.661L32.557 158.625Z" fill="#26FFBE"/>
<path d="M24.3903 150.021C24.1768 149.766 23.9684 149.51 23.7601 149.25L21.6143 151C21.8278 151.26 22.0465 151.526 22.2653 151.786L24.3903 150.021Z" fill="#26FFBE"/>
<path d="M38.5889 163.708C38.3285 163.505 38.068 163.302 37.8128 163.104L36.1045 165.281C36.3701 165.489 36.641 165.703 36.9066 165.906L38.5889 163.708Z" fill="#26FFBE"/>
<path d="M26.9847 153.011C26.766 152.766 26.542 152.516 26.3232 152.271L24.2607 154.115C24.4847 154.365 24.7139 154.615 24.943 154.87L26.9847 153.011Z" fill="#26FFBE"/>
<path d="M40.1667 164.891C39.901 164.698 39.6354 164.5 39.375 164.307L37.7188 166.521C37.9896 166.724 38.2604 166.927 38.5365 167.125L40.1667 164.891Z" fill="#26FFBE"/>
<path d="M25.6719 151.526C25.4531 151.276 25.2396 151.026 25.026 150.771L22.9219 152.568C23.1406 152.828 23.3646 153.083 23.5833 153.344L25.6719 151.526Z" fill="#26FFBE"/>
<path d="M31.1195 157.271C30.8851 157.042 30.6455 156.812 30.4111 156.578L28.4736 158.552C28.7184 158.792 28.9632 159.031 29.208 159.266L31.1195 157.271Z" fill="#26FFBE"/>
<path d="M28.333 154.458C28.1038 154.219 27.8799 153.979 27.6559 153.74L25.6299 155.625C25.8643 155.875 26.0986 156.125 26.3278 156.37L28.333 154.458Z" fill="#26FFBE"/>
<path d="M29.7132 155.88C29.4788 155.646 29.2497 155.412 29.0205 155.177L27.0361 157.104C27.2705 157.349 27.5153 157.594 27.7497 157.833L29.7132 155.88Z" fill="#26FFBE"/>
<path d="M50.1618 171.245C49.8753 171.089 49.5837 170.927 49.2972 170.766L47.9482 173.182C48.2451 173.354 48.542 173.516 48.8389 173.677L50.1618 171.245Z" fill="#26FFBE"/>
<path d="M94.8805 184.88C95.2139 184.875 95.5628 184.865 95.9014 184.854L95.8128 182.083C95.4795 182.099 95.1514 182.104 94.8232 182.115L94.8805 184.88Z" fill="#26FFBE"/>
<path d="M102.01 184.453L101.734 181.698C101.406 181.729 101.078 181.76 100.75 181.792L100.995 184.547C101.328 184.516 101.672 184.484 102.01 184.453Z" fill="#26FFBE"/>
<path d="M110.088 183.281L109.573 180.562C109.25 180.625 108.922 180.682 108.599 180.74L109.083 183.469C109.416 183.406 109.755 183.344 110.088 183.281Z" fill="#26FFBE"/>
<path d="M70.3278 179.234C70.0101 179.151 69.6924 179.068 69.3747 178.979L68.6455 181.651C68.9736 181.745 69.3018 181.828 69.6351 181.917L70.3278 179.234Z" fill="#26FFBE"/>
<path d="M103.026 184.344C103.359 184.307 103.703 184.266 104.036 184.229L103.703 181.479C103.38 181.521 103.047 181.557 102.719 181.594L103.026 184.344Z" fill="#26FFBE"/>
<path d="M41.776 166.042C41.5052 165.854 41.2344 165.667 40.9688 165.474L39.3594 167.724C39.6354 167.922 39.9115 168.12 40.1875 168.313L41.776 166.042Z" fill="#26FFBE"/>
<path d="M43.4014 167.156C43.1305 166.974 42.8545 166.786 42.5837 166.604L41.0264 168.89C41.3024 169.083 41.5889 169.271 41.8701 169.463L43.4014 167.156Z" fill="#26FFBE"/>
<path d="M45.0573 168.234C44.7812 168.063 44.5 167.88 44.2292 167.703L42.7188 170.021C43.0052 170.208 43.2917 170.391 43.5729 170.573L45.0573 168.234Z" fill="#26FFBE"/>
<path d="M46.7344 169.276C46.4531 169.109 46.1719 168.937 45.8958 168.76L44.4375 171.115C44.724 171.292 45.0156 171.469 45.3073 171.646L46.7344 169.276Z" fill="#26FFBE"/>
<path d="M111.094 183.083C111.427 183.015 111.761 182.948 112.094 182.875L111.516 180.167C111.193 180.239 110.865 180.307 110.542 180.37L111.094 183.083Z" fill="#26FFBE"/>
<path d="M48.4378 170.281C48.1514 170.115 47.8701 169.953 47.5837 169.781L46.1826 172.167C46.4743 172.344 46.7712 172.51 47.0628 172.682L48.4378 170.281Z" fill="#26FFBE"/>
<path d="M37.0417 162.49C36.7865 162.281 36.526 162.073 36.276 161.865L34.5156 164.005C34.776 164.219 35.0417 164.432 35.3073 164.646L37.0417 162.49Z" fill="#26FFBE"/>
<path d="M177.219 121.589L179.839 122.474C179.943 122.156 180.052 121.833 180.156 121.505L177.531 120.646C177.427 120.964 177.323 121.276 177.219 121.589Z" fill="#26FFBE"/>
<path d="M176.562 123.458L179.161 124.401C179.276 124.083 179.391 123.76 179.5 123.443L176.896 122.526C176.786 122.833 176.677 123.146 176.562 123.458Z" fill="#26FFBE"/>
<path d="M177.833 119.703L180.468 120.537C180.573 120.208 180.672 119.886 180.771 119.557L178.125 118.755C178.031 119.073 177.932 119.391 177.833 119.703Z" fill="#26FFBE"/>
<path d="M175.87 125.307L178.443 126.318C178.563 126 178.688 125.682 178.808 125.359L176.219 124.385C176.104 124.693 175.985 125 175.87 125.307Z" fill="#26FFBE"/>
<path d="M178.406 117.807L181.057 118.578C181.156 118.255 181.25 117.922 181.339 117.599L178.677 116.854C178.589 117.172 178.5 117.49 178.406 117.807Z" fill="#26FFBE"/>
<path d="M178.938 115.901L181.604 116.615C181.693 116.281 181.781 115.953 181.865 115.625L179.182 114.943C179.104 115.26 179.021 115.578 178.938 115.901Z" fill="#26FFBE"/>
<path d="M175.13 127.146L177.682 128.208C177.812 127.896 177.942 127.578 178.067 127.265L175.505 126.229C175.38 126.536 175.255 126.844 175.13 127.146Z" fill="#26FFBE"/>
<path d="M172.677 132.552L175.156 133.781C175.302 133.479 175.453 133.172 175.604 132.865L173.109 131.662C172.968 131.958 172.823 132.261 172.677 132.552Z" fill="#26FFBE"/>
<path d="M170.849 136.057L173.265 137.396C173.432 137.099 173.593 136.797 173.755 136.5L171.317 135.188C171.166 135.479 171.005 135.766 170.849 136.057Z" fill="#26FFBE"/>
<path d="M174.354 128.963L176.881 130.083C177.021 129.771 177.157 129.458 177.287 129.146L174.745 128.057C174.62 128.359 174.485 128.667 174.354 128.963Z" fill="#26FFBE"/>
<path d="M179.427 113.979L182.109 114.63C182.187 114.302 182.271 113.969 182.343 113.635L179.651 113.01C179.578 113.338 179.505 113.656 179.427 113.979Z" fill="#26FFBE"/>
<path d="M173.536 130.765L176.036 131.943C176.182 131.635 176.323 131.323 176.463 131.015L173.953 129.87C173.812 130.167 173.672 130.474 173.536 130.765Z" fill="#26FFBE"/>
<path d="M171.781 134.312L174.229 135.599C174.385 135.302 174.542 134.995 174.698 134.693L172.234 133.432C172.083 133.729 171.932 134.026 171.781 134.312Z" fill="#26FFBE"/>
<path d="M181.891 96.3387L184.656 96.448C184.667 96.1147 184.677 95.771 184.688 95.4272L181.927 95.3439C181.917 95.6772 181.906 96.0105 181.891 96.3387Z" fill="#26FFBE"/>
<path d="M181.792 98.3177L184.547 98.4896C184.568 98.1563 184.589 97.8073 184.604 97.4688L181.849 97.3281C181.828 97.6562 181.813 97.9896 181.792 98.3177Z" fill="#26FFBE"/>
<path d="M181.948 94.3543L184.714 94.4064C184.719 94.0627 184.724 93.7189 184.724 93.3804L181.959 93.3647C181.959 93.6929 181.953 94.0262 181.948 94.3543Z" fill="#26FFBE"/>
<path d="M179.87 112.047L182.568 112.641C182.641 112.313 182.714 111.974 182.782 111.646L180.078 111.078C180.011 111.401 179.943 111.724 179.87 112.047Z" fill="#26FFBE"/>
<path d="M181.953 91.3802C181.958 91.7083 181.958 92.0416 181.964 92.375L184.724 92.3593C184.724 92.026 184.719 91.677 184.714 91.3385L181.953 91.3802Z" fill="#26FFBE"/>
<path d="M181.646 100.297L184.401 100.531C184.427 100.193 184.453 99.8488 184.484 99.5103L181.729 99.3071C181.703 99.6353 181.677 99.9634 181.646 100.297Z" fill="#26FFBE"/>
<path d="M180.276 110.109L182.985 110.646C183.052 110.307 183.115 109.974 183.177 109.635L180.459 109.135C180.401 109.453 180.339 109.781 180.276 110.109Z" fill="#26FFBE"/>
<path d="M180.636 108.161L183.36 108.635C183.417 108.297 183.474 107.963 183.526 107.625L180.797 107.182C180.745 107.505 180.693 107.833 180.636 108.161Z" fill="#26FFBE"/>
<path d="M181.229 104.24L183.969 104.594C184.011 104.255 184.052 103.922 184.094 103.578L181.349 103.255C181.313 103.583 181.271 103.912 181.229 104.24Z" fill="#26FFBE"/>
<path d="M180.953 106.203L183.682 106.62C183.734 106.281 183.786 105.938 183.833 105.609L181.094 105.224C181.052 105.552 181 105.875 180.953 106.203Z" fill="#26FFBE"/>
<path d="M181.458 102.271L184.208 102.563C184.244 102.224 184.276 101.886 184.307 101.547L181.557 101.287C181.526 101.615 181.494 101.943 181.458 102.271Z" fill="#26FFBE"/>
<path d="M169.87 137.781L172.261 139.172C172.427 138.88 172.594 138.583 172.761 138.286L170.36 136.922C170.198 137.208 170.037 137.495 169.87 137.781Z" fill="#26FFBE"/>
<path d="M171.761 51.3647C171.917 51.6616 172.068 51.9533 172.219 52.2502L174.677 50.9897C174.526 50.6877 174.365 50.3856 174.209 50.0835L171.761 51.3647Z" fill="#26FFBE"/>
<path d="M171.744 140.047L169.375 138.63C169.203 138.912 169.036 139.198 168.864 139.479L171.218 140.922C171.396 140.636 171.573 140.344 171.744 140.047Z" fill="#26FFBE"/>
<path d="M170.682 141.786L168.339 140.318C168.167 140.594 167.99 140.875 167.812 141.156L170.135 142.651C170.323 142.365 170.505 142.073 170.682 141.786Z" fill="#26FFBE"/>
<path d="M154.531 28.4061L156.448 26.4113C156.203 26.1769 155.958 25.9425 155.713 25.7134L153.817 27.7238C154.057 27.953 154.297 28.1769 154.531 28.4061Z" fill="#26FFBE"/>
<path d="M155.943 29.7967L157.901 27.8436C157.667 27.604 157.422 27.3592 157.183 27.1196L155.245 29.0936C155.479 29.3332 155.714 29.5623 155.943 29.7967Z" fill="#26FFBE"/>
<path d="M164.813 150.104L162.646 148.38C162.443 148.641 162.24 148.896 162.031 149.151L164.177 150.896C164.391 150.635 164.604 150.365 164.813 150.104Z" fill="#26FFBE"/>
<path d="M169.584 143.505L167.276 141.979C167.094 142.255 166.912 142.531 166.729 142.802L169.016 144.354C169.214 144.068 169.401 143.781 169.584 143.505Z" fill="#26FFBE"/>
<path d="M166.057 148.495L163.859 146.823C163.661 147.083 163.458 147.344 163.255 147.604L165.437 149.302C165.646 149.036 165.849 148.765 166.057 148.495Z" fill="#26FFBE"/>
<path d="M153.099 27.0522L154.964 25.0158C154.719 24.7866 154.464 24.5575 154.214 24.3335L152.37 26.3908C152.615 26.6095 152.854 26.8335 153.099 27.0522Z" fill="#26FFBE"/>
<path d="M168.448 145.193L166.172 143.62C165.99 143.891 165.797 144.161 165.609 144.432L167.865 146.031C168.057 145.755 168.255 145.474 168.448 145.193Z" fill="#26FFBE"/>
<path d="M167.276 146.865L165.037 145.24C164.844 145.505 164.646 145.771 164.448 146.037L166.667 147.682C166.87 147.412 167.073 147.13 167.276 146.865Z" fill="#26FFBE"/>
<path d="M58.1667 175.104L57.0938 177.656C57.4062 177.786 57.724 177.922 58.0365 178.047L59.0833 175.484C58.776 175.365 58.474 175.234 58.1667 175.104Z" fill="#26FFBE"/>
<path d="M151.63 25.7345L153.458 23.6564C153.208 23.4324 152.948 23.2085 152.693 22.9845L150.891 25.0782C151.135 25.297 151.385 25.5157 151.63 25.7345Z" fill="#26FFBE"/>
<path d="M163.531 151.687L161.406 149.917C161.192 150.167 160.979 150.422 160.771 150.672L162.875 152.463C163.088 152.208 163.312 151.948 163.531 151.687Z" fill="#26FFBE"/>
<path d="M56.3542 174.318L55.2344 176.844C55.5417 176.984 55.8542 177.12 56.1615 177.255L57.2656 174.719C56.9583 174.583 56.6562 174.453 56.3542 174.318Z" fill="#26FFBE"/>
<path d="M60.8857 179.162C61.2035 179.276 61.5264 179.396 61.8441 179.511L62.7764 176.901C62.4639 176.792 62.1566 176.677 61.8441 176.568L60.8857 179.162Z" fill="#26FFBE"/>
<path d="M63.7087 177.229L62.8076 179.849C63.1253 179.958 63.4482 180.068 63.7712 180.177L64.641 177.547C64.3285 177.443 64.0212 177.338 63.7087 177.229Z" fill="#26FFBE"/>
<path d="M60 175.854L58.9844 178.427C59.2969 178.552 59.6198 178.682 59.9323 178.797L60.9219 176.214C60.6146 176.094 60.3073 175.974 60 175.854Z" fill="#26FFBE"/>
<path d="M148.615 23.1927L150.344 21.0312C150.078 20.8229 149.813 20.6093 149.547 20.401L147.844 22.5833C148.099 22.7812 148.359 22.9843 148.615 23.1927Z" fill="#26FFBE"/>
<path d="M150.135 24.4481L151.916 22.3283C151.656 22.1095 151.396 21.8908 151.135 21.6772L149.38 23.8179C149.63 24.0262 149.885 24.2345 150.135 24.4481Z" fill="#26FFBE"/>
<path d="M51.0309 171.713L49.7393 174.161C50.0361 174.318 50.3382 174.479 50.6403 174.63L51.9059 172.172C51.6143 172.021 51.3226 171.87 51.0309 171.713Z" fill="#26FFBE"/>
<path d="M54.5625 173.49L53.375 175.99C53.6823 176.135 53.9948 176.281 54.2969 176.422L55.4531 173.906C55.1562 173.771 54.8594 173.63 54.5625 173.49Z" fill="#26FFBE"/>
<path d="M129.292 11.3698C129.594 11.5052 129.891 11.6406 130.193 11.7813L131.349 9.26042C131.042 9.11979 130.729 8.97917 130.422 8.84375L129.292 11.3698Z" fill="#26FFBE"/>
<path d="M52.7865 172.615L51.5469 175.094C51.849 175.245 52.1562 175.396 52.4583 175.542L53.6719 173.057C53.375 172.912 53.0833 172.766 52.7865 172.615Z" fill="#26FFBE"/>
<path d="M16.6406 41.3854L18.9323 42.9323C19.1146 42.6562 19.3021 42.3802 19.4896 42.1145L17.2135 40.5416C17.026 40.8177 16.8333 41.0989 16.6406 41.3854Z" fill="#26FFBE"/>
<path d="M13.4014 46.5677L15.792 47.9531C15.9587 47.6719 16.1253 47.3854 16.292 47.1042L13.917 45.6875C13.7451 45.9792 13.568 46.276 13.4014 46.5677Z" fill="#26FFBE"/>
<path d="M18.9893 38.0575L21.208 39.7033C21.4059 39.4377 21.6038 39.1772 21.8018 38.9116L19.5986 37.2397C19.3955 37.5106 19.1924 37.7814 18.9893 38.0575Z" fill="#26FFBE"/>
<path d="M17.8018 39.7031L20.057 41.3021C20.2445 41.0365 20.4372 40.7656 20.6299 40.5L18.3851 38.875C18.1924 39.151 17.9893 39.4323 17.8018 39.7031Z" fill="#26FFBE"/>
<path d="M15.5205 43.0885L17.8486 44.5833C18.0257 44.3073 18.2028 44.0312 18.3851 43.7552L16.0778 42.2344C15.8903 42.5156 15.708 42.8021 15.5205 43.0885Z" fill="#26FFBE"/>
<path d="M14.4424 44.8123L16.8018 46.2603C16.9736 45.979 17.1455 45.6978 17.3174 45.4165L14.9736 43.9478C14.8018 44.2342 14.6195 44.5259 14.4424 44.8123Z" fill="#26FFBE"/>
<path d="M20.2188 36.4323L22.4063 38.1302C22.6042 37.8698 22.8125 37.6094 23.0156 37.349L20.849 35.6302C20.6354 35.8959 20.4271 36.1667 20.2188 36.4323Z" fill="#26FFBE"/>
<path d="M10.1663 59.5103L7.59863 58.479C7.47363 58.7915 7.34863 59.1092 7.22363 59.4269L9.80176 60.4321C9.92155 60.1196 10.0413 59.8175 10.1663 59.5103Z" fill="#26FFBE"/>
<path d="M23.1403 148.479C22.932 148.224 22.7288 147.963 22.5257 147.698L20.3486 149.401C20.5518 149.667 20.7653 149.937 20.9788 150.203L23.1403 148.479Z" fill="#26FFBE"/>
<path d="M11.7188 55.8698L9.20313 54.724C9.0625 55.0313 8.92188 55.3438 8.78125 55.6563L11.3125 56.7709C11.4479 56.4688 11.5833 56.1667 11.7188 55.8698Z" fill="#26FFBE"/>
<path d="M22.7861 33.2707L24.8903 35.0623C25.1038 34.8123 25.3174 34.5623 25.5309 34.3123L23.4476 32.4946C23.2236 32.755 22.9997 33.0155 22.7861 33.2707Z" fill="#26FFBE"/>
<path d="M12.5518 54.0783L10.0622 52.8804C9.91634 53.1825 9.77051 53.495 9.62988 53.8022L12.1299 54.9793C12.2705 54.672 12.4111 54.3752 12.5518 54.0783Z" fill="#26FFBE"/>
<path d="M21.4844 34.8335L23.6302 36.5835C23.8385 36.3282 24.0469 36.073 24.2552 35.8178L22.1302 34.047C21.9115 34.3074 21.6979 34.573 21.4844 34.8335Z" fill="#26FFBE"/>
<path d="M57.0205 8.07275L58.0986 10.6248C58.4007 10.4946 58.708 10.3644 59.0101 10.2394L57.9632 7.68213C57.6507 7.80713 57.333 7.93734 57.0205 8.07275Z" fill="#26FFBE"/>
<path d="M58.9111 7.29167L59.932 9.86979C60.2393 9.74479 60.5465 9.625 60.8538 9.50521L59.859 6.92188C59.5465 7.04167 59.2236 7.16667 58.9111 7.29167Z" fill="#26FFBE"/>
<path d="M55.1455 8.89046L56.2861 11.4165C56.5882 11.2811 56.8903 11.1457 57.1924 11.0155L56.083 8.479C55.7705 8.60921 55.458 8.75505 55.1455 8.89046Z" fill="#26FFBE"/>
<path d="M53.292 9.75505L54.4847 12.255C54.7816 12.1092 55.0837 11.9686 55.3805 11.8332L54.2191 9.32275C53.9118 9.46338 53.5993 9.60921 53.292 9.75505Z" fill="#26FFBE"/>
<path d="M51.458 10.6615L52.7028 13.1302C52.9997 12.9792 53.2965 12.8333 53.5934 12.6875L52.3695 10.2031C52.0674 10.3542 51.7601 10.5052 51.458 10.6615Z" fill="#26FFBE"/>
<path d="M10.5107 51.9582L12.9899 53.1873C13.1357 52.8905 13.2816 52.5936 13.4326 52.3019L10.9691 51.0415C10.8128 51.3488 10.6618 51.6561 10.5107 51.9582Z" fill="#26FFBE"/>
<path d="M60.8174 6.55729L61.7809 9.15104C62.0882 9.03646 62.4007 8.92188 62.7132 8.80729L61.7757 6.20312C61.458 6.31771 61.1351 6.4375 60.8174 6.55729Z" fill="#26FFBE"/>
<path d="M12.3955 48.3438L14.8174 49.6771C14.9736 49.3906 15.1351 49.1042 15.2965 48.8125L12.8955 47.4531C12.7288 47.7448 12.5622 48.0469 12.3955 48.3438Z" fill="#26FFBE"/>
<path d="M11.4375 50.1355L13.8854 51.4168C14.0365 51.1251 14.1927 50.8335 14.349 50.5418L11.9115 49.2345C11.75 49.5366 11.5885 49.8387 11.4375 50.1355Z" fill="#26FFBE"/>
<path d="M70.5674 3.5262L71.2393 6.2137C71.5622 6.13558 71.8851 6.05225 72.2028 5.97933L71.5622 3.28662C71.234 3.36475 70.9007 3.44808 70.5674 3.5262Z" fill="#26FFBE"/>
<path d="M76.5576 2.24495L77.0472 4.96891C77.3701 4.91162 77.6982 4.85433 78.0212 4.80225L77.568 2.06787C77.2347 2.12516 76.8962 2.18245 76.5576 2.24495Z" fill="#26FFBE"/>
<path d="M7.54655 66.979L4.90592 66.1821C4.80697 66.505 4.70801 66.8332 4.61426 67.1613L7.27051 67.9321C7.35905 67.6144 7.4528 67.2967 7.54655 66.979Z" fill="#26FFBE"/>
<path d="M78.5732 1.90625L79.0003 4.64063C79.3232 4.58854 79.6514 4.53646 79.9795 4.48958L79.5837 1.75C79.2451 1.80208 78.9066 1.85417 78.5732 1.90625Z" fill="#26FFBE"/>
<path d="M110.5 5.34371C110.823 5.41142 111.146 5.47913 111.469 5.54683L112.047 2.8385C111.714 2.77079 111.38 2.69788 111.047 2.63538L110.5 5.34371Z" fill="#26FFBE"/>
<path d="M104.646 4.36442C104.974 4.40609 105.302 4.45296 105.625 4.49984L106.021 1.76025C105.687 1.71338 105.349 1.6613 105.01 1.61963L104.646 4.36442Z" fill="#26FFBE"/>
<path d="M9.44824 61.3543L6.8597 60.3804C6.74512 60.6981 6.62532 61.021 6.51074 61.3387L9.10449 62.2814C9.21908 61.9741 9.33366 61.6616 9.44824 61.3543Z" fill="#26FFBE"/>
<path d="M0.96875 91.3386L3.73438 91.3855C3.73958 91.0573 3.74479 90.724 3.75521 90.3959L0.989583 90.3177C0.984375 90.6563 0.979166 91 0.96875 91.3386Z" fill="#26FFBE"/>
<path d="M3.95801 86.4323L1.19759 86.2344C1.17676 86.5729 1.15072 86.9167 1.12988 87.25L3.8903 87.4219C3.91113 87.0885 3.93197 86.7604 3.95801 86.4323Z" fill="#26FFBE"/>
<path d="M4.11979 84.4583L1.36979 84.1979C1.33854 84.5312 1.30729 84.875 1.28125 85.2135L4.03125 85.4427C4.0625 85.1145 4.08854 84.7864 4.11979 84.4583Z" fill="#26FFBE"/>
<path d="M125.651 9.83317C125.959 9.95817 126.266 10.078 126.573 10.203L127.615 7.64046C127.297 7.51025 126.985 7.38525 126.667 7.26025L125.651 9.83317Z" fill="#26FFBE"/>
<path d="M127.479 10.5833C127.782 10.7083 128.089 10.8385 128.386 10.974L129.49 8.43229C129.177 8.29688 128.86 8.16146 128.552 8.03125L127.479 10.5833Z" fill="#26FFBE"/>
<path d="M123.802 9.13021C124.109 9.24479 124.422 9.35937 124.729 9.47917L125.713 6.89063C125.401 6.77083 125.078 6.65104 124.76 6.53125L123.802 9.13021Z" fill="#26FFBE"/>
<path d="M120.062 7.83866C120.38 7.93762 120.693 8.04179 121.005 8.14596L121.875 5.52096C121.557 5.41158 121.229 5.30741 120.906 5.20325L120.062 7.83866Z" fill="#26FFBE"/>
<path d="M121.942 8.4637C122.25 8.57308 122.567 8.68245 122.875 8.79183L123.802 6.18245C123.484 6.06787 123.161 5.9585 122.838 5.84912L121.942 8.4637Z" fill="#26FFBE"/>
<path d="M3.83366 88.4116L1.07324 88.271C1.05241 88.6095 1.03678 88.9533 1.02637 89.2918L3.78678 89.4012C3.80241 89.0731 3.81803 88.745 3.83366 88.4116Z" fill="#26FFBE"/>
<path d="M6.99967 68.8854L4.33301 68.1406C4.24447 68.4688 4.15592 68.7969 4.06738 69.1302L6.73926 69.8385C6.82259 69.5208 6.90592 69.1979 6.99967 68.8854Z" fill="#26FFBE"/>
<path d="M4.3278 82.4845L1.58301 82.1616C1.54655 82.5002 1.50488 82.8387 1.47363 83.1772L4.21842 83.4689C4.25488 83.1408 4.29134 82.8127 4.3278 82.4845Z" fill="#26FFBE"/>
<path d="M6.48958 70.7969L3.80729 70.1146C3.72396 70.448 3.64063 70.7761 3.5625 71.1094L6.24479 71.7605C6.32813 71.4427 6.40625 71.1198 6.48958 70.7969Z" fill="#26FFBE"/>
<path d="M8.14063 65.0937L5.51042 64.2291C5.40625 64.552 5.30208 64.875 5.20312 65.2031L7.83854 66.0312C7.9375 65.7187 8.03646 65.4062 8.14063 65.0937Z" fill="#26FFBE"/>
<path d="M8.77572 63.2137L6.16634 62.3022C6.05176 62.62 5.94238 62.9429 5.83301 63.2658L8.44759 64.1512C8.55697 63.8387 8.66634 63.5262 8.77572 63.2137Z" fill="#26FFBE"/>
<path d="M49.6406 11.6043L50.9479 14.047C51.2344 13.8907 51.5313 13.7345 51.8229 13.5835L50.5469 11.1251C50.2448 11.2866 49.9427 11.4428 49.6406 11.6043Z" fill="#26FFBE"/>
<path d="M4.87467 78.5575L2.15072 78.1147C2.09343 78.4533 2.04134 78.7866 1.98926 79.12L4.72363 79.5366C4.77572 79.2137 4.82259 78.8856 4.87467 78.5575Z" fill="#26FFBE"/>
<path d="M6.02116 72.7238L3.32845 72.104C3.25553 72.4321 3.17741 72.7655 3.10449 73.0988L5.80241 73.6925C5.87532 73.3696 5.94824 73.0467 6.02116 72.7238Z" fill="#26FFBE"/>
<path d="M4.58301 80.5207L1.84342 80.1353C1.79655 80.4686 1.75488 80.8071 1.70801 81.1457L4.4528 81.4998C4.49447 81.1717 4.53613 80.8436 4.58301 80.5207Z" fill="#26FFBE"/>
<path d="M5.59863 74.6616L2.89551 74.0991C2.8278 74.4325 2.76009 74.7658 2.69238 75.0991L5.40592 75.6304C5.46843 75.3075 5.53092 74.9845 5.59863 74.6616Z" fill="#26FFBE"/>
<path d="M5.21322 76.604L2.49967 76.104C2.43717 76.4373 2.37467 76.7707 2.31738 77.1092L5.04134 77.5832C5.09863 77.255 5.15592 76.9321 5.21322 76.604Z" fill="#26FFBE"/>
<path d="M10.9219 57.677L8.38021 56.5885C8.25 56.901 8.11458 57.2135 7.98438 57.5312L10.5365 58.5885C10.6615 58.2864 10.7917 57.9843 10.9219 57.677Z" fill="#26FFBE"/>
<path d="M5.20345 109.146C5.14095 108.823 5.08366 108.495 5.02637 108.172L2.30762 108.641C2.36491 108.979 2.42741 109.313 2.48991 109.651L5.20345 109.146Z" fill="#26FFBE"/>
<path d="M6.01042 113.031C5.9375 112.708 5.86458 112.386 5.79167 112.063L3.09375 112.656C3.16667 112.995 3.23958 113.328 3.31771 113.656L6.01042 113.031Z" fill="#26FFBE"/>
<path d="M5.58301 111.094C5.5153 110.771 5.4528 110.443 5.3903 110.12L2.67676 110.656C2.73926 110.989 2.80697 111.323 2.87988 111.661L5.58301 111.094Z" fill="#26FFBE"/>
<path d="M6.98991 116.875C6.90137 116.557 6.81283 116.234 6.72949 115.917L4.05762 116.635C4.14095 116.958 4.2347 117.292 4.32845 117.62L6.98991 116.875Z" fill="#26FFBE"/>
<path d="M6.47884 114.958C6.39551 114.64 6.31738 114.318 6.23926 113.995L3.55176 114.651C3.63509 114.979 3.71842 115.312 3.80176 115.646L6.47884 114.958Z" fill="#26FFBE"/>
<path d="M4.86491 107.193C4.81283 106.864 4.76074 106.536 4.71387 106.213L1.97949 106.625C2.03157 106.958 2.08366 107.297 2.13574 107.635L4.86491 107.193Z" fill="#26FFBE"/>
<path d="M4.1097 101.292C4.08366 100.964 4.05241 100.63 4.02637 100.302L1.27637 100.531C1.30241 100.865 1.33366 101.214 1.36491 101.547L4.1097 101.292Z" fill="#26FFBE"/>
<path d="M4.31803 103.26C4.28158 102.937 4.24512 102.604 4.20866 102.276L1.46387 102.568C1.49512 102.901 1.53678 103.25 1.57324 103.583L4.31803 103.26Z" fill="#26FFBE"/>
<path d="M7.54167 118.781C7.44792 118.464 7.35417 118.146 7.26042 117.828L4.60938 118.604C4.70313 118.927 4.80208 119.261 4.90104 119.589L7.54167 118.781Z" fill="#26FFBE"/>
<path d="M4.56803 105.229C4.52637 104.901 4.47949 104.573 4.43783 104.245L1.69824 104.599C1.73991 104.932 1.78678 105.276 1.83366 105.609L4.56803 105.229Z" fill="#26FFBE"/>
<path d="M3.94792 99.3125C3.92188 98.9843 3.90104 98.651 3.88542 98.3229L1.125 98.4895C1.14583 98.8281 1.16667 99.1718 1.19271 99.5104L3.94792 99.3125Z" fill="#26FFBE"/>
<path d="M18.4896 142.062C18.3073 141.786 18.125 141.505 17.9479 141.229L15.625 142.734C15.8073 143.016 15.9948 143.307 16.1823 143.589L18.4896 142.062Z" fill="#26FFBE"/>
<path d="M8.14063 120.672C8.03646 120.365 7.9375 120.047 7.83854 119.729L5.20312 120.562C5.30208 120.891 5.41146 121.214 5.51563 121.536L8.14063 120.672Z" fill="#26FFBE"/>
<path d="M10.9482 128.099C10.818 127.797 10.6878 127.484 10.5576 127.188L8.01074 128.25C8.14095 128.563 8.27637 128.88 8.41178 129.193L10.9482 128.099Z" fill="#26FFBE"/>
<path d="M11.7497 129.917C11.6143 129.62 11.4788 129.312 11.3434 129.01L8.81738 130.135C8.95801 130.448 9.09863 130.76 9.23926 131.068L11.7497 129.917Z" fill="#26FFBE"/>
<path d="M15.3698 136.984C15.2031 136.698 15.0469 136.406 14.8854 136.12L12.4688 137.458C12.6354 137.755 12.8073 138.057 12.974 138.354L15.3698 136.984Z" fill="#26FFBE"/>
<path d="M14.4066 135.245C14.2503 134.958 14.0941 134.661 13.9378 134.37L11.4951 135.661C11.6514 135.963 11.8128 136.265 11.9743 136.562L14.4066 135.245Z" fill="#26FFBE"/>
<path d="M13.4844 133.49C13.3333 133.193 13.1823 132.896 13.0365 132.604L10.5625 133.839C10.7135 134.141 10.8698 134.448 11.0208 134.75L13.4844 133.49Z" fill="#26FFBE"/>
<path d="M8.78158 122.552C8.6722 122.24 8.56283 121.927 8.45345 121.615L5.83887 122.511C5.94824 122.828 6.06283 123.156 6.1722 123.474L8.78158 122.552Z" fill="#26FFBE"/>
<path d="M10.182 126.266C10.057 125.964 9.93717 125.651 9.81217 125.344L7.23926 126.349C7.36426 126.667 7.49447 126.99 7.61947 127.302L10.182 126.266Z" fill="#26FFBE"/>
<path d="M17.4111 140.391C17.234 140.109 17.057 139.828 16.8851 139.547L14.5361 141C14.708 141.286 14.8955 141.578 15.0778 141.87L17.4111 140.391Z" fill="#26FFBE"/>
<path d="M9.45801 124.417C9.34343 124.115 9.22884 123.797 9.11426 123.49L6.52051 124.438C6.63509 124.761 6.75488 125.083 6.87467 125.396L9.45801 124.417Z" fill="#26FFBE"/>
<path d="M3.72363 93.3698C3.72363 93.224 3.72363 93.0781 3.72363 92.9323C3.72363 92.7448 3.72363 92.5625 3.72363 92.375L0.958008 92.3594C0.958008 92.5521 0.958008 92.7396 0.958008 92.9271C0.958008 93.0781 0.958008 93.2292 0.958008 93.3802L3.72363 93.3698Z" fill="#26FFBE"/>
<path d="M35.9795 20.5522L37.6878 22.7293C37.9482 22.5262 38.2087 22.3231 38.4691 22.12L36.7816 19.9272C36.516 20.1304 36.2451 20.3439 35.9795 20.5522Z" fill="#26FFBE"/>
<path d="M47.8486 12.5885L49.2028 15.0052C49.4893 14.8385 49.7809 14.6771 50.0674 14.5208L48.7393 12.0938C48.4476 12.2552 48.1455 12.4219 47.8486 12.5885Z" fill="#26FFBE"/>
<path d="M37.5938 19.3074L39.2552 21.521C39.5156 21.323 39.7812 21.1251 40.0469 20.9324L38.4115 18.7032C38.1354 18.9012 37.8646 19.1043 37.5938 19.3074Z" fill="#26FFBE"/>
<path d="M32.8281 23.1512L34.6302 25.2449C34.8802 25.0314 35.1302 24.8178 35.3854 24.6043L33.6042 22.4845C33.349 22.7032 33.0885 22.9272 32.8281 23.1512Z" fill="#26FFBE"/>
<path d="M34.3906 21.8335L36.1458 23.9689C36.401 23.7605 36.6562 23.5522 36.9167 23.3439L35.1823 21.1876C34.9167 21.4012 34.651 21.6199 34.3906 21.8335Z" fill="#26FFBE"/>
<path d="M3.8278 97.3333C3.81217 97.0052 3.79655 96.6719 3.78613 96.3438L1.02051 96.4479C1.03613 96.7813 1.05176 97.1302 1.06738 97.4688L3.8278 97.3333Z" fill="#26FFBE"/>
<path d="M31.2969 24.5L33.1458 26.5573C33.3906 26.3386 33.6406 26.1146 33.8854 25.8959L32.0573 23.8177C31.8073 24.0469 31.5469 24.2709 31.2969 24.5Z" fill="#26FFBE"/>
<path d="M44.333 14.6772L45.7913 17.0262C46.0726 16.8543 46.3538 16.6772 46.6351 16.5054L45.2028 14.146C44.9111 14.3179 44.6195 14.5002 44.333 14.6772Z" fill="#26FFBE"/>
<path d="M39.6927 17.7709C39.5417 17.8802 39.3854 17.9896 39.2344 18.099L40.849 20.349C40.9948 20.2396 41.1458 20.1355 41.2917 20.0261L41.6563 19.7709L40.0625 17.5052L39.6927 17.7709Z" fill="#26FFBE"/>
<path d="M42.6094 15.7812L44.1198 18.0989C44.401 17.9166 44.6771 17.7395 44.9583 17.5625L43.4688 15.2291C43.1823 15.4062 42.8906 15.5937 42.6094 15.7812Z" fill="#26FFBE"/>
<path d="M40.9062 16.9219L42.4688 19.2084C42.7448 19.0209 43.0208 18.8334 43.2917 18.6511L41.7552 16.349C41.474 16.5365 41.1875 16.7292 40.9062 16.9219Z" fill="#26FFBE"/>
<path d="M46.0781 13.6146L47.4896 16C47.7708 15.8282 48.0573 15.6615 48.3438 15.4948L46.9635 13.099C46.6667 13.2709 46.3698 13.4427 46.0781 13.6146Z" fill="#26FFBE"/>
<path d="M24.1201 31.7345L26.1826 33.5731C26.4014 33.3283 26.6201 33.0835 26.8441 32.8387L24.7972 30.9741C24.568 31.2241 24.3441 31.4793 24.1201 31.7345Z" fill="#26FFBE"/>
<path d="M19.6042 143.708C19.4115 143.438 19.224 143.162 19.0417 142.891L16.75 144.443C16.9427 144.724 17.1354 145.005 17.3333 145.287L19.6042 143.708Z" fill="#26FFBE"/>
<path d="M16.3698 138.698C16.2031 138.417 16.0312 138.13 15.8698 137.844L13.4844 139.245C13.6562 139.537 13.8333 139.828 14.0052 140.125L16.3698 138.698Z" fill="#26FFBE"/>
<path d="M20.7503 145.328C20.5576 145.062 20.3649 144.792 20.1722 144.526L17.917 146.125C18.1149 146.406 18.3128 146.682 18.516 146.958L20.7503 145.328Z" fill="#26FFBE"/>
<path d="M3.75521 95.3542C3.74479 95.0209 3.73437 94.6927 3.72917 94.3646L0.96875 94.4063C0.973958 94.7448 0.979167 95.0886 0.989583 95.4271L3.75521 95.3542Z" fill="#26FFBE"/>
<path d="M28.3281 27.2968L30.2656 29.2708C30.5 29.0416 30.7344 28.8125 30.974 28.5833L29.0573 26.5885C28.8125 26.8229 28.5677 27.0625 28.3281 27.2968Z" fill="#26FFBE"/>
<path d="M26.8906 28.7449L28.8698 30.672C29.099 30.4376 29.3281 30.2032 29.5625 29.9689L27.6042 28.0157C27.3646 28.2605 27.125 28.5053 26.8906 28.7449Z" fill="#26FFBE"/>
<path d="M29.7969 25.8803L31.6875 27.896C31.9271 27.672 32.1719 27.448 32.4115 27.2241L30.5417 25.1876C30.2917 25.4168 30.0417 25.6512 29.7969 25.8803Z" fill="#26FFBE"/>
<path d="M25.4844 30.2241L27.5104 32.1095C27.7344 31.8699 27.9583 31.6303 28.1823 31.3907L26.1823 29.4845C25.9479 29.7293 25.7135 29.9793 25.4844 30.2241Z" fill="#26FFBE"/>
<path d="M21.9268 146.917C21.7288 146.656 21.5309 146.391 21.333 146.125L19.1143 147.776C19.3174 148.052 19.5205 148.323 19.7288 148.594L21.9268 146.917Z" fill="#26FFBE"/>
<path d="M136.906 22.9115C135.734 22.9115 134.594 23.0938 133.49 23.4688C132.609 22.9532 131.724 22.4532 130.828 21.974L126.714 29.6667L126.912 29.7709C126.49 30.8646 126.25 32 126.198 33.1719C126.151 34.3386 126.287 35.4896 126.609 36.6146C126.932 37.7396 127.427 38.7865 128.094 39.75C128.76 40.7136 129.563 41.5469 130.5 42.2448C131.438 42.948 132.464 43.4792 133.573 43.8438C134.688 44.2084 135.828 44.3855 137 44.375C138.167 44.3646 139.307 44.1719 140.412 43.7865C141.516 43.4063 142.531 42.8542 143.458 42.1407C143.599 42.2761 143.734 42.4167 143.87 42.5573L150.089 36.448C149.287 35.6302 148.458 34.823 147.615 34.0313C147.62 33.9063 147.625 33.7813 147.625 33.6511C147.62 32.948 147.552 32.25 147.417 31.5573C147.276 30.8646 147.073 30.198 146.802 29.5417C146.537 28.8907 146.203 28.2761 145.813 27.6875C145.422 27.1042 144.979 26.5573 144.479 26.0625C143.984 25.5625 143.443 25.1198 142.859 24.724C142.271 24.3334 141.656 24 141.005 23.7344C140.354 23.4636 139.688 23.2552 138.995 23.1198C138.307 22.9792 137.609 22.9115 136.906 22.9115ZM142.557 41.2448C142 41.6615 141.401 42.0105 140.766 42.2969C140.13 42.5782 139.474 42.7917 138.792 42.9323C138.109 43.0678 137.422 43.1302 136.729 43.1198C136.031 43.1042 135.349 43.0157 134.672 42.8542C133.995 42.6875 133.344 42.4532 132.724 42.1459C132.099 41.8386 131.516 41.4636 130.974 41.0313C130.432 40.5938 129.943 40.1042 129.51 39.5573C129.078 39.0157 128.708 38.4271 128.401 37.8021C128.094 37.1771 127.865 36.5261 127.703 35.849C127.537 35.1719 127.453 34.4844 127.443 33.7865C127.432 33.0886 127.495 32.4011 127.635 31.7188C127.776 31.0365 127.99 30.3802 128.276 29.7448C128.563 29.1094 128.917 28.5105 129.333 27.9532C129.75 27.3959 130.224 26.8907 130.75 26.4375C131.276 25.9844 131.849 25.599 132.464 25.2709C133.078 24.9427 133.719 24.6875 134.391 24.5C135.063 24.3177 135.745 24.2084 136.438 24.1719C137.13 24.1407 137.823 24.1823 138.505 24.2969C139.193 24.4167 139.859 24.6094 140.5 24.875C141.141 25.1355 141.75 25.4688 142.318 25.8698C142.891 26.2657 143.412 26.724 143.88 27.2344C144.349 27.75 144.755 28.3073 145.104 28.9115C145.453 29.5157 145.729 30.1511 145.938 30.8177C146.141 31.4792 146.276 32.1615 146.333 32.8542C146.354 33.1146 146.365 33.3802 146.365 33.6511C146.365 35.1459 146.031 36.5625 145.359 37.9011C144.688 39.2344 143.755 40.349 142.557 41.2448Z" fill="#26FFBE"/>
</svg>
