<svg width="117" height="117" viewBox="0 0 117 117" fill="none" xmlns="http://www.w3.org/2000/svg">
<path d="M35.818 109.13C31.4118 107.109 27.3441 104.552 23.6149 101.453L21.8545 103.583C25.766 106.839 30.0368 109.526 34.6618 111.646L35.818 109.13Z" fill="#26FFBE"/>
<path d="M11.5677 92.4635L13.8281 90.8698L13.8125 90.8489C11.0104 86.8958 8.76563 82.6458 7.07292 78.1041L4.48438 79.0677C6.26042 83.8385 8.61458 88.2968 11.5573 92.4479L11.5677 92.4635Z" fill="#26FFBE"/>
<path d="M1.68717 49.1353C1.1403 52.3644 0.869467 55.6196 0.864258 58.9009C0.864258 60.6925 0.94759 62.4998 1.11947 64.2811L3.86947 64.0259C3.71322 62.328 3.62988 60.604 3.62988 58.9009C3.62988 55.7759 3.89551 52.6769 4.41634 49.5988L1.68717 49.1353Z" fill="#26FFBE"/>
<path d="M14.1826 21.8022C10.9326 25.7293 8.25553 30.0106 6.13574 34.646L8.65137 35.797C10.6618 31.3804 13.2191 27.3075 16.3076 23.5731L14.1826 21.8022Z" fill="#26FFBE"/>
<path d="M25.3128 11.4741L25.2764 11.5002L26.8805 13.7554L26.9066 13.7345C30.8493 10.9325 35.0837 8.68766 39.6149 6.98975L38.6514 4.396C33.8962 6.17204 29.4535 8.53141 25.3128 11.4741Z" fill="#26FFBE"/>
<path d="M81.8438 8.56262C86.25 10.5835 90.3177 13.1407 94.0521 16.2345L95.8125 14.1043C91.8958 10.8543 87.6198 8.16679 82.9948 6.047L81.8438 8.56262Z" fill="#26FFBE"/>
<path d="M49.1299 116.104C52.359 116.656 55.6143 116.932 58.8903 116.932C60.6715 116.932 62.4788 116.849 64.2497 116.682L63.9997 113.922C62.307 114.083 60.5882 114.161 58.8903 114.161C55.7705 114.161 52.6715 113.896 49.5934 113.375L49.1299 116.104Z" fill="#26FFBE"/>
<path d="M53.4062 1.02087L53.6667 3.78129C55.3594 3.61983 57.0885 3.54171 58.7917 3.54171C61.9062 3.54171 65 3.80212 68.0677 4.32296L68.5313 1.59379C65.3073 1.04692 62.0625 0.770874 58.7917 0.770874C57 0.770874 55.1875 0.854207 53.4062 1.02087Z" fill="#26FFBE"/>
<path d="M92.3906 106.214L92.3802 106.219L90.7865 103.953L90.776 103.964C86.8281 106.771 82.5833 109.026 78.0469 110.719L79.0104 113.313C83.776 111.537 88.2292 109.172 92.375 106.224L92.3906 106.214Z" fill="#26FFBE"/>
<path d="M106.099 25.2188L103.849 26.8229L103.875 26.8594C106.682 30.8177 108.927 35.0729 110.619 39.625L113.208 38.6615C111.432 33.8854 109.073 29.4167 106.13 25.2604L106.099 25.2188Z" fill="#26FFBE"/>
<path d="M115.99 68.5938C116.542 65.3542 116.818 62.0886 116.818 58.8021C116.818 57.0209 116.734 55.2188 116.568 53.4427L113.818 53.6927C113.974 55.3855 114.052 57.099 114.052 58.7969C114.052 61.9323 113.792 65.0365 113.266 68.125L115.99 68.5938Z" fill="#26FFBE"/>
<path d="M103.484 95.9167C106.734 91.9948 109.417 87.7136 111.536 83.0834L109.026 81.9271C107.01 86.3386 104.453 90.4167 101.359 94.1511L103.484 95.9167Z" fill="#26FFBE"/>
</svg>
