<?xml version="1.0" encoding="UTF-8"?>
<!DOCTYPE svg PUBLIC "-//W3C//DTD SVG 1.1//EN" "http://www.w3.org/Graphics/SVG/1.1/DTD/svg11.dtd">
<svg xmlns="http://www.w3.org/2000/svg" version="1.1" width="112px" height="58px" style="shape-rendering:geometricPrecision; text-rendering:geometricPrecision; image-rendering:optimizeQuality; fill-rule:evenodd; clip-rule:evenodd" xmlns:xlink="http://www.w3.org/1999/xlink">
<g><path style="opacity:0.837" fill="#7e5ed1" d="M 0.5,-0.5 C 6.5,-0.5 12.5,-0.5 18.5,-0.5C 17.8902,0.391047 17.5569,1.39105 17.5,2.5C 12.6367,2.18054 7.97005,2.51388 3.5,3.5C 3.5,17.1667 3.5,30.8333 3.5,44.5C 4.91866,45.4511 6.58533,45.7845 8.5,45.5C 8.5,46.1667 8.5,46.8333 8.5,47.5C 6.58533,47.2155 4.91866,47.5489 3.5,48.5C 3.5,50.1667 3.5,51.8333 3.5,53.5C 8.97533,54.4889 14.642,54.8222 20.5,54.5C 20.5569,55.609 20.8902,56.609 21.5,57.5C 14.5,57.5 7.5,57.5 0.5,57.5C 0.5,56.8333 0.166667,56.5 -0.5,56.5C -0.5,37.8333 -0.5,19.1667 -0.5,0.5C 0.166667,0.5 0.5,0.166667 0.5,-0.5 Z"/></g>
<g><path style="opacity:0.821" fill="#8084e2" d="M 18.5,-0.5 C 24.5,-0.5 30.5,-0.5 36.5,-0.5C 36.5,0.5 36.5,1.5 36.5,2.5C 30.1667,2.5 23.8333,2.5 17.5,2.5C 17.5569,1.39105 17.8902,0.391047 18.5,-0.5 Z"/></g>
<g><path style="opacity:0.75" fill="#6787bd" d="M 36.5,-0.5 C 42.8333,-0.5 49.1667,-0.5 55.5,-0.5C 55.5,0.5 55.5,1.5 55.5,2.5C 61.8333,2.5 68.1667,2.5 74.5,2.5C 80.8333,2.5 87.1667,2.5 93.5,2.5C 95.7354,2.20528 97.7354,2.53862 99.5,3.5C 67.5,3.5 35.5,3.5 3.5,3.5C 7.97005,2.51388 12.6367,2.18054 17.5,2.5C 23.8333,2.5 30.1667,2.5 36.5,2.5C 36.5,1.5 36.5,0.5 36.5,-0.5 Z"/></g>
<g><path style="opacity:0.945" fill="#77b8e9" d="M 55.5,-0.5 C 62.1667,-0.5 68.8333,-0.5 75.5,-0.5C 74.8902,0.391047 74.5569,1.39105 74.5,2.5C 68.1667,2.5 61.8333,2.5 55.5,2.5C 55.5,1.5 55.5,0.5 55.5,-0.5 Z"/></g>
<g><path style="opacity:0.908" fill="#73d1ed" d="M 75.5,-0.5 C 81.1667,-0.5 86.8333,-0.5 92.5,-0.5C 92.5569,0.608953 92.8902,1.60895 93.5,2.5C 87.1667,2.5 80.8333,2.5 74.5,2.5C 74.5569,1.39105 74.8902,0.391047 75.5,-0.5 Z"/></g>
<g><path style="opacity:1" fill="#141715" d="M 3.5,3.5 C 35.5,3.5 67.5,3.5 99.5,3.5C 102.13,5.6281 104.63,7.96144 107,10.5C 107.5,21.8284 107.667,33.1618 107.5,44.5C 72.8333,44.5 38.1667,44.5 3.5,44.5C 3.5,30.8333 3.5,17.1667 3.5,3.5 Z"/></g>
<g><path style="opacity:0.842" fill="#6ee7ed" d="M 92.5,-0.5 C 95.5,-0.5 98.5,-0.5 101.5,-0.5C 104.862,3.19249 108.195,6.85916 111.5,10.5C 111.5,25.8333 111.5,41.1667 111.5,56.5C 110.833,56.5 110.5,56.8333 110.5,57.5C 103.5,57.5 96.5,57.5 89.5,57.5C 88.1667,56.5 88.1667,55.5 89.5,54.5C 95.69,54.8229 101.69,54.4896 107.5,53.5C 107.5,51.8333 107.5,50.1667 107.5,48.5C 103.03,47.5139 98.3633,47.1805 93.5,47.5C 93.5,46.8333 93.5,46.1667 93.5,45.5C 98.3633,45.8195 103.03,45.4861 107.5,44.5C 107.667,33.1618 107.5,21.8284 107,10.5C 104.63,7.96144 102.13,5.6281 99.5,3.5C 97.7354,2.53862 95.7354,2.20528 93.5,2.5C 92.8902,1.60895 92.5569,0.608953 92.5,-0.5 Z"/></g>
<g><path style="opacity:1" fill="#8279e1" d="M 8.5,45.5 C 14.8333,45.5 21.1667,45.5 27.5,45.5C 27.5,46.1667 27.5,46.8333 27.5,47.5C 21.1667,47.5 14.8333,47.5 8.5,47.5C 8.5,46.8333 8.5,46.1667 8.5,45.5 Z"/></g>
<g><path style="opacity:1" fill="#5a8baa" d="M 3.5,44.5 C 38.1667,44.5 72.8333,44.5 107.5,44.5C 103.03,45.4861 98.3633,45.8195 93.5,45.5C 86.9861,45.0446 80.6527,45.5446 74.5,47C 80.8246,47.4995 87.1579,47.6662 93.5,47.5C 98.3633,47.1805 103.03,47.5139 107.5,48.5C 72.8333,48.5 38.1667,48.5 3.5,48.5C 4.91866,47.5489 6.58533,47.2155 8.5,47.5C 14.8333,47.5 21.1667,47.5 27.5,47.5C 63.5,46.8333 63.5,46.1667 27.5,45.5C 21.1667,45.5 14.8333,45.5 8.5,45.5C 6.58533,45.7845 4.91866,45.4511 3.5,44.5 Z"/></g>
<g><path style="opacity:1" fill="#73d1ed" d="M 93.5,45.5 C 93.5,46.1667 93.5,46.8333 93.5,47.5C 87.1579,47.6662 80.8246,47.4995 74.5,47C 80.6527,45.5446 86.9861,45.0446 93.5,45.5 Z"/></g>
<g><path style="opacity:1" fill="#7d96e5" d="M 27.5,45.5 C 63.5,46.1667 63.5,46.8333 27.5,47.5C 27.5,46.8333 27.5,46.1667 27.5,45.5 Z"/></g>
<g><path style="opacity:1" fill="#131714" d="M 3.5,48.5 C 38.1667,48.5 72.8333,48.5 107.5,48.5C 107.5,50.1667 107.5,51.8333 107.5,53.5C 72.8333,53.5 38.1667,53.5 3.5,53.5C 3.5,51.8333 3.5,50.1667 3.5,48.5 Z"/></g>
<g><path style="opacity:0.833" fill="#817ee1" d="M 20.5,54.5 C 23.8333,54.5 27.1667,54.5 30.5,54.5C 30.5569,55.609 30.8902,56.609 31.5,57.5C 28.1667,57.5 24.8333,57.5 21.5,57.5C 20.8902,56.609 20.5569,55.609 20.5,54.5 Z"/></g>
<g><path style="opacity:0.857" fill="#7e91e4" d="M 30.5,54.5 C 36.5,54.5 42.5,54.5 48.5,54.5C 48.5,55.5 48.5,56.5 48.5,57.5C 42.8333,57.5 37.1667,57.5 31.5,57.5C 30.8902,56.609 30.5569,55.609 30.5,54.5 Z"/></g>
<g><path style="opacity:0.866" fill="#6591bd" d="M 3.5,53.5 C 38.1667,53.5 72.8333,53.5 107.5,53.5C 101.69,54.4896 95.69,54.8229 89.5,54.5C 81.8045,54.1692 74.1378,54.5025 66.5,55.5C 66.8627,56.1835 67.1961,56.8501 67.5,57.5C 61.1667,57.5 54.8333,57.5 48.5,57.5C 48.5,56.5 48.5,55.5 48.5,54.5C 42.5,54.5 36.5,54.5 30.5,54.5C 27.1667,54.5 23.8333,54.5 20.5,54.5C 14.642,54.8222 8.97533,54.4889 3.5,53.5 Z"/></g>
<g><path style="opacity:0.857" fill="#75c7ec" d="M 89.5,54.5 C 88.1667,55.5 88.1667,56.5 89.5,57.5C 82.1667,57.5 74.8333,57.5 67.5,57.5C 67.1961,56.8501 66.8627,56.1835 66.5,55.5C 74.1378,54.5025 81.8045,54.1692 89.5,54.5 Z"/></g>
</svg>
