<svg width="58" height="74" viewBox="0 0 58 74" fill="none" xmlns="http://www.w3.org/2000/svg">
<path d="M57.7826 72.5111V39.8603C57.7771 39.5988 57.7281 39.3482 57.63 39.1085C57.5265 38.8689 57.3849 38.651 57.1997 38.4658C57.0145 38.2806 56.8021 38.1389 56.5569 38.0409C56.3172 37.9374 56.0667 37.8884 55.8052 37.8884H52.6621C52.733 37.202 52.7656 36.5157 52.7656 35.8239C52.7656 31.1392 51.1315 26.7161 48.1682 23.366C46.7192 21.71 44.9979 20.4027 43.0096 19.4494C40.9506 18.458 38.7771 17.9678 36.4947 17.9678C34.2069 17.9678 32.0334 18.458 29.9744 19.4494C27.9861 20.4027 26.2702 21.71 24.8158 23.366C21.8525 26.7161 20.2183 31.1392 20.2183 35.8239C20.2183 36.5157 20.2565 37.202 20.3218 37.8884H17.1842C16.9227 37.8884 16.6667 37.9374 16.427 38.0409C16.1874 38.1389 15.9695 38.2806 15.7843 38.4658C15.5991 38.651 15.4574 38.8689 15.3594 39.1085C15.2559 39.3482 15.2069 39.5988 15.2014 39.8603V72.5111C15.2014 72.7943 15.3049 73.0395 15.5065 73.241C15.708 73.448 15.9531 73.546 16.2418 73.546H56.7421C57.0308 73.546 57.276 73.448 57.4775 73.241C57.6791 73.0395 57.7826 72.7943 57.7826 72.5111ZM41.6533 54.6387C41.3646 55.6573 40.7926 56.4744 39.9428 57.1063C39.3981 57.5148 39.0767 58.1085 39.0767 58.7404V58.7786C39.0767 61.3715 37.9219 62.5971 36.4838 62.5971C35.0512 62.5971 33.8909 61.3715 33.8909 58.7786V58.7404C33.8909 58.1085 33.5804 57.5148 33.0357 57.1063C32.1805 56.4798 31.6085 55.6573 31.3198 54.6387C31.2054 54.2192 31.1564 53.7889 31.1727 53.3531C31.2272 52.3726 31.5704 51.5065 32.2132 50.7602C33.1174 49.6762 34.5391 48.9408 36.1461 48.8537C38.0417 48.7447 39.7358 49.5237 40.7654 50.7548C41.4463 51.561 41.7894 52.487 41.7949 53.5383C41.8003 53.9087 41.7513 54.2791 41.6533 54.6387ZM48.4024 37.8884H24.5816C24.5053 37.202 24.4617 36.5157 24.4617 35.8293C24.4617 31.9726 25.7745 28.372 28.155 25.6811C30.4156 23.1263 33.3789 21.7209 36.4947 21.7209C39.6051 21.7209 42.5684 23.1263 44.829 25.6811C47.2095 28.372 48.5222 31.9726 48.5222 35.8293C48.5222 36.5157 48.4841 37.202 48.4024 37.8884Z" fill="#26FFBE"/>
<path d="M25.9164 14.4649C27.6704 13.5933 29.4898 12.9015 31.38 12.3895C33.2702 11.8774 35.193 11.556 37.1486 11.4253C39.0987 11.2946 41.0488 11.3545 42.9935 11.6105C44.9327 11.8665 46.8284 12.3078 48.6859 12.9396C48.9473 13.0268 49.2197 13.0595 49.503 13.0377C49.7808 13.0159 50.0422 12.9451 50.2928 12.8198C50.5434 12.6945 50.7558 12.5256 50.941 12.3132C51.1262 12.1008 51.2624 11.8665 51.3496 11.5996C51.4367 11.3381 51.4749 11.0658 51.4585 10.788C51.4367 10.5102 51.3659 10.2432 51.2461 9.99268C51.1208 9.7421 50.9574 9.52421 50.7504 9.33901C50.5434 9.1538 50.3037 9.01762 50.0422 8.92502C48.9855 8.5655 47.9124 8.26045 46.8284 8.00988C45.7389 7.7593 44.644 7.55776 43.5382 7.41613C42.4324 7.26905 41.3212 7.18189 40.2045 7.14376C39.0878 7.11108 37.9766 7.13287 36.8599 7.20368C35.7487 7.27995 34.6429 7.40523 33.5425 7.59044C32.4422 7.77565 31.3527 8.00988 30.2742 8.29858C29.1956 8.58729 28.1389 8.93046 27.093 9.32811C26.0526 9.72031 25.0285 10.1615 24.0262 10.6572C23.0293 11.1529 22.0543 11.6922 21.1119 12.286C20.1641 12.8743 19.2489 13.5116 18.3665 14.1925C17.4786 14.868 16.6343 15.5924 15.8172 16.3551C15.0055 17.1177 14.232 17.9184 13.4966 18.7573C12.7667 19.5962 12.0749 20.4732 11.4267 21.3774C10.7785 22.2871 10.1738 23.224 9.61821 24.1882C9.06259 25.1524 8.55599 26.1438 8.09842 27.1624C7.64085 28.1756 7.23231 29.216 6.87824 30.2728C6.78564 30.5343 6.75295 30.8121 6.76929 31.0899C6.79109 31.3731 6.8619 31.64 6.98718 31.8906C7.10702 32.1412 7.27589 32.3591 7.48833 32.5443C7.70077 32.7295 7.94045 32.8711 8.20737 32.9583C8.47428 33.0509 8.74665 33.0836 9.0299 33.0672C9.31316 33.0454 9.57463 32.9746 9.83065 32.8493C10.0812 32.724 10.2991 32.5552 10.4843 32.3427C10.6695 32.1303 10.8057 31.8906 10.8983 31.6291C11.5193 29.7716 12.3146 27.9958 13.2897 26.2963C14.2647 24.6022 15.3977 23.017 16.6833 21.5408C17.9743 20.0701 19.396 18.741 20.9485 17.548C22.5009 16.3551 24.1569 15.331 25.9164 14.4649Z" fill="#26FFBE"/>
<path d="M36.0972 0.116819C34.0871 0.263895 32.0989 0.558045 30.1379 0.999274C28.1714 1.43505 26.2485 2.01791 24.3692 2.73695C22.4899 3.46143 20.6705 4.3112 18.9165 5.3026C17.1625 6.28855 15.4902 7.39979 13.8996 8.63087C12.3036 9.8674 10.811 11.2074 9.42197 12.6618C8.02748 14.1108 6.74737 15.6578 5.57621 17.2974C4.4105 18.9371 3.37008 20.6529 2.45494 22.4451C1.5398 24.2372 0.760845 26.0839 0.118069 27.9904C0.0254663 28.2573 -0.0126651 28.5351 0.00367699 28.8184C0.0200191 29.1016 0.0908326 29.3685 0.21612 29.6246C0.341407 29.8751 0.510271 30.0985 0.722714 30.2837C0.935157 30.4743 1.17484 30.6105 1.44175 30.7031C1.71411 30.7903 1.98648 30.8284 2.26973 30.8066C2.55299 30.7848 2.8199 30.714 3.07593 30.5887C3.3265 30.458 3.54439 30.2891 3.7296 30.0767C3.9148 29.8588 4.05098 29.6191 4.13814 29.3468C10.6585 10.0689 31.6631 -0.318961 50.9681 6.1905C51.2351 6.2831 51.5074 6.31579 51.7852 6.29945C52.0685 6.27766 52.3354 6.20684 52.586 6.08156C52.842 5.95627 53.0599 5.79285 53.2451 5.58041C53.4303 5.36797 53.5665 5.12829 53.6591 4.86137C53.7462 4.59446 53.7844 4.3221 53.7626 4.03884C53.7462 3.76103 53.67 3.49411 53.5447 3.24354C53.4249 2.99297 53.256 2.77508 53.0435 2.58987C52.8311 2.40466 52.5914 2.26848 52.3245 2.17588C47.057 0.389182 41.6479 -0.297172 36.0972 0.116819Z" fill="#26FFBE"/>
</svg>
