<svg width="124" height="121" viewBox="0 0 124 121" fill="none" xmlns="http://www.w3.org/2000/svg">
<path d="M11.3195 88.9755C8.80834 84.6504 6.90725 80.0802 5.6108 75.2539L2.85449 75.9893C4.2163 81.0607 6.21544 85.8651 8.85191 90.4027L11.3195 88.9755Z" fill="#26FFBE"/>
<path d="M30.6899 8.71072L32.1171 11.1783C36.4477 8.66714 41.0234 6.76606 45.8551 5.46961L45.1143 2.71875C40.0429 4.08056 35.2329 6.0797 30.6899 8.71072Z" fill="#26FFBE"/>
<path d="M8.79688 30.614L11.2699 32.0412C13.7702 27.7161 16.788 23.7832 20.3233 20.2425L18.3078 18.2324C14.5982 21.9474 11.4279 26.071 8.79688 30.614Z" fill="#26FFBE"/>
<path d="M118.489 44.8967C117.127 39.8308 115.122 35.0263 112.486 30.4888L110.018 31.9214C112.529 36.2411 114.436 40.8113 115.732 45.6376L118.489 44.8967Z" fill="#26FFBE"/>
<path d="M90.6257 112.252L89.1985 109.784C84.8679 112.29 80.2868 114.191 75.4551 115.482L76.1959 118.233C81.2727 116.876 86.0827 114.883 90.6257 112.252Z" fill="#26FFBE"/>
<path d="M60.6006 0.675814L60.606 3.52473H60.6768C65.6556 3.52473 70.5527 4.15661 75.3626 5.43126L76.098 2.67495C71.043 1.34038 65.9062 0.670366 60.6768 0.675814H60.6006Z" fill="#26FFBE"/>
<path d="M112.534 90.3647L110.061 88.9375C107.556 93.2626 104.532 97.1901 100.997 100.725L103.013 102.741C106.728 99.0313 109.903 94.9022 112.534 90.3647Z" fill="#26FFBE"/>
<path d="M89.1172 11.1073C93.4532 13.6022 97.3916 16.6145 100.932 20.1443L102.948 18.1288C99.2273 14.4247 95.0928 11.2599 90.5444 8.63428L89.1172 11.1073Z" fill="#26FFBE"/>
<path d="M118.516 75.9405C119.54 72.1056 120.172 68.2054 120.417 64.2453C121.332 63.2321 122.035 62.0936 122.519 60.8189C123.01 59.5497 123.255 58.2315 123.249 56.8697C123.249 51.4551 119.338 46.9339 114.185 45.9915C114.158 45.8826 114.125 45.7682 114.093 45.6538L113.314 45.8717C112.943 45.8336 112.562 45.8118 112.181 45.8118C111.413 45.8118 110.65 45.8935 109.893 46.0515C109.141 46.2094 108.411 46.4437 107.708 46.7542C107.006 47.0701 106.341 47.446 105.715 47.8981C105.088 48.3502 104.516 48.8568 103.999 49.4288C103.481 49.9953 103.024 50.6108 102.637 51.2754C102.245 51.9399 101.929 52.6372 101.684 53.3671C101.444 54.097 101.275 54.8433 101.188 55.6059C101.101 56.374 101.09 57.1366 101.166 57.9047C101.237 58.6673 101.384 59.419 101.618 60.1544C101.847 60.8898 102.147 61.5925 102.523 62.2625C102.898 62.9379 103.34 63.5589 103.846 64.1418C104.353 64.7192 104.914 65.2421 105.529 65.7051C106.145 66.1681 106.804 66.5604 107.501 66.8872C108.199 67.2086 108.923 67.4591 109.675 67.6335C110.427 67.8078 111.184 67.9058 111.957 67.9222C112.725 67.9385 113.488 67.8731 114.245 67.7315L115.601 67.9113C115.623 67.7315 115.65 67.5463 115.672 67.3611C116.25 67.165 116.811 66.9308 117.35 66.6421C117.04 69.5345 116.506 72.3889 115.754 75.2051L118.516 75.9405ZM113.259 66.5712C113.139 66.5821 113.014 66.593 112.894 66.6039C112.66 66.6203 112.426 66.6257 112.186 66.6257C111.56 66.6257 110.939 66.5658 110.323 66.446C109.708 66.3261 109.108 66.1464 108.525 65.9121C107.943 65.6779 107.392 65.3892 106.864 65.046C106.341 64.7028 105.851 64.3161 105.404 63.8803C104.952 63.4445 104.549 62.9652 104.189 62.4531C103.83 61.9411 103.519 61.3964 103.269 60.8244C103.013 60.2524 102.817 59.6587 102.675 59.0486C102.533 58.4385 102.457 57.8175 102.435 57.1911C102.414 56.5646 102.452 55.9437 102.55 55.3227C102.653 54.7071 102.811 54.1025 103.024 53.5142C103.242 52.9259 103.509 52.3648 103.835 51.8255C104.157 51.2917 104.533 50.7906 104.952 50.3221C105.372 49.8591 105.835 49.4396 106.336 49.0638C106.837 48.6879 107.371 48.3611 107.932 48.0887C108.498 47.8164 109.081 47.5985 109.691 47.4351C110.296 47.2771 110.911 47.1736 111.538 47.13C111.75 47.1137 111.968 47.1082 112.186 47.1082C112.349 47.1082 112.513 47.1082 112.676 47.1191C113.281 47.1518 113.886 47.239 114.474 47.3806C115.068 47.5222 115.64 47.7183 116.195 47.9689C116.751 48.214 117.279 48.5136 117.775 48.8622C118.276 49.2109 118.739 49.6031 119.164 50.0334C119.594 50.4692 119.976 50.9376 120.313 51.4442C120.651 51.9508 120.94 52.4847 121.179 53.0457C121.414 53.6013 121.599 54.1788 121.73 54.7725C121.86 55.3663 121.937 55.9655 121.953 56.5755C121.975 57.1856 121.937 57.7903 121.839 58.3895C121.746 58.9887 121.593 59.577 121.392 60.1489C121.185 60.7209 120.929 61.2711 120.624 61.794C120.313 62.3224 119.959 62.8126 119.562 63.2702C119.164 63.7278 118.723 64.1472 118.249 64.5231C117.769 64.9044 117.263 65.2312 116.724 65.5145C116.184 65.7977 115.623 66.0265 115.04 66.2008C114.458 66.3806 113.864 66.5004 113.259 66.5712Z" fill="#26FFBE"/>
<path d="M0.816895 60.4706V60.5141H3.67125V60.4706C3.67125 55.4863 4.30858 50.5892 5.58868 45.7793L2.83238 45.0439C1.48691 50.099 0.816895 55.2412 0.816895 60.4706Z" fill="#26FFBE"/>
<path d="M20.3945 100.758L18.3735 102.774C22.094 106.483 26.223 109.648 30.7715 112.274L32.1987 109.806C27.8681 107.306 23.9352 104.288 20.3945 100.758Z" fill="#26FFBE"/>
<path d="M60.7044 120.26V117.411H60.6771C55.6875 117.411 50.774 116.773 45.9478 115.493L45.2124 118.244C50.2783 119.589 55.4369 120.265 60.6771 120.26H60.7044Z" fill="#26FFBE"/>
</svg>
