<svg width="236" height="221" viewBox="0 0 236 221" fill="none" xmlns="http://www.w3.org/2000/svg">
<path d="M65.8517 8.15968L61.5103 0.195801C55.9159 3.24081 50.5994 6.71616 45.5607 10.6218C40.5275 14.5275 35.8428 18.8145 31.5014 23.4773C27.1599 28.1456 23.227 33.1244 19.6917 38.4246C16.1619 43.7302 13.0788 49.2755 10.4478 55.0768L18.7167 58.8136C28.4182 37.4005 45.1576 19.4137 65.8517 8.15968Z" fill="#26FFBE"/>
<mask id="mask0_2010_687" style="mask-type:luminance" maskUnits="userSpaceOnUse" x="0" y="102" width="36" height="78">
<path d="M0 102.691H35.6359V179.389H0V102.691Z" fill="white"/>
</mask>
<g mask="url(#mask0_2010_687)">
<path d="M9.11869 103.47H0.0381231C0.0326762 110.345 0.626426 117.17 1.81937 123.941C3.01232 130.717 4.79357 137.33 7.15768 143.791C9.51634 150.251 12.4252 156.456 15.8842 162.404C19.3377 168.353 23.287 173.952 27.7319 179.203L34.6717 173.359C24.469 161.277 17.1752 147.468 12.9971 132.308C10.4042 122.873 9.11324 113.259 9.11869 103.47Z" fill="#26FFBE"/>
</g>
<mask id="mask1_2010_687" style="mask-type:luminance" maskUnits="userSpaceOnUse" x="84" y="204" width="78" height="17">
<path d="M84.4434 204.489H161.141V221H84.4434V204.489Z" fill="white"/>
</mask>
<g mask="url(#mask1_2010_687)">
<path d="M117.677 211.903C107.306 211.914 97.141 210.465 87.1834 207.567L84.6395 216.272C95.4251 219.415 106.439 220.984 117.677 220.973C132.423 220.973 146.798 218.282 160.416 212.976L157.115 204.527C144.554 209.425 131.29 211.903 117.677 211.903Z" fill="#26FFBE"/>
</g>
<mask id="mask2_2010_687" style="mask-type:luminance" maskUnits="userSpaceOnUse" x="173" y="2" width="63" height="103">
<path d="M173.691 2.2876H235.321V104.086H173.691V2.2876Z" fill="white"/>
</mask>
<g mask="url(#mask2_2010_687)">
<path d="M230.517 70.1277C226.339 55.9866 219.72 43.0984 210.651 31.4577C201.69 19.9367 190.964 10.3986 178.463 2.84326L173.767 10.6056C197.071 24.6813 214.132 46.7317 221.812 72.7042C224.77 82.7435 226.246 93.0007 226.241 103.47H235.321C235.327 92.1237 233.725 81.0113 230.517 70.1277Z" fill="#26FFBE"/>
</g>
</svg>
