<svg width="432" height="129" viewBox="0 0 432 129" fill="none" xmlns="http://www.w3.org/2000/svg">
<path d="M3.8147e-05 64.4113C16.1563 64.4113 23.573 72.5155 23.6355 88.2967C23.6355 72.5311 31.1094 64.38 47.2552 64.4113C31.125 64.4113 23.6927 56.3071 23.6355 40.5259C23.573 56.3071 16.1563 64.4998 3.8147e-05 64.4113Z" fill="#2DE579"/>
<mask id="mask0_249_8165" style="mask-type:luminance" maskUnits="userSpaceOnUse" x="214" y="0" width="218" height="129">
<path d="M431.432 0H214.541V129H431.432V0Z" fill="white"/>
</mask>
<g mask="url(#mask0_249_8165)">
<path d="M279.38 128.927C279.515 84.8438 257.526 64.5729 214.76 64.3698C257.484 64.25 279.515 44.0208 279.5 0.015625C279.5 25.4062 286.786 42.8698 301.135 53.1667C315.531 42.9271 322.875 25.375 322.849 0.0572917C322.849 25.4635 330.135 42.9427 344.531 53.2396C358.953 43 366.385 25.4479 366.297 0.0885417C366.198 44.1094 388.156 64.4427 430.932 64.5729C388.182 64.6875 366.135 84.9323 366.182 129.016C366.255 103.552 358.896 86.0573 344.5 75.7604C330.062 86 322.646 103.552 322.729 128.969C322.802 103.552 315.448 86.0573 301.093 75.7448C286.698 86.0156 279.354 103.49 279.38 128.927Z" fill="#2DE579"/>
</g>
<path d="M322.864 64.1926H28.2394V64.8228H322.864V64.1926Z" fill="#2DE579"/>
</svg>
